%TF.GenerationSoftware,KiCad,Pcbnew,(5.1.9)-1*%
%TF.CreationDate,2021-04-06T00:29:57+03:00*%
%TF.ProjectId,SplitHside2,53706c69-7448-4736-9964-65322e6b6963,rev?*%
%TF.SameCoordinates,Original*%
%TF.FileFunction,Copper,L2,Bot*%
%TF.FilePolarity,Positive*%
%FSLAX46Y46*%
G04 Gerber Fmt 4.6, Leading zero omitted, Abs format (unit mm)*
G04 Created by KiCad (PCBNEW (5.1.9)-1) date 2021-04-06 00:29:57*
%MOMM*%
%LPD*%
G01*
G04 APERTURE LIST*
%TA.AperFunction,ComponentPad*%
%ADD10C,2.250000*%
%TD*%
%TA.AperFunction,ComponentPad*%
%ADD11C,1.651000*%
%TD*%
%TA.AperFunction,ComponentPad*%
%ADD12R,1.651000X1.651000*%
%TD*%
%TA.AperFunction,ComponentPad*%
%ADD13C,1.752600*%
%TD*%
%TA.AperFunction,ComponentPad*%
%ADD14R,1.752600X1.752600*%
%TD*%
%TA.AperFunction,ComponentPad*%
%ADD15O,1.600000X2.000000*%
%TD*%
%TA.AperFunction,Conductor*%
%ADD16C,0.250000*%
%TD*%
G04 APERTURE END LIST*
D10*
%TO.P,SW57,2*%
%TO.N,D2*%
X244231800Y-137792000D03*
%TO.P,SW57,1*%
%TO.N,Net-(D57-Pad1)*%
X237881800Y-140332000D03*
%TD*%
%TO.P,SW46,2*%
%TO.N,E6*%
X244231800Y-28257500D03*
%TO.P,SW46,1*%
%TO.N,Net-(D46-Pad1)*%
X237881800Y-30797500D03*
%TD*%
%TO.P,SW35,2*%
%TO.N,D2*%
X225187810Y-118745520D03*
%TO.P,SW35,1*%
%TO.N,Net-(D35-Pad1)*%
X218837810Y-121285520D03*
%TD*%
D11*
%TO.P,R2,2*%
%TO.N,D1*%
X18256250Y-70961250D03*
%TO.P,R2,1*%
%TO.N,/Sheet60DDDDC8/3*%
X18256250Y-60801250D03*
%TD*%
%TO.P,R1,2*%
%TO.N,D0*%
X15875000Y-72548750D03*
%TO.P,R1,1*%
%TO.N,/Sheet60DDDDC8/2*%
X15875000Y-62388750D03*
%TD*%
D10*
%TO.P,SW14,2*%
%TO.N,F6*%
X101362290Y-94932920D03*
%TO.P,SW14,1*%
%TO.N,Net-(D14-Pad1)*%
X95012290Y-97472920D03*
%TD*%
%TO.P,SW13,2*%
%TO.N,F6*%
X96599770Y-75882840D03*
%TO.P,SW13,1*%
%TO.N,Net-(D13-Pad1)*%
X90249770Y-78422840D03*
%TD*%
%TO.P,SW54,2*%
%TO.N,D7*%
X175181350Y-133033080D03*
%TO.P,SW54,1*%
%TO.N,Net-(D54-Pad1)*%
X168831350Y-135573080D03*
%TD*%
%TO.P,SW55,1*%
%TO.N,Net-(D55-Pad1)*%
X199787730Y-140335600D03*
%TO.P,SW55,2*%
%TO.N,C6*%
X206137730Y-137795600D03*
%TD*%
%TO.P,SW56,2*%
%TO.N,D4*%
X225187810Y-137795600D03*
%TO.P,SW56,1*%
%TO.N,Net-(D56-Pad1)*%
X218837810Y-140335600D03*
%TD*%
%TO.P,SW51,2*%
%TO.N,B5*%
X89455990Y-133033080D03*
%TO.P,SW51,1*%
%TO.N,Net-(D51-Pad1)*%
X83105990Y-135573080D03*
%TD*%
D12*
%TO.P,D51,2*%
%TO.N,F5*%
X69056540Y-143351820D03*
D11*
%TO.P,D51,1*%
%TO.N,Net-(D51-Pad1)*%
X69056540Y-135731820D03*
%TD*%
D13*
%TO.P,J1,24*%
%TO.N,RAW*%
X37385750Y-61039690D03*
%TO.P,J1,12*%
%TO.N,B5*%
X22145750Y-88979690D03*
%TO.P,J1,23*%
%TO.N,GND*%
X37385750Y-63579690D03*
%TO.P,J1,22*%
%TO.N,RESET*%
X37385750Y-66119690D03*
%TO.P,J1,21*%
%TO.N,VCC*%
X37385750Y-68659690D03*
%TO.P,J1,20*%
%TO.N,F4*%
X37385750Y-71199690D03*
%TO.P,J1,19*%
%TO.N,F5*%
X37385750Y-73739690D03*
%TO.P,J1,18*%
%TO.N,F6*%
X37385750Y-76279690D03*
%TO.P,J1,17*%
%TO.N,F7*%
X37385750Y-78819690D03*
%TO.P,J1,16*%
%TO.N,B1*%
X37385750Y-81359690D03*
%TO.P,J1,15*%
%TO.N,B3*%
X37385750Y-83899690D03*
%TO.P,J1,14*%
%TO.N,B2*%
X37385750Y-86439690D03*
%TO.P,J1,13*%
%TO.N,B6*%
X37385750Y-88979690D03*
%TO.P,J1,11*%
%TO.N,B4*%
X22145750Y-86439690D03*
%TO.P,J1,10*%
%TO.N,E6*%
X22145750Y-83899690D03*
%TO.P,J1,9*%
%TO.N,D7*%
X22145750Y-81359690D03*
%TO.P,J1,8*%
%TO.N,C6*%
X22145750Y-78819690D03*
%TO.P,J1,7*%
%TO.N,D4*%
X22145750Y-76279690D03*
%TO.P,J1,6*%
%TO.N,D0*%
X22145750Y-73739690D03*
%TO.P,J1,5*%
%TO.N,D1*%
X22145750Y-71199690D03*
%TO.P,J1,4*%
%TO.N,GND*%
X22145750Y-68659690D03*
%TO.P,J1,3*%
X22145750Y-66119690D03*
%TO.P,J1,2*%
%TO.N,D2*%
X22145750Y-63579690D03*
D14*
%TO.P,J1,1*%
%TO.N,D3*%
X22145750Y-61039690D03*
%TD*%
D10*
%TO.P,SW8,2*%
%TO.N,B4*%
X77549690Y-75882840D03*
%TO.P,SW8,1*%
%TO.N,Net-(D8-Pad1)*%
X71199690Y-78422840D03*
%TD*%
%TO.P,SW10,2*%
%TO.N,B4*%
X91837250Y-113983000D03*
%TO.P,SW10,1*%
%TO.N,Net-(D10-Pad1)*%
X85487250Y-116523000D03*
%TD*%
%TO.P,SW3,2*%
%TO.N,B5*%
X58499610Y-75882840D03*
%TO.P,SW3,1*%
%TO.N,Net-(D3-Pad1)*%
X52149610Y-78422840D03*
%TD*%
%TO.P,SW4,2*%
%TO.N,B5*%
X63262130Y-94932920D03*
%TO.P,SW4,1*%
%TO.N,Net-(D4-Pad1)*%
X56912130Y-97472920D03*
%TD*%
%TO.P,SW53,2*%
%TO.N,F6*%
X151368750Y-133033080D03*
%TO.P,SW53,1*%
%TO.N,Net-(D53-Pad1)*%
X145018750Y-135573080D03*
%TD*%
%TO.P,SW52,2*%
%TO.N,B4*%
X127556150Y-133033080D03*
%TO.P,SW52,1*%
%TO.N,Net-(D52-Pad1)*%
X121206150Y-135573080D03*
%TD*%
%TO.P,SW37,1*%
%TO.N,Net-(D37-Pad1)*%
X198993950Y-86677880D03*
%TO.P,SW37,2*%
%TO.N,D3*%
X201533950Y-93027880D03*
%TD*%
%TO.P,SW32,2*%
%TO.N,D2*%
X191850170Y-56832760D03*
%TO.P,SW32,1*%
%TO.N,Net-(D32-Pad1)*%
X185500170Y-59372760D03*
%TD*%
%TO.P,SW30,2*%
%TO.N,D4*%
X184706390Y-113983000D03*
%TO.P,SW30,1*%
%TO.N,Net-(D30-Pad1)*%
X178356390Y-116523000D03*
%TD*%
%TO.P,SW42,2*%
%TO.N,F4*%
X225187810Y-56832760D03*
%TO.P,SW42,1*%
%TO.N,Net-(D42-Pad1)*%
X218837810Y-59372760D03*
%TD*%
%TO.P,SW41,2*%
%TO.N,F4*%
X225187810Y-28257640D03*
%TO.P,SW41,1*%
%TO.N,Net-(D41-Pad1)*%
X218837810Y-30797640D03*
%TD*%
%TO.P,SW38,2*%
%TO.N,D3*%
X225187810Y-75882840D03*
%TO.P,SW38,1*%
%TO.N,Net-(D38-Pad1)*%
X218837810Y-78422840D03*
%TD*%
%TO.P,SW33,2*%
%TO.N,D2*%
X172800090Y-75882840D03*
%TO.P,SW33,1*%
%TO.N,Net-(D33-Pad1)*%
X166450090Y-78422840D03*
%TD*%
%TO.P,SW27,2*%
%TO.N,D4*%
X163275050Y-56832760D03*
%TO.P,SW27,1*%
%TO.N,Net-(D27-Pad1)*%
X156925050Y-59372760D03*
%TD*%
%TO.P,SW12,2*%
%TO.N,F6*%
X106124810Y-56832760D03*
%TO.P,SW12,1*%
%TO.N,Net-(D12-Pad1)*%
X99774810Y-59372760D03*
%TD*%
%TO.P,SW6,2*%
%TO.N,B4*%
X77549690Y-28257640D03*
%TO.P,SW6,1*%
%TO.N,Net-(D6-Pad1)*%
X71199690Y-30797640D03*
%TD*%
D12*
%TO.P,D6,2*%
%TO.N,B6*%
X64293750Y-34766250D03*
D11*
%TO.P,D6,1*%
%TO.N,Net-(D6-Pad1)*%
X64293750Y-27146250D03*
%TD*%
D10*
%TO.P,SW47,2*%
%TO.N,E6*%
X244237890Y-56832760D03*
%TO.P,SW47,1*%
%TO.N,Net-(D47-Pad1)*%
X237887890Y-59372760D03*
%TD*%
%TO.P,SW43,2*%
%TO.N,F4*%
X244237890Y-75882840D03*
%TO.P,SW43,1*%
%TO.N,Net-(D43-Pad1)*%
X237887890Y-78422840D03*
%TD*%
%TO.P,SW36,2*%
%TO.N,D3*%
X201375210Y-28257640D03*
%TO.P,SW36,1*%
%TO.N,Net-(D36-Pad1)*%
X195025210Y-30797640D03*
%TD*%
%TO.P,SW34,2*%
%TO.N,D2*%
X177562610Y-94932920D03*
%TO.P,SW34,1*%
%TO.N,Net-(D34-Pad1)*%
X171212610Y-97472920D03*
%TD*%
%TO.P,SW31,2*%
%TO.N,D2*%
X182325130Y-28257640D03*
%TO.P,SW31,1*%
%TO.N,Net-(D31-Pad1)*%
X175975130Y-30797640D03*
%TD*%
%TO.P,SW29,2*%
%TO.N,D4*%
X158512530Y-94932920D03*
%TO.P,SW29,1*%
%TO.N,Net-(D29-Pad1)*%
X152162530Y-97472920D03*
%TD*%
%TO.P,SW28,2*%
%TO.N,D4*%
X153750010Y-75882840D03*
%TO.P,SW28,1*%
%TO.N,Net-(D28-Pad1)*%
X147400010Y-78422840D03*
%TD*%
%TO.P,SW26,2*%
%TO.N,D4*%
X163275050Y-28257640D03*
%TO.P,SW26,1*%
%TO.N,Net-(D26-Pad1)*%
X156925050Y-30797640D03*
%TD*%
%TO.P,SW25,2*%
%TO.N,C6*%
X148987490Y-113983000D03*
%TO.P,SW25,1*%
%TO.N,Net-(D25-Pad1)*%
X142637490Y-116523000D03*
%TD*%
%TO.P,SW24,2*%
%TO.N,C6*%
X139462450Y-94932920D03*
%TO.P,SW24,1*%
%TO.N,Net-(D24-Pad1)*%
X133112450Y-97472920D03*
%TD*%
%TO.P,SW23,2*%
%TO.N,C6*%
X134699930Y-75882840D03*
%TO.P,SW23,1*%
%TO.N,Net-(D23-Pad1)*%
X128349930Y-78422840D03*
%TD*%
%TO.P,SW22,2*%
%TO.N,C6*%
X144224970Y-56832760D03*
%TO.P,SW22,1*%
%TO.N,Net-(D22-Pad1)*%
X137874970Y-59372760D03*
%TD*%
%TO.P,SW21,2*%
%TO.N,C6*%
X144224970Y-28257640D03*
%TO.P,SW21,1*%
%TO.N,Net-(D21-Pad1)*%
X137874970Y-30797640D03*
%TD*%
%TO.P,SW20,2*%
%TO.N,D7*%
X129937410Y-113983000D03*
%TO.P,SW20,1*%
%TO.N,Net-(D20-Pad1)*%
X123587410Y-116523000D03*
%TD*%
%TO.P,SW19,2*%
%TO.N,D7*%
X120412370Y-94932920D03*
%TO.P,SW19,1*%
%TO.N,Net-(D19-Pad1)*%
X114062370Y-97472920D03*
%TD*%
%TO.P,SW18,2*%
%TO.N,D7*%
X115649850Y-75882840D03*
%TO.P,SW18,1*%
%TO.N,Net-(D18-Pad1)*%
X109299850Y-78422840D03*
%TD*%
%TO.P,SW17,2*%
%TO.N,D7*%
X125174890Y-56832760D03*
%TO.P,SW17,1*%
%TO.N,Net-(D17-Pad1)*%
X118824890Y-59372760D03*
%TD*%
%TO.P,SW16,2*%
%TO.N,D7*%
X115649850Y-28257640D03*
%TO.P,SW16,1*%
%TO.N,Net-(D16-Pad1)*%
X109299850Y-30797640D03*
%TD*%
%TO.P,SW15,2*%
%TO.N,F6*%
X110887330Y-113983000D03*
%TO.P,SW15,1*%
%TO.N,Net-(D15-Pad1)*%
X104537330Y-116523000D03*
%TD*%
%TO.P,SW11,2*%
%TO.N,F6*%
X96599770Y-28257640D03*
%TO.P,SW11,1*%
%TO.N,Net-(D11-Pad1)*%
X90249770Y-30797640D03*
%TD*%
%TO.P,SW9,2*%
%TO.N,B4*%
X82312210Y-94932920D03*
%TO.P,SW9,1*%
%TO.N,Net-(D9-Pad1)*%
X75962210Y-97472920D03*
%TD*%
%TO.P,SW7,2*%
%TO.N,B4*%
X87074730Y-56832500D03*
%TO.P,SW7,1*%
%TO.N,Net-(D7-Pad1)*%
X80724730Y-59372500D03*
%TD*%
%TO.P,SW5,2*%
%TO.N,B5*%
X72787170Y-113983000D03*
%TO.P,SW5,1*%
%TO.N,Net-(D5-Pad1)*%
X66437170Y-116523000D03*
%TD*%
%TO.P,SW2,2*%
%TO.N,B5*%
X68024650Y-56832760D03*
%TO.P,SW2,1*%
%TO.N,Net-(D2-Pad1)*%
X61674650Y-59372760D03*
%TD*%
%TO.P,SW1,2*%
%TO.N,B5*%
X58499610Y-28257640D03*
%TO.P,SW1,1*%
%TO.N,Net-(D1-Pad1)*%
X52149610Y-30797640D03*
%TD*%
D12*
%TO.P,D47,2*%
%TO.N,B2*%
X232568750Y-63341250D03*
D11*
%TO.P,D47,1*%
%TO.N,Net-(D47-Pad1)*%
X232568750Y-55721250D03*
%TD*%
D12*
%TO.P,D46,2*%
%TO.N,B6*%
X231775000Y-37941250D03*
D11*
%TO.P,D46,1*%
%TO.N,Net-(D46-Pad1)*%
X231775000Y-30321250D03*
%TD*%
D12*
%TO.P,D43,2*%
%TO.N,B3*%
X231775000Y-82391250D03*
D11*
%TO.P,D43,1*%
%TO.N,Net-(D43-Pad1)*%
X231775000Y-74771250D03*
%TD*%
D12*
%TO.P,D42,2*%
%TO.N,B2*%
X212725000Y-63500000D03*
D11*
%TO.P,D42,1*%
%TO.N,Net-(D42-Pad1)*%
X212725000Y-55880000D03*
%TD*%
D12*
%TO.P,D41,2*%
%TO.N,B6*%
X211931250Y-38100000D03*
D11*
%TO.P,D41,1*%
%TO.N,Net-(D41-Pad1)*%
X211931250Y-30480000D03*
%TD*%
D12*
%TO.P,D38,2*%
%TO.N,B3*%
X211137500Y-82550000D03*
D11*
%TO.P,D38,1*%
%TO.N,Net-(D38-Pad1)*%
X211137500Y-74930000D03*
%TD*%
D12*
%TO.P,D37,2*%
%TO.N,B2*%
X207169620Y-94535990D03*
D11*
%TO.P,D37,1*%
%TO.N,Net-(D37-Pad1)*%
X207169620Y-86915990D03*
%TD*%
D12*
%TO.P,D36,2*%
%TO.N,B6*%
X189706250Y-35718750D03*
D11*
%TO.P,D36,1*%
%TO.N,Net-(D36-Pad1)*%
X189706250Y-28098750D03*
%TD*%
D12*
%TO.P,D35,2*%
%TO.N,F7*%
X212725000Y-113665000D03*
D11*
%TO.P,D35,1*%
%TO.N,Net-(D35-Pad1)*%
X212725000Y-121285000D03*
%TD*%
D12*
%TO.P,D34,2*%
%TO.N,B1*%
X166687500Y-89693750D03*
D11*
%TO.P,D34,1*%
%TO.N,Net-(D34-Pad1)*%
X166687500Y-97313750D03*
%TD*%
D12*
%TO.P,D33,2*%
%TO.N,B3*%
X161131250Y-83185000D03*
D11*
%TO.P,D33,1*%
%TO.N,Net-(D33-Pad1)*%
X161131250Y-75565000D03*
%TD*%
D12*
%TO.P,D32,2*%
%TO.N,B2*%
X173037500Y-64770240D03*
D11*
%TO.P,D32,1*%
%TO.N,Net-(D32-Pad1)*%
X173037500Y-57150240D03*
%TD*%
D12*
%TO.P,D31,2*%
%TO.N,B6*%
X169862500Y-35401250D03*
D11*
%TO.P,D31,1*%
%TO.N,Net-(D31-Pad1)*%
X169862500Y-27781250D03*
%TD*%
D12*
%TO.P,D30,2*%
%TO.N,F7*%
X164306250Y-109061250D03*
D11*
%TO.P,D30,1*%
%TO.N,Net-(D30-Pad1)*%
X164306250Y-116681250D03*
%TD*%
D12*
%TO.P,D29,2*%
%TO.N,B1*%
X148431250Y-89852500D03*
D11*
%TO.P,D29,1*%
%TO.N,Net-(D29-Pad1)*%
X148431250Y-97472500D03*
%TD*%
D12*
%TO.P,D28,2*%
%TO.N,B3*%
X142081250Y-83343750D03*
D11*
%TO.P,D28,1*%
%TO.N,Net-(D28-Pad1)*%
X142081250Y-75723750D03*
%TD*%
D12*
%TO.P,D27,2*%
%TO.N,B2*%
X151606250Y-64293750D03*
D11*
%TO.P,D27,1*%
%TO.N,Net-(D27-Pad1)*%
X151606250Y-56673750D03*
%TD*%
D12*
%TO.P,D26,2*%
%TO.N,B6*%
X150018750Y-35560000D03*
D11*
%TO.P,D26,1*%
%TO.N,Net-(D26-Pad1)*%
X150018750Y-27940000D03*
%TD*%
D12*
%TO.P,D25,2*%
%TO.N,F7*%
X138906250Y-108743750D03*
D11*
%TO.P,D25,1*%
%TO.N,Net-(D25-Pad1)*%
X138906250Y-116363750D03*
%TD*%
D12*
%TO.P,D24,2*%
%TO.N,B1*%
X127793750Y-89693750D03*
D11*
%TO.P,D24,1*%
%TO.N,Net-(D24-Pad1)*%
X127793750Y-97313750D03*
%TD*%
D12*
%TO.P,D23,2*%
%TO.N,B3*%
X122237500Y-83343750D03*
D11*
%TO.P,D23,1*%
%TO.N,Net-(D23-Pad1)*%
X122237500Y-75723750D03*
%TD*%
D12*
%TO.P,D22,2*%
%TO.N,B2*%
X132556250Y-64293750D03*
D11*
%TO.P,D22,1*%
%TO.N,Net-(D22-Pad1)*%
X132556250Y-56673750D03*
%TD*%
D12*
%TO.P,D21,2*%
%TO.N,B6*%
X133350000Y-35401250D03*
D11*
%TO.P,D21,1*%
%TO.N,Net-(D21-Pad1)*%
X133350000Y-27781250D03*
%TD*%
D12*
%TO.P,D20,2*%
%TO.N,F7*%
X119856250Y-108743750D03*
D11*
%TO.P,D20,1*%
%TO.N,Net-(D20-Pad1)*%
X119856250Y-116363750D03*
%TD*%
D12*
%TO.P,D19,2*%
%TO.N,B1*%
X109537500Y-89852500D03*
D11*
%TO.P,D19,1*%
%TO.N,Net-(D19-Pad1)*%
X109537500Y-97472500D03*
%TD*%
D12*
%TO.P,D18,2*%
%TO.N,B3*%
X103981250Y-83185000D03*
D11*
%TO.P,D18,1*%
%TO.N,Net-(D18-Pad1)*%
X103981250Y-75565000D03*
%TD*%
D12*
%TO.P,D17,2*%
%TO.N,B2*%
X113506250Y-64293750D03*
D11*
%TO.P,D17,1*%
%TO.N,Net-(D17-Pad1)*%
X113506250Y-56673750D03*
%TD*%
D12*
%TO.P,D16,2*%
%TO.N,B6*%
X103187500Y-35401250D03*
D11*
%TO.P,D16,1*%
%TO.N,Net-(D16-Pad1)*%
X103187500Y-27781250D03*
%TD*%
D12*
%TO.P,D15,2*%
%TO.N,F7*%
X100806250Y-108743750D03*
D11*
%TO.P,D15,1*%
%TO.N,Net-(D15-Pad1)*%
X100806250Y-116363750D03*
%TD*%
D12*
%TO.P,D14,2*%
%TO.N,B1*%
X90487500Y-89852500D03*
D11*
%TO.P,D14,1*%
%TO.N,Net-(D14-Pad1)*%
X90487500Y-97472500D03*
%TD*%
D12*
%TO.P,D13,2*%
%TO.N,B3*%
X82550000Y-83343750D03*
D11*
%TO.P,D13,1*%
%TO.N,Net-(D13-Pad1)*%
X82550000Y-75723750D03*
%TD*%
D12*
%TO.P,D12,2*%
%TO.N,B2*%
X94456250Y-64293750D03*
D11*
%TO.P,D12,1*%
%TO.N,Net-(D12-Pad1)*%
X94456250Y-56673750D03*
%TD*%
D12*
%TO.P,D11,2*%
%TO.N,B6*%
X84137500Y-34925000D03*
D11*
%TO.P,D11,1*%
%TO.N,Net-(D11-Pad1)*%
X84137500Y-27305000D03*
%TD*%
D12*
%TO.P,D10,2*%
%TO.N,F7*%
X81756250Y-108743750D03*
D11*
%TO.P,D10,1*%
%TO.N,Net-(D10-Pad1)*%
X81756250Y-116363750D03*
%TD*%
D12*
%TO.P,D9,2*%
%TO.N,B1*%
X72231250Y-90011250D03*
D11*
%TO.P,D9,1*%
%TO.N,Net-(D9-Pad1)*%
X72231250Y-97631250D03*
%TD*%
D12*
%TO.P,D8,2*%
%TO.N,B3*%
X65881250Y-83343750D03*
D11*
%TO.P,D8,1*%
%TO.N,Net-(D8-Pad1)*%
X65881250Y-75723750D03*
%TD*%
D12*
%TO.P,D7,2*%
%TO.N,B2*%
X75009690Y-64770240D03*
D11*
%TO.P,D7,1*%
%TO.N,Net-(D7-Pad1)*%
X75009690Y-57150240D03*
%TD*%
D12*
%TO.P,D5,2*%
%TO.N,F7*%
X62706250Y-108902500D03*
D11*
%TO.P,D5,1*%
%TO.N,Net-(D5-Pad1)*%
X62706250Y-116522500D03*
%TD*%
D12*
%TO.P,D4,2*%
%TO.N,B1*%
X52387500Y-90011250D03*
D11*
%TO.P,D4,1*%
%TO.N,Net-(D4-Pad1)*%
X52387500Y-97631250D03*
%TD*%
D12*
%TO.P,D3,2*%
%TO.N,B3*%
X46831250Y-83343750D03*
D11*
%TO.P,D3,1*%
%TO.N,Net-(D3-Pad1)*%
X46831250Y-75723750D03*
%TD*%
D12*
%TO.P,D2,2*%
%TO.N,B2*%
X56356250Y-64770000D03*
D11*
%TO.P,D2,1*%
%TO.N,Net-(D2-Pad1)*%
X56356250Y-57150000D03*
%TD*%
D12*
%TO.P,D1,2*%
%TO.N,B6*%
X46037500Y-34925000D03*
D11*
%TO.P,D1,1*%
%TO.N,Net-(D1-Pad1)*%
X46037500Y-27305000D03*
%TD*%
D15*
%TO.P,J2,3*%
%TO.N,/Sheet60DDDDC8/3*%
X11825040Y-63350240D03*
%TO.P,J2,4*%
%TO.N,GND*%
X11825040Y-60350240D03*
%TO.P,J2,2*%
%TO.N,/Sheet60DDDDC8/2*%
X11825040Y-67350240D03*
%TO.P,J2,1*%
%TO.N,VCC*%
X7225040Y-68450240D03*
%TD*%
D11*
%TO.P,D52,1*%
%TO.N,Net-(D52-Pad1)*%
X114300480Y-135731820D03*
D12*
%TO.P,D52,2*%
%TO.N,F5*%
X114300480Y-143351820D03*
%TD*%
%TO.P,D53,2*%
%TO.N,F5*%
X136949899Y-143731650D03*
D11*
%TO.P,D53,1*%
%TO.N,Net-(D53-Pad1)*%
X136949899Y-136111650D03*
%TD*%
%TO.P,D54,1*%
%TO.N,Net-(D54-Pad1)*%
X161925680Y-135731820D03*
D12*
%TO.P,D54,2*%
%TO.N,F5*%
X161925680Y-143351820D03*
%TD*%
D11*
%TO.P,D55,1*%
%TO.N,Net-(D55-Pad1)*%
X194072690Y-140256230D03*
D12*
%TO.P,D55,2*%
%TO.N,F5*%
X194072690Y-147876230D03*
%TD*%
%TO.P,D56,2*%
%TO.N,F5*%
X213122770Y-147638120D03*
D11*
%TO.P,D56,1*%
%TO.N,Net-(D56-Pad1)*%
X213122770Y-140018120D03*
%TD*%
%TO.P,D57,1*%
%TO.N,Net-(D57-Pad1)*%
X232172850Y-140256230D03*
D12*
%TO.P,D57,2*%
%TO.N,F5*%
X232172850Y-147876230D03*
%TD*%
D16*
%TO.N,B5*%
X58499610Y-28257640D02*
X49529860Y-28257640D01*
X49529860Y-28257640D02*
X48418750Y-29368750D01*
X48418750Y-37226860D02*
X68024650Y-56832760D01*
X48418750Y-29368750D02*
X48418750Y-37226860D01*
X68024650Y-56832760D02*
X70326510Y-56832760D01*
X70326510Y-56832760D02*
X72231250Y-58737500D01*
X72231250Y-58737500D02*
X72231250Y-65087500D01*
X61435910Y-75882840D02*
X58499610Y-75882840D01*
X72231250Y-65087500D02*
X61435910Y-75882840D01*
X63262130Y-79612870D02*
X63262130Y-94932920D01*
X61436760Y-77787500D02*
X63262130Y-79612870D01*
X60404270Y-77787500D02*
X61436760Y-77787500D01*
X58499610Y-75882840D02*
X60404270Y-77787500D01*
X89455990Y-133033080D02*
X89455990Y-128349740D01*
X79375000Y-118268750D02*
X76993750Y-118268750D01*
X89455990Y-128349740D02*
X79375000Y-118268750D01*
X72787170Y-114062170D02*
X72787170Y-113983000D01*
X76993750Y-118268750D02*
X72787170Y-114062170D01*
X72787170Y-113983000D02*
X72787170Y-103743420D01*
X63976670Y-94932920D02*
X63262130Y-94932920D01*
X72787170Y-103743420D02*
X63976670Y-94932920D01*
X56435520Y-73818750D02*
X58499610Y-75882840D01*
X45243750Y-73818750D02*
X56435520Y-73818750D01*
X44121509Y-74940991D02*
X45243750Y-73818750D01*
X36977759Y-74940991D02*
X44121509Y-74940991D01*
X36512500Y-75406250D02*
X36977759Y-74940991D01*
X35719190Y-75406250D02*
X36512500Y-75406250D01*
X22145750Y-88979690D02*
X35719190Y-75406250D01*
%TO.N,GND*%
X37385750Y-63579690D02*
X30876560Y-63579690D01*
X28336560Y-66119690D02*
X22145750Y-66119690D01*
X30876560Y-63579690D02*
X28336560Y-66119690D01*
X22145750Y-68659690D02*
X22145750Y-66119690D01*
X17594490Y-66119690D02*
X11825040Y-60350240D01*
X22145750Y-66119690D02*
X17594490Y-66119690D01*
%TO.N,VCC*%
X31104449Y-74940991D02*
X37385750Y-68659690D01*
X13715791Y-74940991D02*
X31104449Y-74940991D01*
X7225040Y-68450240D02*
X13715791Y-74940991D01*
%TO.N,F4*%
X244237890Y-75882840D02*
X240982840Y-75882840D01*
X240982840Y-75882840D02*
X230187500Y-65087500D01*
X230187500Y-65087500D02*
X230187500Y-59531250D01*
X227489010Y-56832760D02*
X225187810Y-56832760D01*
X230187500Y-59531250D02*
X227489010Y-56832760D01*
X225187810Y-56832760D02*
X229393750Y-52626820D01*
X229393750Y-32463580D02*
X225187810Y-28257640D01*
X229393750Y-52626820D02*
X229393750Y-32463580D01*
%TO.N,F5*%
X20944449Y-89556315D02*
X52038134Y-120650000D01*
X20944449Y-85863065D02*
X20944449Y-89556315D01*
X21706523Y-85100991D02*
X20944449Y-85863065D01*
X22722375Y-85100991D02*
X21706523Y-85100991D01*
X34083676Y-73739690D02*
X22722375Y-85100991D01*
X37385750Y-73739690D02*
X34083676Y-73739690D01*
X52038134Y-126333414D02*
X69056540Y-143351820D01*
X52038134Y-120650000D02*
X52038134Y-126333414D01*
%TO.N,F6*%
X100806250Y-51514200D02*
X106124810Y-56832760D01*
X100806250Y-32464120D02*
X100806250Y-51514200D01*
X96599770Y-28257640D02*
X100806250Y-32464120D01*
X101362290Y-94932920D02*
X103664170Y-94932920D01*
X103664170Y-94932920D02*
X111125000Y-102393750D01*
X111125000Y-113745330D02*
X110887330Y-113983000D01*
X111125000Y-102393750D02*
X111125000Y-113745330D01*
X110887330Y-113983000D02*
X113189250Y-113983000D01*
X113189250Y-113983000D02*
X124618750Y-125412500D01*
X143748170Y-125412500D02*
X151368750Y-133033080D01*
X124618750Y-125412500D02*
X143748170Y-125412500D01*
X101362290Y-94932920D02*
X101362290Y-78818960D01*
X98426170Y-75882840D02*
X96599770Y-75882840D01*
X101362290Y-78818960D02*
X98426170Y-75882840D01*
X107632760Y-56832760D02*
X106124810Y-56832760D01*
X111125000Y-60325000D02*
X107632760Y-56832760D01*
X96599770Y-75882840D02*
X106601360Y-65881250D01*
X106601360Y-65881250D02*
X108743750Y-65881250D01*
X111125000Y-63500000D02*
X111125000Y-60325000D01*
X108743750Y-65881250D02*
X111125000Y-63500000D01*
%TO.N,F7*%
X36184449Y-80020991D02*
X37385750Y-78819690D01*
X36184449Y-89556315D02*
X36184449Y-80020991D01*
X55530634Y-108902500D02*
X36184449Y-89556315D01*
X62706250Y-108902500D02*
X55530634Y-108902500D01*
%TO.N,B1*%
X46037310Y-90011250D02*
X52387500Y-90011250D01*
X37385750Y-81359690D02*
X46037310Y-90011250D01*
%TO.N,B4*%
X127556150Y-133033080D02*
X113983080Y-133033080D01*
X113983080Y-133033080D02*
X98425000Y-117475000D01*
X95329250Y-117475000D02*
X91837250Y-113983000D01*
X98425000Y-117475000D02*
X95329250Y-117475000D01*
X91837250Y-113983000D02*
X91837250Y-111681000D01*
X91837250Y-111681000D02*
X82550000Y-102393750D01*
X82550000Y-95170710D02*
X82312210Y-94932920D01*
X82550000Y-102393750D02*
X82550000Y-95170710D01*
X82312210Y-94932920D02*
X82312210Y-87074710D01*
X77549690Y-82312190D02*
X77549690Y-75882840D01*
X82312210Y-87074710D02*
X77549690Y-82312190D01*
X87788750Y-56832500D02*
X87074730Y-56832500D01*
X92075000Y-61118750D02*
X87788750Y-56832500D01*
X92075000Y-62706250D02*
X92075000Y-61118750D01*
X90487500Y-64293750D02*
X92075000Y-62706250D01*
X87312500Y-64293750D02*
X90487500Y-64293750D01*
X77549690Y-74056560D02*
X87312500Y-64293750D01*
X77549690Y-75882840D02*
X77549690Y-74056560D01*
X87074730Y-56832500D02*
X87074730Y-45799730D01*
X77549690Y-36274690D02*
X77549690Y-28257640D01*
X87074730Y-45799730D02*
X77549690Y-36274690D01*
%TO.N,E6*%
X244237890Y-43099610D02*
X250031250Y-37306250D01*
X244237890Y-56832760D02*
X244237890Y-43099610D01*
X205581250Y-29368750D02*
X210343750Y-29368750D01*
X180103900Y-25400000D02*
X203200000Y-25400000D01*
X44263600Y-24156240D02*
X178860141Y-24156241D01*
X20883486Y-83899690D02*
X9215046Y-72231250D01*
X37306250Y-57943750D02*
X43656250Y-50800000D01*
X205581250Y-27781250D02*
X205581250Y-29368750D01*
X9215046Y-72231250D02*
X5556250Y-72231250D01*
X5556250Y-72231250D02*
X3968750Y-70643750D01*
X3968750Y-70643750D02*
X3968750Y-61912500D01*
X43656250Y-50800000D02*
X45243750Y-48594572D01*
X203200000Y-25400000D02*
X205581250Y-27781250D01*
X3968750Y-61912500D02*
X8731250Y-57150000D01*
X210343750Y-29368750D02*
X214312500Y-25400000D01*
X8731250Y-57150000D02*
X37306250Y-57943750D01*
X45243750Y-48594572D02*
X42068750Y-26193750D01*
X42068750Y-26193750D02*
X44263600Y-24156240D01*
X22145750Y-83899690D02*
X20883486Y-83899690D01*
X178860141Y-24156241D02*
X180103900Y-25400000D01*
X250000000Y-34500000D02*
X250031250Y-34531250D01*
X250031250Y-34531250D02*
X250031250Y-34051000D01*
X250031250Y-37306250D02*
X250031250Y-34531250D01*
X244231800Y-28257500D02*
X249598050Y-33623750D01*
X241374300Y-25400000D02*
X241929650Y-25955350D01*
X214312500Y-25400000D02*
X241374300Y-25400000D01*
X241929650Y-25955350D02*
X244231800Y-28257500D01*
X241776250Y-25801950D02*
X241929650Y-25955350D01*
X249604000Y-33623750D02*
X250031250Y-34051000D01*
X249598050Y-33623750D02*
X249604000Y-33623750D01*
%TO.N,D7*%
X142081250Y-123825000D02*
X132239250Y-113983000D01*
X149225000Y-123825000D02*
X142081250Y-123825000D01*
X158433080Y-133033080D02*
X149225000Y-123825000D01*
X132239250Y-113983000D02*
X129937410Y-113983000D01*
X175181350Y-133033080D02*
X158433080Y-133033080D01*
X129937410Y-113983000D02*
X129937410Y-108506160D01*
X129937410Y-108506160D02*
X124618750Y-103187500D01*
X124618750Y-99139300D02*
X120412370Y-94932920D01*
X124618750Y-103187500D02*
X124618750Y-99139300D01*
X120412370Y-94932920D02*
X120412370Y-86281120D01*
X120412370Y-86281120D02*
X119856250Y-85725000D01*
X119856250Y-85725000D02*
X119856250Y-78581250D01*
X117157840Y-75882840D02*
X115649850Y-75882840D01*
X119856250Y-78581250D02*
X117157840Y-75882840D01*
X115649850Y-75882840D02*
X123031250Y-68501440D01*
X123031250Y-68501440D02*
X127554810Y-68501440D01*
X127554810Y-68501440D02*
X130175000Y-65881250D01*
X130175000Y-61832870D02*
X125174890Y-56832760D01*
X130175000Y-65881250D02*
X130175000Y-61832870D01*
X125174890Y-56832760D02*
X125174890Y-44212390D01*
X125174890Y-44212390D02*
X122237500Y-41275000D01*
X122237500Y-34845290D02*
X115649850Y-28257640D01*
X122237500Y-41275000D02*
X122237500Y-34845290D01*
%TO.N,C6*%
X154066990Y-119062500D02*
X148987490Y-113983000D01*
X173037500Y-119062500D02*
X154066990Y-119062500D01*
X174625000Y-120650000D02*
X173037500Y-119062500D01*
X174625000Y-121443750D02*
X174625000Y-120650000D01*
X190976850Y-137795600D02*
X174625000Y-121443750D01*
X206137730Y-137795600D02*
X190976850Y-137795600D01*
X148987490Y-113983000D02*
X148987490Y-109299990D01*
X148987490Y-109299990D02*
X144462500Y-104775000D01*
X144462500Y-99932970D02*
X139462450Y-94932920D01*
X144462500Y-104775000D02*
X144462500Y-99932970D01*
X139462450Y-94932920D02*
X139462450Y-80406300D01*
X134938990Y-75882840D02*
X134699930Y-75882840D01*
X139462450Y-80406300D02*
X134938990Y-75882840D01*
X134699930Y-75882840D02*
X144462500Y-66120270D01*
X144462500Y-57070290D02*
X144224970Y-56832760D01*
X144462500Y-66120270D02*
X144462500Y-57070290D01*
X144224970Y-56832760D02*
X144224970Y-28257640D01*
%TO.N,D4*%
X225187810Y-137795600D02*
X220742210Y-133350000D01*
X220742210Y-133350000D02*
X209550000Y-133350000D01*
X190183000Y-113983000D02*
X184706390Y-113983000D01*
X209550000Y-133350000D02*
X190183000Y-113983000D01*
X184706390Y-113983000D02*
X179864250Y-113983000D01*
X160814170Y-94932920D02*
X158512530Y-94932920D01*
X179864250Y-113983000D02*
X160814170Y-94932920D01*
X158512530Y-94932920D02*
X158512530Y-77550030D01*
X156845340Y-75882840D02*
X153750010Y-75882840D01*
X158512530Y-77550030D02*
X156845340Y-75882840D01*
X153750010Y-75882840D02*
X163512500Y-66120350D01*
X163512500Y-66120350D02*
X167242150Y-66120350D01*
X167242150Y-66120350D02*
X169068750Y-64293750D01*
X169068750Y-64293750D02*
X169068750Y-61118750D01*
X164782760Y-56832760D02*
X163275050Y-56832760D01*
X169068750Y-61118750D02*
X164782760Y-56832760D01*
X163275050Y-56832760D02*
X163275050Y-39924950D01*
X163275050Y-39924950D02*
X167481250Y-35718750D01*
X167481250Y-32463840D02*
X163275050Y-28257640D01*
X167481250Y-35718750D02*
X167481250Y-32463840D01*
%TO.N,D2*%
X227489270Y-118745520D02*
X225187810Y-118745520D01*
X244237890Y-135494140D02*
X227489270Y-118745520D01*
X180260940Y-97631250D02*
X177562610Y-94932920D01*
X188118750Y-97631250D02*
X180260940Y-97631250D01*
X209233020Y-118745520D02*
X188118750Y-97631250D01*
X225187810Y-118745520D02*
X209233020Y-118745520D01*
X177562610Y-94932920D02*
X177562610Y-79612390D01*
X173833060Y-75882840D02*
X172800090Y-75882840D01*
X177562610Y-79612390D02*
X173833060Y-75882840D01*
X191373660Y-56356250D02*
X191850170Y-56832760D01*
X185737500Y-56356250D02*
X191373660Y-56356250D01*
X172800090Y-69293660D02*
X185737500Y-56356250D01*
X172800090Y-75882840D02*
X172800090Y-69293660D01*
X191850170Y-56832760D02*
X191850170Y-44212670D01*
X191850170Y-44212670D02*
X187325000Y-39687500D01*
X187325000Y-39687500D02*
X187325000Y-32543750D01*
X183038890Y-28257640D02*
X182325130Y-28257640D01*
X187325000Y-32543750D02*
X183038890Y-28257640D01*
X178673740Y-24606250D02*
X182325130Y-28257640D01*
X44450000Y-24606250D02*
X178673740Y-24606250D01*
X46037500Y-49212500D02*
X42862500Y-27781250D01*
X42862500Y-27781250D02*
X44450000Y-24606250D01*
X34131250Y-62706250D02*
X46037500Y-49212500D01*
X22145750Y-63579690D02*
X34131250Y-62706250D01*
X244237890Y-137742890D02*
X244290000Y-137795000D01*
X244237890Y-137785910D02*
X244231800Y-137792000D01*
X244237890Y-135494140D02*
X244237890Y-137785910D01*
%TO.N,D3*%
X229393750Y-80088780D02*
X225187810Y-75882840D01*
X229393750Y-82550000D02*
X229393750Y-80088780D01*
X226218750Y-85725000D02*
X229393750Y-82550000D01*
X226218750Y-90487500D02*
X226218750Y-85725000D01*
X204074330Y-90487500D02*
X226218750Y-90487500D01*
X201533950Y-93027880D02*
X204074330Y-90487500D01*
X225187810Y-75882840D02*
X215106250Y-65801280D01*
X215106250Y-65801280D02*
X215106250Y-49212500D01*
X215106250Y-49212500D02*
X206375000Y-40481250D01*
X206375000Y-33257430D02*
X201375210Y-28257640D01*
X206375000Y-40481250D02*
X206375000Y-33257430D01*
%TO.N,Net-(D57-Pad1)*%
X237881800Y-140332000D02*
X237961200Y-140332000D01*
%TD*%
M02*
