%TF.GenerationSoftware,KiCad,Pcbnew,(5.1.9)-1*%
%TF.CreationDate,2021-04-06T00:29:57+03:00*%
%TF.ProjectId,SplitHside2,53706c69-7448-4736-9964-65322e6b6963,rev?*%
%TF.SameCoordinates,Original*%
%TF.FileFunction,Soldermask,Top*%
%TF.FilePolarity,Negative*%
%FSLAX46Y46*%
G04 Gerber Fmt 4.6, Leading zero omitted, Abs format (unit mm)*
G04 Created by KiCad (PCBNEW (5.1.9)-1) date 2021-04-06 00:29:57*
%MOMM*%
%LPD*%
G01*
G04 APERTURE LIST*
%ADD10C,3.987800*%
%ADD11C,1.750000*%
%ADD12C,1.651000*%
%ADD13C,3.048000*%
%ADD14R,1.651000X1.651000*%
%ADD15C,3.200000*%
%ADD16C,1.752600*%
%ADD17R,1.752600X1.752600*%
%ADD18O,1.600000X2.000000*%
%ADD19C,0.800000*%
G04 APERTURE END LIST*
D10*
%TO.C,SW57*%
X241691800Y-142872000D03*
D11*
X236611800Y-142872000D03*
X246771800Y-142872000D03*
%TD*%
D10*
%TO.C,SW46*%
X241691800Y-33337500D03*
D11*
X236611800Y-33337500D03*
X246771800Y-33337500D03*
%TD*%
D10*
%TO.C,SW35*%
X222647810Y-123825520D03*
D11*
X217567810Y-123825520D03*
X227727810Y-123825520D03*
%TD*%
D12*
%TO.C,R2*%
X18256250Y-70961250D03*
X18256250Y-60801250D03*
%TD*%
%TO.C,R1*%
X15875000Y-72548750D03*
X15875000Y-62388750D03*
%TD*%
D10*
%TO.C,SW14*%
X98822290Y-100012920D03*
D11*
X93742290Y-100012920D03*
X103902290Y-100012920D03*
%TD*%
D10*
%TO.C,SW13*%
X94059770Y-80962840D03*
D11*
X88979770Y-80962840D03*
X99139770Y-80962840D03*
%TD*%
D10*
%TO.C,SW54*%
X172641350Y-138113080D03*
D11*
X167561350Y-138113080D03*
X177721350Y-138113080D03*
%TD*%
%TO.C,SW55*%
X208677730Y-142875600D03*
X198517730Y-142875600D03*
D10*
X203597730Y-142875600D03*
%TD*%
%TO.C,SW56*%
X222647810Y-142875600D03*
D11*
X217567810Y-142875600D03*
X227727810Y-142875600D03*
%TD*%
D10*
%TO.C,SW51*%
X86915990Y-138113080D03*
D11*
X81835990Y-138113080D03*
X91995990Y-138113080D03*
D13*
X75009740Y-131128080D03*
X98822240Y-131128080D03*
D10*
X75009740Y-146368080D03*
X98822240Y-146368080D03*
%TD*%
D14*
%TO.C,D51*%
X69056540Y-143351820D03*
D12*
X69056540Y-135731820D03*
%TD*%
D15*
%TO.C,REF\u002A\u002A*%
X249237500Y-151606250D03*
%TD*%
%TO.C,REF\u002A\u002A*%
X149225000Y-156368750D03*
%TD*%
%TO.C,REF\u002A\u002A*%
X55562500Y-150018750D03*
%TD*%
%TO.C,REF\u002A\u002A*%
X10318750Y-99218750D03*
%TD*%
%TO.C,REF\u002A\u002A*%
X48418750Y-56356250D03*
%TD*%
%TO.C,REF\u002A\u002A*%
X65881250Y-47625000D03*
%TD*%
%TO.C,REF\u002A\u002A*%
X208756250Y-25400000D03*
%TD*%
%TO.C,REF\u002A\u002A*%
X127793750Y-37306250D03*
%TD*%
%TO.C,REF\u002A\u002A*%
X249237500Y-46037500D03*
%TD*%
%TO.C,REF\u002A\u002A*%
X221456250Y-102393750D03*
%TD*%
D16*
%TO.C,J1*%
X37385750Y-61039690D03*
X22145750Y-88979690D03*
X37385750Y-63579690D03*
X37385750Y-66119690D03*
X37385750Y-68659690D03*
X37385750Y-71199690D03*
X37385750Y-73739690D03*
X37385750Y-76279690D03*
X37385750Y-78819690D03*
X37385750Y-81359690D03*
X37385750Y-83899690D03*
X37385750Y-86439690D03*
X37385750Y-88979690D03*
X22145750Y-86439690D03*
X22145750Y-83899690D03*
X22145750Y-81359690D03*
X22145750Y-78819690D03*
X22145750Y-76279690D03*
X22145750Y-73739690D03*
X22145750Y-71199690D03*
X22145750Y-68659690D03*
X22145750Y-66119690D03*
X22145750Y-63579690D03*
D17*
X22145750Y-61039690D03*
%TD*%
D10*
%TO.C,SW8*%
X75009690Y-80962840D03*
D11*
X69929690Y-80962840D03*
X80089690Y-80962840D03*
%TD*%
D10*
%TO.C,SW10*%
X89297250Y-119063000D03*
D11*
X84217250Y-119063000D03*
X94377250Y-119063000D03*
%TD*%
D10*
%TO.C,SW3*%
X55959610Y-80962840D03*
D11*
X50879610Y-80962840D03*
X61039610Y-80962840D03*
%TD*%
D10*
%TO.C,SW4*%
X60722130Y-100012920D03*
D11*
X55642130Y-100012920D03*
X65802130Y-100012920D03*
%TD*%
D10*
%TO.C,SW53*%
X148828750Y-138113080D03*
D11*
X143748750Y-138113080D03*
X153908750Y-138113080D03*
%TD*%
D10*
%TO.C,SW52*%
X125016150Y-138113080D03*
D11*
X119936150Y-138113080D03*
X130096150Y-138113080D03*
%TD*%
D10*
%TO.C,SW37*%
X188198950Y-78549880D03*
X188198950Y-102425880D03*
D13*
X203438950Y-78549880D03*
X203438950Y-102425880D03*
D11*
X196453950Y-95567880D03*
X196453950Y-85407880D03*
D10*
X196453950Y-90487880D03*
%TD*%
%TO.C,SW32*%
X189310170Y-61912760D03*
D11*
X184230170Y-61912760D03*
X194390170Y-61912760D03*
D13*
X177403920Y-54927760D03*
X201216420Y-54927760D03*
D10*
X177403920Y-70167760D03*
X201216420Y-70167760D03*
%TD*%
%TO.C,SW30*%
X182166390Y-119063000D03*
D11*
X177086390Y-119063000D03*
X187246390Y-119063000D03*
D13*
X170260140Y-112078000D03*
X194072640Y-112078000D03*
D10*
X170260140Y-127318000D03*
X194072640Y-127318000D03*
%TD*%
%TO.C,SW42*%
X222647810Y-61912760D03*
D11*
X217567810Y-61912760D03*
X227727810Y-61912760D03*
%TD*%
D10*
%TO.C,SW41*%
X222647810Y-33337640D03*
D11*
X217567810Y-33337640D03*
X227727810Y-33337640D03*
%TD*%
D10*
%TO.C,SW38*%
X222647810Y-80962840D03*
D11*
X217567810Y-80962840D03*
X227727810Y-80962840D03*
%TD*%
D10*
%TO.C,SW33*%
X170260090Y-80962840D03*
D11*
X165180090Y-80962840D03*
X175340090Y-80962840D03*
%TD*%
D10*
%TO.C,SW27*%
X160735050Y-61912760D03*
D11*
X155655050Y-61912760D03*
X165815050Y-61912760D03*
%TD*%
D10*
%TO.C,SW12*%
X103584810Y-61912760D03*
D11*
X98504810Y-61912760D03*
X108664810Y-61912760D03*
%TD*%
D10*
%TO.C,SW6*%
X75009690Y-33337640D03*
D11*
X69929690Y-33337640D03*
X80089690Y-33337640D03*
%TD*%
D14*
%TO.C,D6*%
X64293750Y-34766250D03*
D12*
X64293750Y-27146250D03*
%TD*%
D10*
%TO.C,SW47*%
X241697890Y-61912760D03*
D11*
X236617890Y-61912760D03*
X246777890Y-61912760D03*
%TD*%
D10*
%TO.C,SW43*%
X241697890Y-80962840D03*
D11*
X236617890Y-80962840D03*
X246777890Y-80962840D03*
%TD*%
D10*
%TO.C,SW36*%
X198835210Y-33337640D03*
D11*
X193755210Y-33337640D03*
X203915210Y-33337640D03*
%TD*%
D10*
%TO.C,SW34*%
X175022610Y-100012920D03*
D11*
X169942610Y-100012920D03*
X180102610Y-100012920D03*
%TD*%
D10*
%TO.C,SW31*%
X179785130Y-33337640D03*
D11*
X174705130Y-33337640D03*
X184865130Y-33337640D03*
%TD*%
D10*
%TO.C,SW29*%
X155972530Y-100012920D03*
D11*
X150892530Y-100012920D03*
X161052530Y-100012920D03*
%TD*%
D10*
%TO.C,SW28*%
X151210010Y-80962840D03*
D11*
X146130010Y-80962840D03*
X156290010Y-80962840D03*
%TD*%
D10*
%TO.C,SW26*%
X160735050Y-33337640D03*
D11*
X155655050Y-33337640D03*
X165815050Y-33337640D03*
%TD*%
D10*
%TO.C,SW25*%
X146447490Y-119063000D03*
D11*
X141367490Y-119063000D03*
X151527490Y-119063000D03*
%TD*%
D10*
%TO.C,SW24*%
X136922450Y-100012920D03*
D11*
X131842450Y-100012920D03*
X142002450Y-100012920D03*
%TD*%
D10*
%TO.C,SW23*%
X132159930Y-80962840D03*
D11*
X127079930Y-80962840D03*
X137239930Y-80962840D03*
%TD*%
D10*
%TO.C,SW22*%
X141684970Y-61912760D03*
D11*
X136604970Y-61912760D03*
X146764970Y-61912760D03*
%TD*%
D10*
%TO.C,SW21*%
X141684970Y-33337640D03*
D11*
X136604970Y-33337640D03*
X146764970Y-33337640D03*
%TD*%
D10*
%TO.C,SW20*%
X127397410Y-119063000D03*
D11*
X122317410Y-119063000D03*
X132477410Y-119063000D03*
%TD*%
D10*
%TO.C,SW19*%
X117872370Y-100012920D03*
D11*
X112792370Y-100012920D03*
X122952370Y-100012920D03*
%TD*%
D10*
%TO.C,SW18*%
X113109850Y-80962840D03*
D11*
X108029850Y-80962840D03*
X118189850Y-80962840D03*
%TD*%
D10*
%TO.C,SW17*%
X122634890Y-61912760D03*
D11*
X117554890Y-61912760D03*
X127714890Y-61912760D03*
%TD*%
D10*
%TO.C,SW16*%
X113109850Y-33337640D03*
D11*
X108029850Y-33337640D03*
X118189850Y-33337640D03*
%TD*%
D10*
%TO.C,SW15*%
X108347330Y-119063000D03*
D11*
X103267330Y-119063000D03*
X113427330Y-119063000D03*
%TD*%
D10*
%TO.C,SW11*%
X94059770Y-33337640D03*
D11*
X88979770Y-33337640D03*
X99139770Y-33337640D03*
%TD*%
D10*
%TO.C,SW9*%
X79772210Y-100012920D03*
D11*
X74692210Y-100012920D03*
X84852210Y-100012920D03*
%TD*%
D10*
%TO.C,SW7*%
X84534730Y-61912500D03*
D11*
X79454730Y-61912500D03*
X89614730Y-61912500D03*
%TD*%
D10*
%TO.C,SW5*%
X70247170Y-119063000D03*
D11*
X65167170Y-119063000D03*
X75327170Y-119063000D03*
%TD*%
D10*
%TO.C,SW2*%
X65484650Y-61912760D03*
D11*
X60404650Y-61912760D03*
X70564650Y-61912760D03*
%TD*%
D10*
%TO.C,SW1*%
X55959610Y-33337640D03*
D11*
X50879610Y-33337640D03*
X61039610Y-33337640D03*
%TD*%
D14*
%TO.C,D47*%
X232568750Y-63341250D03*
D12*
X232568750Y-55721250D03*
%TD*%
D14*
%TO.C,D46*%
X231775000Y-37941250D03*
D12*
X231775000Y-30321250D03*
%TD*%
D14*
%TO.C,D43*%
X231775000Y-82391250D03*
D12*
X231775000Y-74771250D03*
%TD*%
D14*
%TO.C,D42*%
X212725000Y-63500000D03*
D12*
X212725000Y-55880000D03*
%TD*%
D14*
%TO.C,D41*%
X211931250Y-38100000D03*
D12*
X211931250Y-30480000D03*
%TD*%
D14*
%TO.C,D38*%
X211137500Y-82550000D03*
D12*
X211137500Y-74930000D03*
%TD*%
D14*
%TO.C,D37*%
X207169620Y-94535990D03*
D12*
X207169620Y-86915990D03*
%TD*%
D14*
%TO.C,D36*%
X189706250Y-35718750D03*
D12*
X189706250Y-28098750D03*
%TD*%
D14*
%TO.C,D35*%
X212725000Y-113665000D03*
D12*
X212725000Y-121285000D03*
%TD*%
D14*
%TO.C,D34*%
X166687500Y-89693750D03*
D12*
X166687500Y-97313750D03*
%TD*%
D14*
%TO.C,D33*%
X161131250Y-83185000D03*
D12*
X161131250Y-75565000D03*
%TD*%
D14*
%TO.C,D32*%
X173037500Y-64770240D03*
D12*
X173037500Y-57150240D03*
%TD*%
D14*
%TO.C,D31*%
X169862500Y-35401250D03*
D12*
X169862500Y-27781250D03*
%TD*%
D14*
%TO.C,D30*%
X164306250Y-109061250D03*
D12*
X164306250Y-116681250D03*
%TD*%
D14*
%TO.C,D29*%
X148431250Y-89852500D03*
D12*
X148431250Y-97472500D03*
%TD*%
D14*
%TO.C,D28*%
X142081250Y-83343750D03*
D12*
X142081250Y-75723750D03*
%TD*%
D14*
%TO.C,D27*%
X151606250Y-64293750D03*
D12*
X151606250Y-56673750D03*
%TD*%
D14*
%TO.C,D26*%
X150018750Y-35560000D03*
D12*
X150018750Y-27940000D03*
%TD*%
D14*
%TO.C,D25*%
X138906250Y-108743750D03*
D12*
X138906250Y-116363750D03*
%TD*%
D14*
%TO.C,D24*%
X127793750Y-89693750D03*
D12*
X127793750Y-97313750D03*
%TD*%
D14*
%TO.C,D23*%
X122237500Y-83343750D03*
D12*
X122237500Y-75723750D03*
%TD*%
D14*
%TO.C,D22*%
X132556250Y-64293750D03*
D12*
X132556250Y-56673750D03*
%TD*%
D14*
%TO.C,D21*%
X133350000Y-35401250D03*
D12*
X133350000Y-27781250D03*
%TD*%
D14*
%TO.C,D20*%
X119856250Y-108743750D03*
D12*
X119856250Y-116363750D03*
%TD*%
D14*
%TO.C,D19*%
X109537500Y-89852500D03*
D12*
X109537500Y-97472500D03*
%TD*%
D14*
%TO.C,D18*%
X103981250Y-83185000D03*
D12*
X103981250Y-75565000D03*
%TD*%
D14*
%TO.C,D17*%
X113506250Y-64293750D03*
D12*
X113506250Y-56673750D03*
%TD*%
D14*
%TO.C,D16*%
X103187500Y-35401250D03*
D12*
X103187500Y-27781250D03*
%TD*%
D14*
%TO.C,D15*%
X100806250Y-108743750D03*
D12*
X100806250Y-116363750D03*
%TD*%
D14*
%TO.C,D14*%
X90487500Y-89852500D03*
D12*
X90487500Y-97472500D03*
%TD*%
D14*
%TO.C,D13*%
X82550000Y-83343750D03*
D12*
X82550000Y-75723750D03*
%TD*%
D14*
%TO.C,D12*%
X94456250Y-64293750D03*
D12*
X94456250Y-56673750D03*
%TD*%
D14*
%TO.C,D11*%
X84137500Y-34925000D03*
D12*
X84137500Y-27305000D03*
%TD*%
D14*
%TO.C,D10*%
X81756250Y-108743750D03*
D12*
X81756250Y-116363750D03*
%TD*%
D14*
%TO.C,D9*%
X72231250Y-90011250D03*
D12*
X72231250Y-97631250D03*
%TD*%
D14*
%TO.C,D8*%
X65881250Y-83343750D03*
D12*
X65881250Y-75723750D03*
%TD*%
D14*
%TO.C,D7*%
X75009690Y-64770240D03*
D12*
X75009690Y-57150240D03*
%TD*%
D14*
%TO.C,D5*%
X62706250Y-108902500D03*
D12*
X62706250Y-116522500D03*
%TD*%
D14*
%TO.C,D4*%
X52387500Y-90011250D03*
D12*
X52387500Y-97631250D03*
%TD*%
D14*
%TO.C,D3*%
X46831250Y-83343750D03*
D12*
X46831250Y-75723750D03*
%TD*%
D14*
%TO.C,D2*%
X56356250Y-64770000D03*
D12*
X56356250Y-57150000D03*
%TD*%
D14*
%TO.C,D1*%
X46037500Y-34925000D03*
D12*
X46037500Y-27305000D03*
%TD*%
D18*
%TO.C,J2*%
X11825040Y-63350240D03*
D19*
X9525040Y-58750240D03*
X9525040Y-65750240D03*
D18*
X11825040Y-60350240D03*
X11825040Y-67350240D03*
X7225040Y-68450240D03*
%TD*%
D12*
%TO.C,D52*%
X114300480Y-135731820D03*
D14*
X114300480Y-143351820D03*
%TD*%
%TO.C,D53*%
X136949899Y-143731650D03*
D12*
X136949899Y-136111650D03*
%TD*%
%TO.C,D54*%
X161925680Y-135731820D03*
D14*
X161925680Y-143351820D03*
%TD*%
D12*
%TO.C,D55*%
X194072690Y-140256230D03*
D14*
X194072690Y-147876230D03*
%TD*%
%TO.C,D56*%
X213122770Y-147638120D03*
D12*
X213122770Y-140018120D03*
%TD*%
%TO.C,D57*%
X232172850Y-140256230D03*
D14*
X232172850Y-147876230D03*
%TD*%
M02*
