%TF.GenerationSoftware,KiCad,Pcbnew,(5.1.9)-1*%
%TF.CreationDate,2021-04-06T00:29:57+03:00*%
%TF.ProjectId,SplitHside2,53706c69-7448-4736-9964-65322e6b6963,rev?*%
%TF.SameCoordinates,Original*%
%TF.FileFunction,Legend,Top*%
%TF.FilePolarity,Positive*%
%FSLAX46Y46*%
G04 Gerber Fmt 4.6, Leading zero omitted, Abs format (unit mm)*
G04 Created by KiCad (PCBNEW (5.1.9)-1) date 2021-04-06 00:29:57*
%MOMM*%
%LPD*%
G01*
G04 APERTURE LIST*
%ADD10C,0.750000*%
%ADD11C,0.400000*%
%ADD12C,0.150000*%
%ADD13C,0.203200*%
%ADD14C,0.381000*%
%ADD15C,0.200000*%
G04 APERTURE END LIST*
D10*
X33057425Y-116375367D02*
X34771710Y-116375367D01*
X33914567Y-119375367D02*
X33914567Y-116375367D01*
X35771710Y-116375367D02*
X35771710Y-118803939D01*
X35914567Y-119089653D01*
X36057425Y-119232510D01*
X36343139Y-119375367D01*
X36914567Y-119375367D01*
X37200282Y-119232510D01*
X37343139Y-119089653D01*
X37485996Y-118803939D01*
X37485996Y-116375367D01*
X38914567Y-116375367D02*
X38914567Y-118803939D01*
X39057425Y-119089653D01*
X39200282Y-119232510D01*
X39485996Y-119375367D01*
X40057425Y-119375367D01*
X40343139Y-119232510D01*
X40485996Y-119089653D01*
X40628853Y-118803939D01*
X40628853Y-116375367D01*
X27980214Y-135127317D02*
X29694500Y-135127317D01*
X28837357Y-138127317D02*
X28837357Y-135127317D01*
X30694500Y-135127317D02*
X30694500Y-137555889D01*
X30837357Y-137841603D01*
X30980214Y-137984460D01*
X31265928Y-138127317D01*
X31837357Y-138127317D01*
X32123071Y-137984460D01*
X32265928Y-137841603D01*
X32408785Y-137555889D01*
X32408785Y-135127317D01*
X33837357Y-135127317D02*
X33837357Y-137555889D01*
X33980214Y-137841603D01*
X34123071Y-137984460D01*
X34408785Y-138127317D01*
X34980214Y-138127317D01*
X35265928Y-137984460D01*
X35408785Y-137841603D01*
X35551642Y-137555889D01*
X35551642Y-135127317D01*
X39123071Y-137270175D02*
X40551642Y-137270175D01*
X38837357Y-138127317D02*
X39837357Y-135127317D01*
X40837357Y-138127317D01*
X41837357Y-138127317D02*
X41837357Y-135127317D01*
X42980214Y-135127317D01*
X43265928Y-135270175D01*
X43408785Y-135413032D01*
X43551642Y-135698746D01*
X43551642Y-136127317D01*
X43408785Y-136413032D01*
X43265928Y-136555889D01*
X42980214Y-136698746D01*
X41837357Y-136698746D01*
X44837357Y-136555889D02*
X45837357Y-136555889D01*
X46265928Y-138127317D02*
X44837357Y-138127317D01*
X44837357Y-135127317D01*
X46265928Y-135127317D01*
X47265928Y-135127317D02*
X49265928Y-138127317D01*
X49265928Y-135127317D02*
X47265928Y-138127317D01*
D11*
X14174925Y-105165811D02*
X15317782Y-105165811D01*
X14746353Y-107165811D02*
X14746353Y-105165811D01*
X16841591Y-105832478D02*
X16841591Y-107165811D01*
X15984448Y-105832478D02*
X15984448Y-106880097D01*
X16079686Y-107070573D01*
X16270163Y-107165811D01*
X16555877Y-107165811D01*
X16746353Y-107070573D01*
X16841591Y-106975335D01*
X18651115Y-105832478D02*
X18651115Y-107165811D01*
X17793972Y-105832478D02*
X17793972Y-106880097D01*
X17889210Y-107070573D01*
X18079686Y-107165811D01*
X18365401Y-107165811D01*
X18555877Y-107070573D01*
X18651115Y-106975335D01*
X19317782Y-105165811D02*
X19984448Y-107165811D01*
X20651115Y-105165811D01*
X22079686Y-107070573D02*
X21889210Y-107165811D01*
X21508258Y-107165811D01*
X21317782Y-107070573D01*
X21222544Y-106880097D01*
X21222544Y-106118192D01*
X21317782Y-105927716D01*
X21508258Y-105832478D01*
X21889210Y-105832478D01*
X22079686Y-105927716D01*
X22174925Y-106118192D01*
X22174925Y-106308669D01*
X21222544Y-106499145D01*
X23032067Y-107165811D02*
X23032067Y-105832478D01*
X23032067Y-105165811D02*
X22936829Y-105261050D01*
X23032067Y-105356288D01*
X23127305Y-105261050D01*
X23032067Y-105165811D01*
X23032067Y-105356288D01*
X23889210Y-107070573D02*
X24174925Y-107165811D01*
X24651115Y-107165811D01*
X24841591Y-107070573D01*
X24936829Y-106975335D01*
X25032067Y-106784859D01*
X25032067Y-106594383D01*
X24936829Y-106403907D01*
X24841591Y-106308669D01*
X24651115Y-106213430D01*
X24270163Y-106118192D01*
X24079686Y-106022954D01*
X23984448Y-105927716D01*
X23889210Y-105737240D01*
X23889210Y-105546764D01*
X23984448Y-105356288D01*
X24079686Y-105261050D01*
X24270163Y-105165811D01*
X24746353Y-105165811D01*
X25032067Y-105261050D01*
X25889210Y-105832478D02*
X25889210Y-107832478D01*
X25889210Y-105927716D02*
X26079686Y-105832478D01*
X26460639Y-105832478D01*
X26651115Y-105927716D01*
X26746353Y-106022954D01*
X26841591Y-106213430D01*
X26841591Y-106784859D01*
X26746353Y-106975335D01*
X26651115Y-107070573D01*
X26460639Y-107165811D01*
X26079686Y-107165811D01*
X25889210Y-107070573D01*
X27984448Y-107165811D02*
X27793972Y-107070573D01*
X27698734Y-106880097D01*
X27698734Y-105165811D01*
X28746353Y-107165811D02*
X28746353Y-105832478D01*
X28746353Y-105165811D02*
X28651115Y-105261050D01*
X28746353Y-105356288D01*
X28841591Y-105261050D01*
X28746353Y-105165811D01*
X28746353Y-105356288D01*
X29413020Y-105832478D02*
X30174924Y-105832478D01*
X29698734Y-105165811D02*
X29698734Y-106880097D01*
X29793972Y-107070573D01*
X29984448Y-107165811D01*
X30174924Y-107165811D01*
D12*
%TO.C,R2*%
X19056250Y-63881250D02*
X19056250Y-67881250D01*
X19056250Y-67881250D02*
X19256250Y-68081250D01*
X19256250Y-68081250D02*
X19256250Y-68481250D01*
X19256250Y-68481250D02*
X19056250Y-68681250D01*
X19056250Y-68681250D02*
X18256250Y-68881250D01*
X18256250Y-68881250D02*
X17456250Y-68681250D01*
X17456250Y-68681250D02*
X17256250Y-68481250D01*
X17256250Y-68481250D02*
X17256250Y-68081250D01*
X17256250Y-68081250D02*
X17456250Y-67881250D01*
X17456250Y-67881250D02*
X17456250Y-63881250D01*
X17456250Y-63881250D02*
X17256250Y-63681250D01*
X17256250Y-63681250D02*
X17256250Y-63281250D01*
X17256250Y-63281250D02*
X17456250Y-63081250D01*
X17456250Y-63081250D02*
X18256250Y-62881250D01*
X18256250Y-62881250D02*
X19056250Y-63081250D01*
X19056250Y-63081250D02*
X19256250Y-63281250D01*
X19256250Y-63281250D02*
X19256250Y-63681250D01*
X19256250Y-63681250D02*
X19056250Y-63881250D01*
X18256250Y-61681250D02*
X18256250Y-62881250D01*
X18256250Y-68881250D02*
X18256250Y-70081250D01*
%TO.C,R1*%
X16675000Y-65468750D02*
X16675000Y-69468750D01*
X16675000Y-69468750D02*
X16875000Y-69668750D01*
X16875000Y-69668750D02*
X16875000Y-70068750D01*
X16875000Y-70068750D02*
X16675000Y-70268750D01*
X16675000Y-70268750D02*
X15875000Y-70468750D01*
X15875000Y-70468750D02*
X15075000Y-70268750D01*
X15075000Y-70268750D02*
X14875000Y-70068750D01*
X14875000Y-70068750D02*
X14875000Y-69668750D01*
X14875000Y-69668750D02*
X15075000Y-69468750D01*
X15075000Y-69468750D02*
X15075000Y-65468750D01*
X15075000Y-65468750D02*
X14875000Y-65268750D01*
X14875000Y-65268750D02*
X14875000Y-64868750D01*
X14875000Y-64868750D02*
X15075000Y-64668750D01*
X15075000Y-64668750D02*
X15875000Y-64468750D01*
X15875000Y-64468750D02*
X16675000Y-64668750D01*
X16675000Y-64668750D02*
X16875000Y-64868750D01*
X16875000Y-64868750D02*
X16875000Y-65268750D01*
X16875000Y-65268750D02*
X16675000Y-65468750D01*
X15875000Y-63268750D02*
X15875000Y-64468750D01*
X15875000Y-70468750D02*
X15875000Y-71668750D01*
%TO.C,D51*%
X67956540Y-140441820D02*
X70156540Y-140441820D01*
X70156540Y-140641820D02*
X67956540Y-140641820D01*
X70056540Y-140841820D02*
X70156540Y-140841820D01*
X70156540Y-140841820D02*
X70056540Y-140841820D01*
X67956540Y-140841820D02*
X70056540Y-140841820D01*
D13*
X70199540Y-138017820D02*
X70199540Y-141065820D01*
X70199540Y-141065820D02*
X67913540Y-141065820D01*
X67913540Y-141065820D02*
X67913540Y-138017820D01*
X67913540Y-138017820D02*
X70199540Y-138017820D01*
D14*
%TO.C,J1*%
X20875750Y-59769690D02*
X20875750Y-90249690D01*
X20875750Y-90249690D02*
X38655750Y-90249690D01*
X38655750Y-90249690D02*
X38655750Y-59769690D01*
X23415750Y-59769690D02*
X23415750Y-62309690D01*
X23415750Y-62309690D02*
X20875750Y-62309690D01*
D12*
G36*
X34697318Y-65649050D02*
G01*
X34697318Y-65949050D01*
X34597318Y-65949050D01*
X34597318Y-65649050D01*
X34697318Y-65649050D01*
G37*
X34697318Y-65649050D02*
X34697318Y-65949050D01*
X34597318Y-65949050D01*
X34597318Y-65649050D01*
X34697318Y-65649050D01*
G36*
X34497318Y-66049050D02*
G01*
X34497318Y-66149050D01*
X34397318Y-66149050D01*
X34397318Y-66049050D01*
X34497318Y-66049050D01*
G37*
X34497318Y-66049050D02*
X34497318Y-66149050D01*
X34397318Y-66149050D01*
X34397318Y-66049050D01*
X34497318Y-66049050D01*
G36*
X34697318Y-65649050D02*
G01*
X34697318Y-65749050D01*
X34197318Y-65749050D01*
X34197318Y-65649050D01*
X34697318Y-65649050D01*
G37*
X34697318Y-65649050D02*
X34697318Y-65749050D01*
X34197318Y-65749050D01*
X34197318Y-65649050D01*
X34697318Y-65649050D01*
G36*
X34297318Y-65649050D02*
G01*
X34297318Y-66449050D01*
X34197318Y-66449050D01*
X34197318Y-65649050D01*
X34297318Y-65649050D01*
G37*
X34297318Y-65649050D02*
X34297318Y-66449050D01*
X34197318Y-66449050D01*
X34197318Y-65649050D01*
X34297318Y-65649050D01*
G36*
X34697318Y-66249050D02*
G01*
X34697318Y-66449050D01*
X34597318Y-66449050D01*
X34597318Y-66249050D01*
X34697318Y-66249050D01*
G37*
X34697318Y-66249050D02*
X34697318Y-66449050D01*
X34597318Y-66449050D01*
X34597318Y-66249050D01*
X34697318Y-66249050D01*
D14*
X38655750Y-59769690D02*
X38655750Y-57229690D01*
X38655750Y-57229690D02*
X20875750Y-57229690D01*
X20875750Y-57229690D02*
X20875750Y-59769690D01*
X23415750Y-59769690D02*
X20875750Y-59769690D01*
D12*
%TO.C,D6*%
X63193750Y-31856250D02*
X65393750Y-31856250D01*
X65393750Y-32056250D02*
X63193750Y-32056250D01*
X65293750Y-32256250D02*
X65393750Y-32256250D01*
X65393750Y-32256250D02*
X65293750Y-32256250D01*
X63193750Y-32256250D02*
X65293750Y-32256250D01*
D13*
X65436750Y-29432250D02*
X65436750Y-32480250D01*
X65436750Y-32480250D02*
X63150750Y-32480250D01*
X63150750Y-32480250D02*
X63150750Y-29432250D01*
X63150750Y-29432250D02*
X65436750Y-29432250D01*
D12*
%TO.C,D47*%
X231468750Y-60431250D02*
X233668750Y-60431250D01*
X233668750Y-60631250D02*
X231468750Y-60631250D01*
X233568750Y-60831250D02*
X233668750Y-60831250D01*
X233668750Y-60831250D02*
X233568750Y-60831250D01*
X231468750Y-60831250D02*
X233568750Y-60831250D01*
D13*
X233711750Y-58007250D02*
X233711750Y-61055250D01*
X233711750Y-61055250D02*
X231425750Y-61055250D01*
X231425750Y-61055250D02*
X231425750Y-58007250D01*
X231425750Y-58007250D02*
X233711750Y-58007250D01*
D12*
%TO.C,D46*%
X230675000Y-35031250D02*
X232875000Y-35031250D01*
X232875000Y-35231250D02*
X230675000Y-35231250D01*
X232775000Y-35431250D02*
X232875000Y-35431250D01*
X232875000Y-35431250D02*
X232775000Y-35431250D01*
X230675000Y-35431250D02*
X232775000Y-35431250D01*
D13*
X232918000Y-32607250D02*
X232918000Y-35655250D01*
X232918000Y-35655250D02*
X230632000Y-35655250D01*
X230632000Y-35655250D02*
X230632000Y-32607250D01*
X230632000Y-32607250D02*
X232918000Y-32607250D01*
D12*
%TO.C,D43*%
X230675000Y-79481250D02*
X232875000Y-79481250D01*
X232875000Y-79681250D02*
X230675000Y-79681250D01*
X232775000Y-79881250D02*
X232875000Y-79881250D01*
X232875000Y-79881250D02*
X232775000Y-79881250D01*
X230675000Y-79881250D02*
X232775000Y-79881250D01*
D13*
X232918000Y-77057250D02*
X232918000Y-80105250D01*
X232918000Y-80105250D02*
X230632000Y-80105250D01*
X230632000Y-80105250D02*
X230632000Y-77057250D01*
X230632000Y-77057250D02*
X232918000Y-77057250D01*
D12*
%TO.C,D42*%
X211625000Y-60590000D02*
X213825000Y-60590000D01*
X213825000Y-60790000D02*
X211625000Y-60790000D01*
X213725000Y-60990000D02*
X213825000Y-60990000D01*
X213825000Y-60990000D02*
X213725000Y-60990000D01*
X211625000Y-60990000D02*
X213725000Y-60990000D01*
D13*
X213868000Y-58166000D02*
X213868000Y-61214000D01*
X213868000Y-61214000D02*
X211582000Y-61214000D01*
X211582000Y-61214000D02*
X211582000Y-58166000D01*
X211582000Y-58166000D02*
X213868000Y-58166000D01*
D12*
%TO.C,D41*%
X210831250Y-35190000D02*
X213031250Y-35190000D01*
X213031250Y-35390000D02*
X210831250Y-35390000D01*
X212931250Y-35590000D02*
X213031250Y-35590000D01*
X213031250Y-35590000D02*
X212931250Y-35590000D01*
X210831250Y-35590000D02*
X212931250Y-35590000D01*
D13*
X213074250Y-32766000D02*
X213074250Y-35814000D01*
X213074250Y-35814000D02*
X210788250Y-35814000D01*
X210788250Y-35814000D02*
X210788250Y-32766000D01*
X210788250Y-32766000D02*
X213074250Y-32766000D01*
D12*
%TO.C,D38*%
X210037500Y-79640000D02*
X212237500Y-79640000D01*
X212237500Y-79840000D02*
X210037500Y-79840000D01*
X212137500Y-80040000D02*
X212237500Y-80040000D01*
X212237500Y-80040000D02*
X212137500Y-80040000D01*
X210037500Y-80040000D02*
X212137500Y-80040000D01*
D13*
X212280500Y-77216000D02*
X212280500Y-80264000D01*
X212280500Y-80264000D02*
X209994500Y-80264000D01*
X209994500Y-80264000D02*
X209994500Y-77216000D01*
X209994500Y-77216000D02*
X212280500Y-77216000D01*
D12*
%TO.C,D37*%
X206069620Y-91625990D02*
X208269620Y-91625990D01*
X208269620Y-91825990D02*
X206069620Y-91825990D01*
X208169620Y-92025990D02*
X208269620Y-92025990D01*
X208269620Y-92025990D02*
X208169620Y-92025990D01*
X206069620Y-92025990D02*
X208169620Y-92025990D01*
D13*
X208312620Y-89201990D02*
X208312620Y-92249990D01*
X208312620Y-92249990D02*
X206026620Y-92249990D01*
X206026620Y-92249990D02*
X206026620Y-89201990D01*
X206026620Y-89201990D02*
X208312620Y-89201990D01*
D12*
%TO.C,D36*%
X188606250Y-32808750D02*
X190806250Y-32808750D01*
X190806250Y-33008750D02*
X188606250Y-33008750D01*
X190706250Y-33208750D02*
X190806250Y-33208750D01*
X190806250Y-33208750D02*
X190706250Y-33208750D01*
X188606250Y-33208750D02*
X190706250Y-33208750D01*
D13*
X190849250Y-30384750D02*
X190849250Y-33432750D01*
X190849250Y-33432750D02*
X188563250Y-33432750D01*
X188563250Y-33432750D02*
X188563250Y-30384750D01*
X188563250Y-30384750D02*
X190849250Y-30384750D01*
D12*
%TO.C,D35*%
X213825000Y-116575000D02*
X211625000Y-116575000D01*
X211625000Y-116375000D02*
X213825000Y-116375000D01*
X211725000Y-116175000D02*
X211625000Y-116175000D01*
X211625000Y-116175000D02*
X211725000Y-116175000D01*
X213825000Y-116175000D02*
X211725000Y-116175000D01*
D13*
X211582000Y-118999000D02*
X211582000Y-115951000D01*
X211582000Y-115951000D02*
X213868000Y-115951000D01*
X213868000Y-115951000D02*
X213868000Y-118999000D01*
X213868000Y-118999000D02*
X211582000Y-118999000D01*
D12*
%TO.C,D34*%
X167787500Y-92603750D02*
X165587500Y-92603750D01*
X165587500Y-92403750D02*
X167787500Y-92403750D01*
X165687500Y-92203750D02*
X165587500Y-92203750D01*
X165587500Y-92203750D02*
X165687500Y-92203750D01*
X167787500Y-92203750D02*
X165687500Y-92203750D01*
D13*
X165544500Y-95027750D02*
X165544500Y-91979750D01*
X165544500Y-91979750D02*
X167830500Y-91979750D01*
X167830500Y-91979750D02*
X167830500Y-95027750D01*
X167830500Y-95027750D02*
X165544500Y-95027750D01*
D12*
%TO.C,D33*%
X160031250Y-80275000D02*
X162231250Y-80275000D01*
X162231250Y-80475000D02*
X160031250Y-80475000D01*
X162131250Y-80675000D02*
X162231250Y-80675000D01*
X162231250Y-80675000D02*
X162131250Y-80675000D01*
X160031250Y-80675000D02*
X162131250Y-80675000D01*
D13*
X162274250Y-77851000D02*
X162274250Y-80899000D01*
X162274250Y-80899000D02*
X159988250Y-80899000D01*
X159988250Y-80899000D02*
X159988250Y-77851000D01*
X159988250Y-77851000D02*
X162274250Y-77851000D01*
D12*
%TO.C,D32*%
X171937500Y-61860240D02*
X174137500Y-61860240D01*
X174137500Y-62060240D02*
X171937500Y-62060240D01*
X174037500Y-62260240D02*
X174137500Y-62260240D01*
X174137500Y-62260240D02*
X174037500Y-62260240D01*
X171937500Y-62260240D02*
X174037500Y-62260240D01*
D13*
X174180500Y-59436240D02*
X174180500Y-62484240D01*
X174180500Y-62484240D02*
X171894500Y-62484240D01*
X171894500Y-62484240D02*
X171894500Y-59436240D01*
X171894500Y-59436240D02*
X174180500Y-59436240D01*
D12*
%TO.C,D31*%
X168762500Y-32491250D02*
X170962500Y-32491250D01*
X170962500Y-32691250D02*
X168762500Y-32691250D01*
X170862500Y-32891250D02*
X170962500Y-32891250D01*
X170962500Y-32891250D02*
X170862500Y-32891250D01*
X168762500Y-32891250D02*
X170862500Y-32891250D01*
D13*
X171005500Y-30067250D02*
X171005500Y-33115250D01*
X171005500Y-33115250D02*
X168719500Y-33115250D01*
X168719500Y-33115250D02*
X168719500Y-30067250D01*
X168719500Y-30067250D02*
X171005500Y-30067250D01*
D12*
%TO.C,D30*%
X165406250Y-111971250D02*
X163206250Y-111971250D01*
X163206250Y-111771250D02*
X165406250Y-111771250D01*
X163306250Y-111571250D02*
X163206250Y-111571250D01*
X163206250Y-111571250D02*
X163306250Y-111571250D01*
X165406250Y-111571250D02*
X163306250Y-111571250D01*
D13*
X163163250Y-114395250D02*
X163163250Y-111347250D01*
X163163250Y-111347250D02*
X165449250Y-111347250D01*
X165449250Y-111347250D02*
X165449250Y-114395250D01*
X165449250Y-114395250D02*
X163163250Y-114395250D01*
D12*
%TO.C,D29*%
X149531250Y-92762500D02*
X147331250Y-92762500D01*
X147331250Y-92562500D02*
X149531250Y-92562500D01*
X147431250Y-92362500D02*
X147331250Y-92362500D01*
X147331250Y-92362500D02*
X147431250Y-92362500D01*
X149531250Y-92362500D02*
X147431250Y-92362500D01*
D13*
X147288250Y-95186500D02*
X147288250Y-92138500D01*
X147288250Y-92138500D02*
X149574250Y-92138500D01*
X149574250Y-92138500D02*
X149574250Y-95186500D01*
X149574250Y-95186500D02*
X147288250Y-95186500D01*
D12*
%TO.C,D28*%
X140981250Y-80433750D02*
X143181250Y-80433750D01*
X143181250Y-80633750D02*
X140981250Y-80633750D01*
X143081250Y-80833750D02*
X143181250Y-80833750D01*
X143181250Y-80833750D02*
X143081250Y-80833750D01*
X140981250Y-80833750D02*
X143081250Y-80833750D01*
D13*
X143224250Y-78009750D02*
X143224250Y-81057750D01*
X143224250Y-81057750D02*
X140938250Y-81057750D01*
X140938250Y-81057750D02*
X140938250Y-78009750D01*
X140938250Y-78009750D02*
X143224250Y-78009750D01*
D12*
%TO.C,D27*%
X150506250Y-61383750D02*
X152706250Y-61383750D01*
X152706250Y-61583750D02*
X150506250Y-61583750D01*
X152606250Y-61783750D02*
X152706250Y-61783750D01*
X152706250Y-61783750D02*
X152606250Y-61783750D01*
X150506250Y-61783750D02*
X152606250Y-61783750D01*
D13*
X152749250Y-58959750D02*
X152749250Y-62007750D01*
X152749250Y-62007750D02*
X150463250Y-62007750D01*
X150463250Y-62007750D02*
X150463250Y-58959750D01*
X150463250Y-58959750D02*
X152749250Y-58959750D01*
D12*
%TO.C,D26*%
X148918750Y-32650000D02*
X151118750Y-32650000D01*
X151118750Y-32850000D02*
X148918750Y-32850000D01*
X151018750Y-33050000D02*
X151118750Y-33050000D01*
X151118750Y-33050000D02*
X151018750Y-33050000D01*
X148918750Y-33050000D02*
X151018750Y-33050000D01*
D13*
X151161750Y-30226000D02*
X151161750Y-33274000D01*
X151161750Y-33274000D02*
X148875750Y-33274000D01*
X148875750Y-33274000D02*
X148875750Y-30226000D01*
X148875750Y-30226000D02*
X151161750Y-30226000D01*
D12*
%TO.C,D25*%
X140006250Y-111653750D02*
X137806250Y-111653750D01*
X137806250Y-111453750D02*
X140006250Y-111453750D01*
X137906250Y-111253750D02*
X137806250Y-111253750D01*
X137806250Y-111253750D02*
X137906250Y-111253750D01*
X140006250Y-111253750D02*
X137906250Y-111253750D01*
D13*
X137763250Y-114077750D02*
X137763250Y-111029750D01*
X137763250Y-111029750D02*
X140049250Y-111029750D01*
X140049250Y-111029750D02*
X140049250Y-114077750D01*
X140049250Y-114077750D02*
X137763250Y-114077750D01*
D12*
%TO.C,D24*%
X128893750Y-92603750D02*
X126693750Y-92603750D01*
X126693750Y-92403750D02*
X128893750Y-92403750D01*
X126793750Y-92203750D02*
X126693750Y-92203750D01*
X126693750Y-92203750D02*
X126793750Y-92203750D01*
X128893750Y-92203750D02*
X126793750Y-92203750D01*
D13*
X126650750Y-95027750D02*
X126650750Y-91979750D01*
X126650750Y-91979750D02*
X128936750Y-91979750D01*
X128936750Y-91979750D02*
X128936750Y-95027750D01*
X128936750Y-95027750D02*
X126650750Y-95027750D01*
D12*
%TO.C,D23*%
X121137500Y-80433750D02*
X123337500Y-80433750D01*
X123337500Y-80633750D02*
X121137500Y-80633750D01*
X123237500Y-80833750D02*
X123337500Y-80833750D01*
X123337500Y-80833750D02*
X123237500Y-80833750D01*
X121137500Y-80833750D02*
X123237500Y-80833750D01*
D13*
X123380500Y-78009750D02*
X123380500Y-81057750D01*
X123380500Y-81057750D02*
X121094500Y-81057750D01*
X121094500Y-81057750D02*
X121094500Y-78009750D01*
X121094500Y-78009750D02*
X123380500Y-78009750D01*
D12*
%TO.C,D22*%
X131456250Y-61383750D02*
X133656250Y-61383750D01*
X133656250Y-61583750D02*
X131456250Y-61583750D01*
X133556250Y-61783750D02*
X133656250Y-61783750D01*
X133656250Y-61783750D02*
X133556250Y-61783750D01*
X131456250Y-61783750D02*
X133556250Y-61783750D01*
D13*
X133699250Y-58959750D02*
X133699250Y-62007750D01*
X133699250Y-62007750D02*
X131413250Y-62007750D01*
X131413250Y-62007750D02*
X131413250Y-58959750D01*
X131413250Y-58959750D02*
X133699250Y-58959750D01*
D12*
%TO.C,D21*%
X132250000Y-32491250D02*
X134450000Y-32491250D01*
X134450000Y-32691250D02*
X132250000Y-32691250D01*
X134350000Y-32891250D02*
X134450000Y-32891250D01*
X134450000Y-32891250D02*
X134350000Y-32891250D01*
X132250000Y-32891250D02*
X134350000Y-32891250D01*
D13*
X134493000Y-30067250D02*
X134493000Y-33115250D01*
X134493000Y-33115250D02*
X132207000Y-33115250D01*
X132207000Y-33115250D02*
X132207000Y-30067250D01*
X132207000Y-30067250D02*
X134493000Y-30067250D01*
D12*
%TO.C,D20*%
X120956250Y-111653750D02*
X118756250Y-111653750D01*
X118756250Y-111453750D02*
X120956250Y-111453750D01*
X118856250Y-111253750D02*
X118756250Y-111253750D01*
X118756250Y-111253750D02*
X118856250Y-111253750D01*
X120956250Y-111253750D02*
X118856250Y-111253750D01*
D13*
X118713250Y-114077750D02*
X118713250Y-111029750D01*
X118713250Y-111029750D02*
X120999250Y-111029750D01*
X120999250Y-111029750D02*
X120999250Y-114077750D01*
X120999250Y-114077750D02*
X118713250Y-114077750D01*
D12*
%TO.C,D19*%
X110637500Y-92762500D02*
X108437500Y-92762500D01*
X108437500Y-92562500D02*
X110637500Y-92562500D01*
X108537500Y-92362500D02*
X108437500Y-92362500D01*
X108437500Y-92362500D02*
X108537500Y-92362500D01*
X110637500Y-92362500D02*
X108537500Y-92362500D01*
D13*
X108394500Y-95186500D02*
X108394500Y-92138500D01*
X108394500Y-92138500D02*
X110680500Y-92138500D01*
X110680500Y-92138500D02*
X110680500Y-95186500D01*
X110680500Y-95186500D02*
X108394500Y-95186500D01*
D12*
%TO.C,D18*%
X102881250Y-80275000D02*
X105081250Y-80275000D01*
X105081250Y-80475000D02*
X102881250Y-80475000D01*
X104981250Y-80675000D02*
X105081250Y-80675000D01*
X105081250Y-80675000D02*
X104981250Y-80675000D01*
X102881250Y-80675000D02*
X104981250Y-80675000D01*
D13*
X105124250Y-77851000D02*
X105124250Y-80899000D01*
X105124250Y-80899000D02*
X102838250Y-80899000D01*
X102838250Y-80899000D02*
X102838250Y-77851000D01*
X102838250Y-77851000D02*
X105124250Y-77851000D01*
D12*
%TO.C,D17*%
X112406250Y-61383750D02*
X114606250Y-61383750D01*
X114606250Y-61583750D02*
X112406250Y-61583750D01*
X114506250Y-61783750D02*
X114606250Y-61783750D01*
X114606250Y-61783750D02*
X114506250Y-61783750D01*
X112406250Y-61783750D02*
X114506250Y-61783750D01*
D13*
X114649250Y-58959750D02*
X114649250Y-62007750D01*
X114649250Y-62007750D02*
X112363250Y-62007750D01*
X112363250Y-62007750D02*
X112363250Y-58959750D01*
X112363250Y-58959750D02*
X114649250Y-58959750D01*
D12*
%TO.C,D16*%
X102087500Y-32491250D02*
X104287500Y-32491250D01*
X104287500Y-32691250D02*
X102087500Y-32691250D01*
X104187500Y-32891250D02*
X104287500Y-32891250D01*
X104287500Y-32891250D02*
X104187500Y-32891250D01*
X102087500Y-32891250D02*
X104187500Y-32891250D01*
D13*
X104330500Y-30067250D02*
X104330500Y-33115250D01*
X104330500Y-33115250D02*
X102044500Y-33115250D01*
X102044500Y-33115250D02*
X102044500Y-30067250D01*
X102044500Y-30067250D02*
X104330500Y-30067250D01*
D12*
%TO.C,D15*%
X101906250Y-111653750D02*
X99706250Y-111653750D01*
X99706250Y-111453750D02*
X101906250Y-111453750D01*
X99806250Y-111253750D02*
X99706250Y-111253750D01*
X99706250Y-111253750D02*
X99806250Y-111253750D01*
X101906250Y-111253750D02*
X99806250Y-111253750D01*
D13*
X99663250Y-114077750D02*
X99663250Y-111029750D01*
X99663250Y-111029750D02*
X101949250Y-111029750D01*
X101949250Y-111029750D02*
X101949250Y-114077750D01*
X101949250Y-114077750D02*
X99663250Y-114077750D01*
D12*
%TO.C,D14*%
X91587500Y-92762500D02*
X89387500Y-92762500D01*
X89387500Y-92562500D02*
X91587500Y-92562500D01*
X89487500Y-92362500D02*
X89387500Y-92362500D01*
X89387500Y-92362500D02*
X89487500Y-92362500D01*
X91587500Y-92362500D02*
X89487500Y-92362500D01*
D13*
X89344500Y-95186500D02*
X89344500Y-92138500D01*
X89344500Y-92138500D02*
X91630500Y-92138500D01*
X91630500Y-92138500D02*
X91630500Y-95186500D01*
X91630500Y-95186500D02*
X89344500Y-95186500D01*
D12*
%TO.C,D13*%
X81450000Y-80433750D02*
X83650000Y-80433750D01*
X83650000Y-80633750D02*
X81450000Y-80633750D01*
X83550000Y-80833750D02*
X83650000Y-80833750D01*
X83650000Y-80833750D02*
X83550000Y-80833750D01*
X81450000Y-80833750D02*
X83550000Y-80833750D01*
D13*
X83693000Y-78009750D02*
X83693000Y-81057750D01*
X83693000Y-81057750D02*
X81407000Y-81057750D01*
X81407000Y-81057750D02*
X81407000Y-78009750D01*
X81407000Y-78009750D02*
X83693000Y-78009750D01*
D12*
%TO.C,D12*%
X93356250Y-61383750D02*
X95556250Y-61383750D01*
X95556250Y-61583750D02*
X93356250Y-61583750D01*
X95456250Y-61783750D02*
X95556250Y-61783750D01*
X95556250Y-61783750D02*
X95456250Y-61783750D01*
X93356250Y-61783750D02*
X95456250Y-61783750D01*
D13*
X95599250Y-58959750D02*
X95599250Y-62007750D01*
X95599250Y-62007750D02*
X93313250Y-62007750D01*
X93313250Y-62007750D02*
X93313250Y-58959750D01*
X93313250Y-58959750D02*
X95599250Y-58959750D01*
D12*
%TO.C,D11*%
X83037500Y-32015000D02*
X85237500Y-32015000D01*
X85237500Y-32215000D02*
X83037500Y-32215000D01*
X85137500Y-32415000D02*
X85237500Y-32415000D01*
X85237500Y-32415000D02*
X85137500Y-32415000D01*
X83037500Y-32415000D02*
X85137500Y-32415000D01*
D13*
X85280500Y-29591000D02*
X85280500Y-32639000D01*
X85280500Y-32639000D02*
X82994500Y-32639000D01*
X82994500Y-32639000D02*
X82994500Y-29591000D01*
X82994500Y-29591000D02*
X85280500Y-29591000D01*
D12*
%TO.C,D10*%
X82856250Y-111653750D02*
X80656250Y-111653750D01*
X80656250Y-111453750D02*
X82856250Y-111453750D01*
X80756250Y-111253750D02*
X80656250Y-111253750D01*
X80656250Y-111253750D02*
X80756250Y-111253750D01*
X82856250Y-111253750D02*
X80756250Y-111253750D01*
D13*
X80613250Y-114077750D02*
X80613250Y-111029750D01*
X80613250Y-111029750D02*
X82899250Y-111029750D01*
X82899250Y-111029750D02*
X82899250Y-114077750D01*
X82899250Y-114077750D02*
X80613250Y-114077750D01*
D12*
%TO.C,D9*%
X73331250Y-92921250D02*
X71131250Y-92921250D01*
X71131250Y-92721250D02*
X73331250Y-92721250D01*
X71231250Y-92521250D02*
X71131250Y-92521250D01*
X71131250Y-92521250D02*
X71231250Y-92521250D01*
X73331250Y-92521250D02*
X71231250Y-92521250D01*
D13*
X71088250Y-95345250D02*
X71088250Y-92297250D01*
X71088250Y-92297250D02*
X73374250Y-92297250D01*
X73374250Y-92297250D02*
X73374250Y-95345250D01*
X73374250Y-95345250D02*
X71088250Y-95345250D01*
D12*
%TO.C,D8*%
X64781250Y-80433750D02*
X66981250Y-80433750D01*
X66981250Y-80633750D02*
X64781250Y-80633750D01*
X66881250Y-80833750D02*
X66981250Y-80833750D01*
X66981250Y-80833750D02*
X66881250Y-80833750D01*
X64781250Y-80833750D02*
X66881250Y-80833750D01*
D13*
X67024250Y-78009750D02*
X67024250Y-81057750D01*
X67024250Y-81057750D02*
X64738250Y-81057750D01*
X64738250Y-81057750D02*
X64738250Y-78009750D01*
X64738250Y-78009750D02*
X67024250Y-78009750D01*
D12*
%TO.C,D7*%
X73909690Y-61860240D02*
X76109690Y-61860240D01*
X76109690Y-62060240D02*
X73909690Y-62060240D01*
X76009690Y-62260240D02*
X76109690Y-62260240D01*
X76109690Y-62260240D02*
X76009690Y-62260240D01*
X73909690Y-62260240D02*
X76009690Y-62260240D01*
D13*
X76152690Y-59436240D02*
X76152690Y-62484240D01*
X76152690Y-62484240D02*
X73866690Y-62484240D01*
X73866690Y-62484240D02*
X73866690Y-59436240D01*
X73866690Y-59436240D02*
X76152690Y-59436240D01*
D12*
%TO.C,D5*%
X63806250Y-111812500D02*
X61606250Y-111812500D01*
X61606250Y-111612500D02*
X63806250Y-111612500D01*
X61706250Y-111412500D02*
X61606250Y-111412500D01*
X61606250Y-111412500D02*
X61706250Y-111412500D01*
X63806250Y-111412500D02*
X61706250Y-111412500D01*
D13*
X61563250Y-114236500D02*
X61563250Y-111188500D01*
X61563250Y-111188500D02*
X63849250Y-111188500D01*
X63849250Y-111188500D02*
X63849250Y-114236500D01*
X63849250Y-114236500D02*
X61563250Y-114236500D01*
D12*
%TO.C,D4*%
X53487500Y-92921250D02*
X51287500Y-92921250D01*
X51287500Y-92721250D02*
X53487500Y-92721250D01*
X51387500Y-92521250D02*
X51287500Y-92521250D01*
X51287500Y-92521250D02*
X51387500Y-92521250D01*
X53487500Y-92521250D02*
X51387500Y-92521250D01*
D13*
X51244500Y-95345250D02*
X51244500Y-92297250D01*
X51244500Y-92297250D02*
X53530500Y-92297250D01*
X53530500Y-92297250D02*
X53530500Y-95345250D01*
X53530500Y-95345250D02*
X51244500Y-95345250D01*
D12*
%TO.C,D3*%
X45731250Y-80433750D02*
X47931250Y-80433750D01*
X47931250Y-80633750D02*
X45731250Y-80633750D01*
X47831250Y-80833750D02*
X47931250Y-80833750D01*
X47931250Y-80833750D02*
X47831250Y-80833750D01*
X45731250Y-80833750D02*
X47831250Y-80833750D01*
D13*
X47974250Y-78009750D02*
X47974250Y-81057750D01*
X47974250Y-81057750D02*
X45688250Y-81057750D01*
X45688250Y-81057750D02*
X45688250Y-78009750D01*
X45688250Y-78009750D02*
X47974250Y-78009750D01*
D12*
%TO.C,D2*%
X55256250Y-61860000D02*
X57456250Y-61860000D01*
X57456250Y-62060000D02*
X55256250Y-62060000D01*
X57356250Y-62260000D02*
X57456250Y-62260000D01*
X57456250Y-62260000D02*
X57356250Y-62260000D01*
X55256250Y-62260000D02*
X57356250Y-62260000D01*
D13*
X57499250Y-59436000D02*
X57499250Y-62484000D01*
X57499250Y-62484000D02*
X55213250Y-62484000D01*
X55213250Y-62484000D02*
X55213250Y-59436000D01*
X55213250Y-59436000D02*
X57499250Y-59436000D01*
D12*
%TO.C,D1*%
X44937500Y-32015000D02*
X47137500Y-32015000D01*
X47137500Y-32215000D02*
X44937500Y-32215000D01*
X47037500Y-32415000D02*
X47137500Y-32415000D01*
X47137500Y-32415000D02*
X47037500Y-32415000D01*
X44937500Y-32415000D02*
X47037500Y-32415000D01*
D13*
X47180500Y-29591000D02*
X47180500Y-32639000D01*
X47180500Y-32639000D02*
X44894500Y-32639000D01*
X44894500Y-32639000D02*
X44894500Y-29591000D01*
X44894500Y-29591000D02*
X47180500Y-29591000D01*
D12*
%TO.C,J2*%
X12575040Y-57150240D02*
X6475040Y-57150240D01*
X12575040Y-69250240D02*
X6475040Y-69250240D01*
X12575040Y-57150240D02*
X12575040Y-69250240D01*
X6475040Y-57150240D02*
X6475040Y-69250240D01*
X12325040Y-57150240D02*
X12325040Y-55150240D01*
X6725040Y-57150240D02*
X6725040Y-55150240D01*
X12325040Y-55150240D02*
X6725040Y-55150240D01*
D13*
%TO.C,D52*%
X113157480Y-138017820D02*
X115443480Y-138017820D01*
X113157480Y-141065820D02*
X113157480Y-138017820D01*
X115443480Y-141065820D02*
X113157480Y-141065820D01*
X115443480Y-138017820D02*
X115443480Y-141065820D01*
D12*
X113200480Y-140841820D02*
X115300480Y-140841820D01*
X115400480Y-140841820D02*
X115300480Y-140841820D01*
X115300480Y-140841820D02*
X115400480Y-140841820D01*
X115400480Y-140641820D02*
X113200480Y-140641820D01*
X113200480Y-140441820D02*
X115400480Y-140441820D01*
%TO.C,D53*%
X135849899Y-140821650D02*
X138049899Y-140821650D01*
X138049899Y-141021650D02*
X135849899Y-141021650D01*
X137949899Y-141221650D02*
X138049899Y-141221650D01*
X138049899Y-141221650D02*
X137949899Y-141221650D01*
X135849899Y-141221650D02*
X137949899Y-141221650D01*
D13*
X138092899Y-138397650D02*
X138092899Y-141445650D01*
X138092899Y-141445650D02*
X135806899Y-141445650D01*
X135806899Y-141445650D02*
X135806899Y-138397650D01*
X135806899Y-138397650D02*
X138092899Y-138397650D01*
%TO.C,D54*%
X160782680Y-138017820D02*
X163068680Y-138017820D01*
X160782680Y-141065820D02*
X160782680Y-138017820D01*
X163068680Y-141065820D02*
X160782680Y-141065820D01*
X163068680Y-138017820D02*
X163068680Y-141065820D01*
D12*
X160825680Y-140841820D02*
X162925680Y-140841820D01*
X163025680Y-140841820D02*
X162925680Y-140841820D01*
X162925680Y-140841820D02*
X163025680Y-140841820D01*
X163025680Y-140641820D02*
X160825680Y-140641820D01*
X160825680Y-140441820D02*
X163025680Y-140441820D01*
D13*
%TO.C,D55*%
X192929690Y-142542230D02*
X195215690Y-142542230D01*
X192929690Y-145590230D02*
X192929690Y-142542230D01*
X195215690Y-145590230D02*
X192929690Y-145590230D01*
X195215690Y-142542230D02*
X195215690Y-145590230D01*
D12*
X192972690Y-145366230D02*
X195072690Y-145366230D01*
X195172690Y-145366230D02*
X195072690Y-145366230D01*
X195072690Y-145366230D02*
X195172690Y-145366230D01*
X195172690Y-145166230D02*
X192972690Y-145166230D01*
X192972690Y-144966230D02*
X195172690Y-144966230D01*
%TO.C,D56*%
X212022770Y-144728120D02*
X214222770Y-144728120D01*
X214222770Y-144928120D02*
X212022770Y-144928120D01*
X214122770Y-145128120D02*
X214222770Y-145128120D01*
X214222770Y-145128120D02*
X214122770Y-145128120D01*
X212022770Y-145128120D02*
X214122770Y-145128120D01*
D13*
X214265770Y-142304120D02*
X214265770Y-145352120D01*
X214265770Y-145352120D02*
X211979770Y-145352120D01*
X211979770Y-145352120D02*
X211979770Y-142304120D01*
X211979770Y-142304120D02*
X214265770Y-142304120D01*
%TO.C,D57*%
X231029850Y-142542230D02*
X233315850Y-142542230D01*
X231029850Y-145590230D02*
X231029850Y-142542230D01*
X233315850Y-145590230D02*
X231029850Y-145590230D01*
X233315850Y-142542230D02*
X233315850Y-145590230D01*
D12*
X231072850Y-145366230D02*
X233172850Y-145366230D01*
X233272850Y-145366230D02*
X233172850Y-145366230D01*
X233172850Y-145366230D02*
X233272850Y-145366230D01*
X233272850Y-145166230D02*
X231072850Y-145166230D01*
X231072850Y-144966230D02*
X233272850Y-144966230D01*
%TO.C,R2*%
D15*
X18708630Y-68071726D02*
X18232440Y-68405059D01*
X18708630Y-68643154D02*
X17708630Y-68643154D01*
X17708630Y-68262202D01*
X17756250Y-68166964D01*
X17803869Y-68119345D01*
X17899107Y-68071726D01*
X18041964Y-68071726D01*
X18137202Y-68119345D01*
X18184821Y-68166964D01*
X18232440Y-68262202D01*
X18232440Y-68643154D01*
X18803869Y-67881250D02*
X18803869Y-67119345D01*
X18661011Y-66928869D02*
X18708630Y-66786011D01*
X18708630Y-66547916D01*
X18661011Y-66452678D01*
X18613392Y-66405059D01*
X18518154Y-66357440D01*
X18422916Y-66357440D01*
X18327678Y-66405059D01*
X18280059Y-66452678D01*
X18232440Y-66547916D01*
X18184821Y-66738392D01*
X18137202Y-66833630D01*
X18089583Y-66881250D01*
X17994345Y-66928869D01*
X17899107Y-66928869D01*
X17803869Y-66881250D01*
X17756250Y-66833630D01*
X17708630Y-66738392D01*
X17708630Y-66500297D01*
X17756250Y-66357440D01*
X18708630Y-65928869D02*
X18041964Y-65928869D01*
X18137202Y-65928869D02*
X18089583Y-65881250D01*
X18041964Y-65786011D01*
X18041964Y-65643154D01*
X18089583Y-65547916D01*
X18184821Y-65500297D01*
X18708630Y-65500297D01*
X18184821Y-65500297D02*
X18089583Y-65452678D01*
X18041964Y-65357440D01*
X18041964Y-65214583D01*
X18089583Y-65119345D01*
X18184821Y-65071726D01*
X18708630Y-65071726D01*
X18708630Y-64166964D02*
X18184821Y-64166964D01*
X18089583Y-64214583D01*
X18041964Y-64309821D01*
X18041964Y-64500297D01*
X18089583Y-64595535D01*
X18661011Y-64166964D02*
X18708630Y-64262202D01*
X18708630Y-64500297D01*
X18661011Y-64595535D01*
X18565773Y-64643154D01*
X18470535Y-64643154D01*
X18375297Y-64595535D01*
X18327678Y-64500297D01*
X18327678Y-64262202D01*
X18280059Y-64166964D01*
X18708630Y-63547916D02*
X18661011Y-63643154D01*
X18565773Y-63690773D01*
X17708630Y-63690773D01*
X18708630Y-63024107D02*
X18661011Y-63119345D01*
X18565773Y-63166964D01*
X17708630Y-63166964D01*
%TO.C,R1*%
X16327380Y-69659226D02*
X15851190Y-69992559D01*
X16327380Y-70230654D02*
X15327380Y-70230654D01*
X15327380Y-69849702D01*
X15375000Y-69754464D01*
X15422619Y-69706845D01*
X15517857Y-69659226D01*
X15660714Y-69659226D01*
X15755952Y-69706845D01*
X15803571Y-69754464D01*
X15851190Y-69849702D01*
X15851190Y-70230654D01*
X16422619Y-69468750D02*
X16422619Y-68706845D01*
X16279761Y-68516369D02*
X16327380Y-68373511D01*
X16327380Y-68135416D01*
X16279761Y-68040178D01*
X16232142Y-67992559D01*
X16136904Y-67944940D01*
X16041666Y-67944940D01*
X15946428Y-67992559D01*
X15898809Y-68040178D01*
X15851190Y-68135416D01*
X15803571Y-68325892D01*
X15755952Y-68421130D01*
X15708333Y-68468750D01*
X15613095Y-68516369D01*
X15517857Y-68516369D01*
X15422619Y-68468750D01*
X15375000Y-68421130D01*
X15327380Y-68325892D01*
X15327380Y-68087797D01*
X15375000Y-67944940D01*
X16327380Y-67516369D02*
X15660714Y-67516369D01*
X15755952Y-67516369D02*
X15708333Y-67468750D01*
X15660714Y-67373511D01*
X15660714Y-67230654D01*
X15708333Y-67135416D01*
X15803571Y-67087797D01*
X16327380Y-67087797D01*
X15803571Y-67087797D02*
X15708333Y-67040178D01*
X15660714Y-66944940D01*
X15660714Y-66802083D01*
X15708333Y-66706845D01*
X15803571Y-66659226D01*
X16327380Y-66659226D01*
X16327380Y-65754464D02*
X15803571Y-65754464D01*
X15708333Y-65802083D01*
X15660714Y-65897321D01*
X15660714Y-66087797D01*
X15708333Y-66183035D01*
X16279761Y-65754464D02*
X16327380Y-65849702D01*
X16327380Y-66087797D01*
X16279761Y-66183035D01*
X16184523Y-66230654D01*
X16089285Y-66230654D01*
X15994047Y-66183035D01*
X15946428Y-66087797D01*
X15946428Y-65849702D01*
X15898809Y-65754464D01*
X16327380Y-65135416D02*
X16279761Y-65230654D01*
X16184523Y-65278273D01*
X15327380Y-65278273D01*
X16327380Y-64611607D02*
X16279761Y-64706845D01*
X16184523Y-64754464D01*
X15327380Y-64754464D01*
%TO.C,D51*%
D13*
X69631063Y-141392391D02*
X68361063Y-141392391D01*
X68361063Y-141029534D01*
X68421540Y-140811820D01*
X68542492Y-140666677D01*
X68663444Y-140594105D01*
X68905349Y-140521534D01*
X69086778Y-140521534D01*
X69328682Y-140594105D01*
X69449635Y-140666677D01*
X69570587Y-140811820D01*
X69631063Y-141029534D01*
X69631063Y-141392391D01*
X68361063Y-139142677D02*
X68361063Y-139868391D01*
X68965825Y-139940962D01*
X68905349Y-139868391D01*
X68844873Y-139723248D01*
X68844873Y-139360391D01*
X68905349Y-139215248D01*
X68965825Y-139142677D01*
X69086778Y-139070105D01*
X69389159Y-139070105D01*
X69510111Y-139142677D01*
X69570587Y-139215248D01*
X69631063Y-139360391D01*
X69631063Y-139723248D01*
X69570587Y-139868391D01*
X69510111Y-139940962D01*
X69631063Y-137618677D02*
X69631063Y-138489534D01*
X69631063Y-138054105D02*
X68361063Y-138054105D01*
X68542492Y-138199248D01*
X68663444Y-138344391D01*
X68723920Y-138489534D01*
%TO.C,REF\u002A\u002A*%
D12*
X247904166Y-148208630D02*
X247570833Y-147732440D01*
X247332738Y-148208630D02*
X247332738Y-147208630D01*
X247713690Y-147208630D01*
X247808928Y-147256250D01*
X247856547Y-147303869D01*
X247904166Y-147399107D01*
X247904166Y-147541964D01*
X247856547Y-147637202D01*
X247808928Y-147684821D01*
X247713690Y-147732440D01*
X247332738Y-147732440D01*
X248332738Y-147684821D02*
X248666071Y-147684821D01*
X248808928Y-148208630D02*
X248332738Y-148208630D01*
X248332738Y-147208630D01*
X248808928Y-147208630D01*
X249570833Y-147684821D02*
X249237500Y-147684821D01*
X249237500Y-148208630D02*
X249237500Y-147208630D01*
X249713690Y-147208630D01*
X250237500Y-147208630D02*
X250237500Y-147446726D01*
X249999404Y-147351488D02*
X250237500Y-147446726D01*
X250475595Y-147351488D01*
X250094642Y-147637202D02*
X250237500Y-147446726D01*
X250380357Y-147637202D01*
X250999404Y-147208630D02*
X250999404Y-147446726D01*
X250761309Y-147351488D02*
X250999404Y-147446726D01*
X251237500Y-147351488D01*
X250856547Y-147637202D02*
X250999404Y-147446726D01*
X251142261Y-147637202D01*
X147891666Y-152971130D02*
X147558333Y-152494940D01*
X147320238Y-152971130D02*
X147320238Y-151971130D01*
X147701190Y-151971130D01*
X147796428Y-152018750D01*
X147844047Y-152066369D01*
X147891666Y-152161607D01*
X147891666Y-152304464D01*
X147844047Y-152399702D01*
X147796428Y-152447321D01*
X147701190Y-152494940D01*
X147320238Y-152494940D01*
X148320238Y-152447321D02*
X148653571Y-152447321D01*
X148796428Y-152971130D02*
X148320238Y-152971130D01*
X148320238Y-151971130D01*
X148796428Y-151971130D01*
X149558333Y-152447321D02*
X149225000Y-152447321D01*
X149225000Y-152971130D02*
X149225000Y-151971130D01*
X149701190Y-151971130D01*
X150225000Y-151971130D02*
X150225000Y-152209226D01*
X149986904Y-152113988D02*
X150225000Y-152209226D01*
X150463095Y-152113988D01*
X150082142Y-152399702D02*
X150225000Y-152209226D01*
X150367857Y-152399702D01*
X150986904Y-151971130D02*
X150986904Y-152209226D01*
X150748809Y-152113988D02*
X150986904Y-152209226D01*
X151225000Y-152113988D01*
X150844047Y-152399702D02*
X150986904Y-152209226D01*
X151129761Y-152399702D01*
X8985416Y-95821130D02*
X8652083Y-95344940D01*
X8413988Y-95821130D02*
X8413988Y-94821130D01*
X8794940Y-94821130D01*
X8890178Y-94868750D01*
X8937797Y-94916369D01*
X8985416Y-95011607D01*
X8985416Y-95154464D01*
X8937797Y-95249702D01*
X8890178Y-95297321D01*
X8794940Y-95344940D01*
X8413988Y-95344940D01*
X9413988Y-95297321D02*
X9747321Y-95297321D01*
X9890178Y-95821130D02*
X9413988Y-95821130D01*
X9413988Y-94821130D01*
X9890178Y-94821130D01*
X10652083Y-95297321D02*
X10318750Y-95297321D01*
X10318750Y-95821130D02*
X10318750Y-94821130D01*
X10794940Y-94821130D01*
X11318750Y-94821130D02*
X11318750Y-95059226D01*
X11080654Y-94963988D02*
X11318750Y-95059226D01*
X11556845Y-94963988D01*
X11175892Y-95249702D02*
X11318750Y-95059226D01*
X11461607Y-95249702D01*
X12080654Y-94821130D02*
X12080654Y-95059226D01*
X11842559Y-94963988D02*
X12080654Y-95059226D01*
X12318750Y-94963988D01*
X11937797Y-95249702D02*
X12080654Y-95059226D01*
X12223511Y-95249702D01*
X47085416Y-52958630D02*
X46752083Y-52482440D01*
X46513988Y-52958630D02*
X46513988Y-51958630D01*
X46894940Y-51958630D01*
X46990178Y-52006250D01*
X47037797Y-52053869D01*
X47085416Y-52149107D01*
X47085416Y-52291964D01*
X47037797Y-52387202D01*
X46990178Y-52434821D01*
X46894940Y-52482440D01*
X46513988Y-52482440D01*
X47513988Y-52434821D02*
X47847321Y-52434821D01*
X47990178Y-52958630D02*
X47513988Y-52958630D01*
X47513988Y-51958630D01*
X47990178Y-51958630D01*
X48752083Y-52434821D02*
X48418750Y-52434821D01*
X48418750Y-52958630D02*
X48418750Y-51958630D01*
X48894940Y-51958630D01*
X49418750Y-51958630D02*
X49418750Y-52196726D01*
X49180654Y-52101488D02*
X49418750Y-52196726D01*
X49656845Y-52101488D01*
X49275892Y-52387202D02*
X49418750Y-52196726D01*
X49561607Y-52387202D01*
X50180654Y-51958630D02*
X50180654Y-52196726D01*
X49942559Y-52101488D02*
X50180654Y-52196726D01*
X50418750Y-52101488D01*
X50037797Y-52387202D02*
X50180654Y-52196726D01*
X50323511Y-52387202D01*
X64547916Y-44227380D02*
X64214583Y-43751190D01*
X63976488Y-44227380D02*
X63976488Y-43227380D01*
X64357440Y-43227380D01*
X64452678Y-43275000D01*
X64500297Y-43322619D01*
X64547916Y-43417857D01*
X64547916Y-43560714D01*
X64500297Y-43655952D01*
X64452678Y-43703571D01*
X64357440Y-43751190D01*
X63976488Y-43751190D01*
X64976488Y-43703571D02*
X65309821Y-43703571D01*
X65452678Y-44227380D02*
X64976488Y-44227380D01*
X64976488Y-43227380D01*
X65452678Y-43227380D01*
X66214583Y-43703571D02*
X65881250Y-43703571D01*
X65881250Y-44227380D02*
X65881250Y-43227380D01*
X66357440Y-43227380D01*
X66881250Y-43227380D02*
X66881250Y-43465476D01*
X66643154Y-43370238D02*
X66881250Y-43465476D01*
X67119345Y-43370238D01*
X66738392Y-43655952D02*
X66881250Y-43465476D01*
X67024107Y-43655952D01*
X67643154Y-43227380D02*
X67643154Y-43465476D01*
X67405059Y-43370238D02*
X67643154Y-43465476D01*
X67881250Y-43370238D01*
X67500297Y-43655952D02*
X67643154Y-43465476D01*
X67786011Y-43655952D01*
X207422916Y-22002380D02*
X207089583Y-21526190D01*
X206851488Y-22002380D02*
X206851488Y-21002380D01*
X207232440Y-21002380D01*
X207327678Y-21050000D01*
X207375297Y-21097619D01*
X207422916Y-21192857D01*
X207422916Y-21335714D01*
X207375297Y-21430952D01*
X207327678Y-21478571D01*
X207232440Y-21526190D01*
X206851488Y-21526190D01*
X207851488Y-21478571D02*
X208184821Y-21478571D01*
X208327678Y-22002380D02*
X207851488Y-22002380D01*
X207851488Y-21002380D01*
X208327678Y-21002380D01*
X209089583Y-21478571D02*
X208756250Y-21478571D01*
X208756250Y-22002380D02*
X208756250Y-21002380D01*
X209232440Y-21002380D01*
X209756250Y-21002380D02*
X209756250Y-21240476D01*
X209518154Y-21145238D02*
X209756250Y-21240476D01*
X209994345Y-21145238D01*
X209613392Y-21430952D02*
X209756250Y-21240476D01*
X209899107Y-21430952D01*
X210518154Y-21002380D02*
X210518154Y-21240476D01*
X210280059Y-21145238D02*
X210518154Y-21240476D01*
X210756250Y-21145238D01*
X210375297Y-21430952D02*
X210518154Y-21240476D01*
X210661011Y-21430952D01*
X126460416Y-33908630D02*
X126127083Y-33432440D01*
X125888988Y-33908630D02*
X125888988Y-32908630D01*
X126269940Y-32908630D01*
X126365178Y-32956250D01*
X126412797Y-33003869D01*
X126460416Y-33099107D01*
X126460416Y-33241964D01*
X126412797Y-33337202D01*
X126365178Y-33384821D01*
X126269940Y-33432440D01*
X125888988Y-33432440D01*
X126888988Y-33384821D02*
X127222321Y-33384821D01*
X127365178Y-33908630D02*
X126888988Y-33908630D01*
X126888988Y-32908630D01*
X127365178Y-32908630D01*
X128127083Y-33384821D02*
X127793750Y-33384821D01*
X127793750Y-33908630D02*
X127793750Y-32908630D01*
X128269940Y-32908630D01*
X128793750Y-32908630D02*
X128793750Y-33146726D01*
X128555654Y-33051488D02*
X128793750Y-33146726D01*
X129031845Y-33051488D01*
X128650892Y-33337202D02*
X128793750Y-33146726D01*
X128936607Y-33337202D01*
X129555654Y-32908630D02*
X129555654Y-33146726D01*
X129317559Y-33051488D02*
X129555654Y-33146726D01*
X129793750Y-33051488D01*
X129412797Y-33337202D02*
X129555654Y-33146726D01*
X129698511Y-33337202D01*
X247904166Y-42639880D02*
X247570833Y-42163690D01*
X247332738Y-42639880D02*
X247332738Y-41639880D01*
X247713690Y-41639880D01*
X247808928Y-41687500D01*
X247856547Y-41735119D01*
X247904166Y-41830357D01*
X247904166Y-41973214D01*
X247856547Y-42068452D01*
X247808928Y-42116071D01*
X247713690Y-42163690D01*
X247332738Y-42163690D01*
X248332738Y-42116071D02*
X248666071Y-42116071D01*
X248808928Y-42639880D02*
X248332738Y-42639880D01*
X248332738Y-41639880D01*
X248808928Y-41639880D01*
X249570833Y-42116071D02*
X249237500Y-42116071D01*
X249237500Y-42639880D02*
X249237500Y-41639880D01*
X249713690Y-41639880D01*
X250237500Y-41639880D02*
X250237500Y-41877976D01*
X249999404Y-41782738D02*
X250237500Y-41877976D01*
X250475595Y-41782738D01*
X250094642Y-42068452D02*
X250237500Y-41877976D01*
X250380357Y-42068452D01*
X250999404Y-41639880D02*
X250999404Y-41877976D01*
X250761309Y-41782738D02*
X250999404Y-41877976D01*
X251237500Y-41782738D01*
X250856547Y-42068452D02*
X250999404Y-41877976D01*
X251142261Y-42068452D01*
X220122916Y-98996130D02*
X219789583Y-98519940D01*
X219551488Y-98996130D02*
X219551488Y-97996130D01*
X219932440Y-97996130D01*
X220027678Y-98043750D01*
X220075297Y-98091369D01*
X220122916Y-98186607D01*
X220122916Y-98329464D01*
X220075297Y-98424702D01*
X220027678Y-98472321D01*
X219932440Y-98519940D01*
X219551488Y-98519940D01*
X220551488Y-98472321D02*
X220884821Y-98472321D01*
X221027678Y-98996130D02*
X220551488Y-98996130D01*
X220551488Y-97996130D01*
X221027678Y-97996130D01*
X221789583Y-98472321D02*
X221456250Y-98472321D01*
X221456250Y-98996130D02*
X221456250Y-97996130D01*
X221932440Y-97996130D01*
X222456250Y-97996130D02*
X222456250Y-98234226D01*
X222218154Y-98138988D02*
X222456250Y-98234226D01*
X222694345Y-98138988D01*
X222313392Y-98424702D02*
X222456250Y-98234226D01*
X222599107Y-98424702D01*
X223218154Y-97996130D02*
X223218154Y-98234226D01*
X222980059Y-98138988D02*
X223218154Y-98234226D01*
X223456250Y-98138988D01*
X223075297Y-98424702D02*
X223218154Y-98234226D01*
X223361011Y-98424702D01*
%TO.C,J1*%
X24003401Y-60601594D02*
X24460544Y-60601594D01*
X24231973Y-61401594D02*
X24231973Y-60601594D01*
X24651020Y-60601594D02*
X25184354Y-61401594D01*
X25184354Y-60601594D02*
X24651020Y-61401594D01*
X25641497Y-60601594D02*
X25717687Y-60601594D01*
X25793878Y-60639690D01*
X25831973Y-60677785D01*
X25870068Y-60753975D01*
X25908163Y-60906356D01*
X25908163Y-61096832D01*
X25870068Y-61249213D01*
X25831973Y-61325404D01*
X25793878Y-61363499D01*
X25717687Y-61401594D01*
X25641497Y-61401594D01*
X25565306Y-61363499D01*
X25527211Y-61325404D01*
X25489116Y-61249213D01*
X25451020Y-61096832D01*
X25451020Y-60906356D01*
X25489116Y-60753975D01*
X25527211Y-60677785D01*
X25565306Y-60639690D01*
X25641497Y-60601594D01*
X26822449Y-60563499D02*
X26136735Y-61592070D01*
X27089116Y-61401594D02*
X27089116Y-60601594D01*
X27279592Y-60601594D01*
X27393878Y-60639690D01*
X27470068Y-60715880D01*
X27508163Y-60792070D01*
X27546258Y-60944451D01*
X27546258Y-61058737D01*
X27508163Y-61211118D01*
X27470068Y-61287309D01*
X27393878Y-61363499D01*
X27279592Y-61401594D01*
X27089116Y-61401594D01*
X27812925Y-60601594D02*
X28308163Y-60601594D01*
X28041497Y-60906356D01*
X28155782Y-60906356D01*
X28231973Y-60944451D01*
X28270068Y-60982547D01*
X28308163Y-61058737D01*
X28308163Y-61249213D01*
X28270068Y-61325404D01*
X28231973Y-61363499D01*
X28155782Y-61401594D01*
X27927211Y-61401594D01*
X27851020Y-61363499D01*
X27812925Y-61325404D01*
X23714273Y-63941594D02*
X23714273Y-63141594D01*
X23904750Y-63141594D01*
X24019035Y-63179690D01*
X24095226Y-63255880D01*
X24133321Y-63332070D01*
X24171416Y-63484451D01*
X24171416Y-63598737D01*
X24133321Y-63751118D01*
X24095226Y-63827309D01*
X24019035Y-63903499D01*
X23904750Y-63941594D01*
X23714273Y-63941594D01*
X24476178Y-63217785D02*
X24514273Y-63179690D01*
X24590464Y-63141594D01*
X24780940Y-63141594D01*
X24857130Y-63179690D01*
X24895226Y-63217785D01*
X24933321Y-63293975D01*
X24933321Y-63370166D01*
X24895226Y-63484451D01*
X24438083Y-63941594D01*
X24933321Y-63941594D01*
X23714273Y-74101594D02*
X23714273Y-73301594D01*
X23904750Y-73301594D01*
X24019035Y-73339690D01*
X24095226Y-73415880D01*
X24133321Y-73492070D01*
X24171416Y-73644451D01*
X24171416Y-73758737D01*
X24133321Y-73911118D01*
X24095226Y-73987309D01*
X24019035Y-74063499D01*
X23904750Y-74101594D01*
X23714273Y-74101594D01*
X24666654Y-73301594D02*
X24742845Y-73301594D01*
X24819035Y-73339690D01*
X24857130Y-73377785D01*
X24895226Y-73453975D01*
X24933321Y-73606356D01*
X24933321Y-73796832D01*
X24895226Y-73949213D01*
X24857130Y-74025404D01*
X24819035Y-74063499D01*
X24742845Y-74101594D01*
X24666654Y-74101594D01*
X24590464Y-74063499D01*
X24552369Y-74025404D01*
X24514273Y-73949213D01*
X24476178Y-73796832D01*
X24476178Y-73606356D01*
X24514273Y-73453975D01*
X24552369Y-73377785D01*
X24590464Y-73339690D01*
X24666654Y-73301594D01*
X23714273Y-71561594D02*
X23714273Y-70761594D01*
X23904750Y-70761594D01*
X24019035Y-70799690D01*
X24095226Y-70875880D01*
X24133321Y-70952070D01*
X24171416Y-71104451D01*
X24171416Y-71218737D01*
X24133321Y-71371118D01*
X24095226Y-71447309D01*
X24019035Y-71523499D01*
X23904750Y-71561594D01*
X23714273Y-71561594D01*
X24933321Y-71561594D02*
X24476178Y-71561594D01*
X24704750Y-71561594D02*
X24704750Y-70761594D01*
X24628559Y-70875880D01*
X24552369Y-70952070D01*
X24476178Y-70990166D01*
X23695226Y-68259690D02*
X23619035Y-68221594D01*
X23504750Y-68221594D01*
X23390464Y-68259690D01*
X23314273Y-68335880D01*
X23276178Y-68412070D01*
X23238083Y-68564451D01*
X23238083Y-68678737D01*
X23276178Y-68831118D01*
X23314273Y-68907309D01*
X23390464Y-68983499D01*
X23504750Y-69021594D01*
X23580940Y-69021594D01*
X23695226Y-68983499D01*
X23733321Y-68945404D01*
X23733321Y-68678737D01*
X23580940Y-68678737D01*
X24076178Y-69021594D02*
X24076178Y-68221594D01*
X24533321Y-69021594D01*
X24533321Y-68221594D01*
X24914273Y-69021594D02*
X24914273Y-68221594D01*
X25104750Y-68221594D01*
X25219035Y-68259690D01*
X25295226Y-68335880D01*
X25333321Y-68412070D01*
X25371416Y-68564451D01*
X25371416Y-68678737D01*
X25333321Y-68831118D01*
X25295226Y-68907309D01*
X25219035Y-68983499D01*
X25104750Y-69021594D01*
X24914273Y-69021594D01*
X23695226Y-65719690D02*
X23619035Y-65681594D01*
X23504750Y-65681594D01*
X23390464Y-65719690D01*
X23314273Y-65795880D01*
X23276178Y-65872070D01*
X23238083Y-66024451D01*
X23238083Y-66138737D01*
X23276178Y-66291118D01*
X23314273Y-66367309D01*
X23390464Y-66443499D01*
X23504750Y-66481594D01*
X23580940Y-66481594D01*
X23695226Y-66443499D01*
X23733321Y-66405404D01*
X23733321Y-66138737D01*
X23580940Y-66138737D01*
X24076178Y-66481594D02*
X24076178Y-65681594D01*
X24533321Y-66481594D01*
X24533321Y-65681594D01*
X24914273Y-66481594D02*
X24914273Y-65681594D01*
X25104750Y-65681594D01*
X25219035Y-65719690D01*
X25295226Y-65795880D01*
X25333321Y-65872070D01*
X25371416Y-66024451D01*
X25371416Y-66138737D01*
X25333321Y-66291118D01*
X25295226Y-66367309D01*
X25219035Y-66443499D01*
X25104750Y-66481594D01*
X24914273Y-66481594D01*
X23714273Y-76641594D02*
X23714273Y-75841594D01*
X23904750Y-75841594D01*
X24019035Y-75879690D01*
X24095226Y-75955880D01*
X24133321Y-76032070D01*
X24171416Y-76184451D01*
X24171416Y-76298737D01*
X24133321Y-76451118D01*
X24095226Y-76527309D01*
X24019035Y-76603499D01*
X23904750Y-76641594D01*
X23714273Y-76641594D01*
X24857130Y-76108261D02*
X24857130Y-76641594D01*
X24666654Y-75803499D02*
X24476178Y-76374928D01*
X24971416Y-76374928D01*
X24171416Y-79105404D02*
X24133321Y-79143499D01*
X24019035Y-79181594D01*
X23942845Y-79181594D01*
X23828559Y-79143499D01*
X23752369Y-79067309D01*
X23714273Y-78991118D01*
X23676178Y-78838737D01*
X23676178Y-78724451D01*
X23714273Y-78572070D01*
X23752369Y-78495880D01*
X23828559Y-78419690D01*
X23942845Y-78381594D01*
X24019035Y-78381594D01*
X24133321Y-78419690D01*
X24171416Y-78457785D01*
X24857130Y-78381594D02*
X24704750Y-78381594D01*
X24628559Y-78419690D01*
X24590464Y-78457785D01*
X24514273Y-78572070D01*
X24476178Y-78724451D01*
X24476178Y-79029213D01*
X24514273Y-79105404D01*
X24552369Y-79143499D01*
X24628559Y-79181594D01*
X24780940Y-79181594D01*
X24857130Y-79143499D01*
X24895226Y-79105404D01*
X24933321Y-79029213D01*
X24933321Y-78838737D01*
X24895226Y-78762547D01*
X24857130Y-78724451D01*
X24780940Y-78686356D01*
X24628559Y-78686356D01*
X24552369Y-78724451D01*
X24514273Y-78762547D01*
X24476178Y-78838737D01*
X23714273Y-81721594D02*
X23714273Y-80921594D01*
X23904750Y-80921594D01*
X24019035Y-80959690D01*
X24095226Y-81035880D01*
X24133321Y-81112070D01*
X24171416Y-81264451D01*
X24171416Y-81378737D01*
X24133321Y-81531118D01*
X24095226Y-81607309D01*
X24019035Y-81683499D01*
X23904750Y-81721594D01*
X23714273Y-81721594D01*
X24438083Y-80921594D02*
X24971416Y-80921594D01*
X24628559Y-81721594D01*
X23752369Y-83842547D02*
X24019035Y-83842547D01*
X24133321Y-84261594D02*
X23752369Y-84261594D01*
X23752369Y-83461594D01*
X24133321Y-83461594D01*
X24819035Y-83461594D02*
X24666654Y-83461594D01*
X24590464Y-83499690D01*
X24552369Y-83537785D01*
X24476178Y-83652070D01*
X24438083Y-83804451D01*
X24438083Y-84109213D01*
X24476178Y-84185404D01*
X24514273Y-84223499D01*
X24590464Y-84261594D01*
X24742845Y-84261594D01*
X24819035Y-84223499D01*
X24857130Y-84185404D01*
X24895226Y-84109213D01*
X24895226Y-83918737D01*
X24857130Y-83842547D01*
X24819035Y-83804451D01*
X24742845Y-83766356D01*
X24590464Y-83766356D01*
X24514273Y-83804451D01*
X24476178Y-83842547D01*
X24438083Y-83918737D01*
X23980940Y-86382547D02*
X24095226Y-86420642D01*
X24133321Y-86458737D01*
X24171416Y-86534928D01*
X24171416Y-86649213D01*
X24133321Y-86725404D01*
X24095226Y-86763499D01*
X24019035Y-86801594D01*
X23714273Y-86801594D01*
X23714273Y-86001594D01*
X23980940Y-86001594D01*
X24057130Y-86039690D01*
X24095226Y-86077785D01*
X24133321Y-86153975D01*
X24133321Y-86230166D01*
X24095226Y-86306356D01*
X24057130Y-86344451D01*
X23980940Y-86382547D01*
X23714273Y-86382547D01*
X24857130Y-86268261D02*
X24857130Y-86801594D01*
X24666654Y-85963499D02*
X24476178Y-86534928D01*
X24971416Y-86534928D01*
X23980940Y-88922547D02*
X24095226Y-88960642D01*
X24133321Y-88998737D01*
X24171416Y-89074928D01*
X24171416Y-89189213D01*
X24133321Y-89265404D01*
X24095226Y-89303499D01*
X24019035Y-89341594D01*
X23714273Y-89341594D01*
X23714273Y-88541594D01*
X23980940Y-88541594D01*
X24057130Y-88579690D01*
X24095226Y-88617785D01*
X24133321Y-88693975D01*
X24133321Y-88770166D01*
X24095226Y-88846356D01*
X24057130Y-88884451D01*
X23980940Y-88922547D01*
X23714273Y-88922547D01*
X24895226Y-88541594D02*
X24514273Y-88541594D01*
X24476178Y-88922547D01*
X24514273Y-88884451D01*
X24590464Y-88846356D01*
X24780940Y-88846356D01*
X24857130Y-88884451D01*
X24895226Y-88922547D01*
X24933321Y-88998737D01*
X24933321Y-89189213D01*
X24895226Y-89265404D01*
X24857130Y-89303499D01*
X24780940Y-89341594D01*
X24590464Y-89341594D01*
X24514273Y-89303499D01*
X24476178Y-89265404D01*
X34902940Y-88922547D02*
X35017226Y-88960642D01*
X35055321Y-88998737D01*
X35093416Y-89074928D01*
X35093416Y-89189213D01*
X35055321Y-89265404D01*
X35017226Y-89303499D01*
X34941035Y-89341594D01*
X34636273Y-89341594D01*
X34636273Y-88541594D01*
X34902940Y-88541594D01*
X34979130Y-88579690D01*
X35017226Y-88617785D01*
X35055321Y-88693975D01*
X35055321Y-88770166D01*
X35017226Y-88846356D01*
X34979130Y-88884451D01*
X34902940Y-88922547D01*
X34636273Y-88922547D01*
X35779130Y-88541594D02*
X35626750Y-88541594D01*
X35550559Y-88579690D01*
X35512464Y-88617785D01*
X35436273Y-88732070D01*
X35398178Y-88884451D01*
X35398178Y-89189213D01*
X35436273Y-89265404D01*
X35474369Y-89303499D01*
X35550559Y-89341594D01*
X35702940Y-89341594D01*
X35779130Y-89303499D01*
X35817226Y-89265404D01*
X35855321Y-89189213D01*
X35855321Y-88998737D01*
X35817226Y-88922547D01*
X35779130Y-88884451D01*
X35702940Y-88846356D01*
X35550559Y-88846356D01*
X35474369Y-88884451D01*
X35436273Y-88922547D01*
X35398178Y-88998737D01*
X34902940Y-83842547D02*
X35017226Y-83880642D01*
X35055321Y-83918737D01*
X35093416Y-83994928D01*
X35093416Y-84109213D01*
X35055321Y-84185404D01*
X35017226Y-84223499D01*
X34941035Y-84261594D01*
X34636273Y-84261594D01*
X34636273Y-83461594D01*
X34902940Y-83461594D01*
X34979130Y-83499690D01*
X35017226Y-83537785D01*
X35055321Y-83613975D01*
X35055321Y-83690166D01*
X35017226Y-83766356D01*
X34979130Y-83804451D01*
X34902940Y-83842547D01*
X34636273Y-83842547D01*
X35360083Y-83461594D02*
X35855321Y-83461594D01*
X35588654Y-83766356D01*
X35702940Y-83766356D01*
X35779130Y-83804451D01*
X35817226Y-83842547D01*
X35855321Y-83918737D01*
X35855321Y-84109213D01*
X35817226Y-84185404D01*
X35779130Y-84223499D01*
X35702940Y-84261594D01*
X35474369Y-84261594D01*
X35398178Y-84223499D01*
X35360083Y-84185404D01*
X34902940Y-81302547D02*
X35017226Y-81340642D01*
X35055321Y-81378737D01*
X35093416Y-81454928D01*
X35093416Y-81569213D01*
X35055321Y-81645404D01*
X35017226Y-81683499D01*
X34941035Y-81721594D01*
X34636273Y-81721594D01*
X34636273Y-80921594D01*
X34902940Y-80921594D01*
X34979130Y-80959690D01*
X35017226Y-80997785D01*
X35055321Y-81073975D01*
X35055321Y-81150166D01*
X35017226Y-81226356D01*
X34979130Y-81264451D01*
X34902940Y-81302547D01*
X34636273Y-81302547D01*
X35855321Y-81721594D02*
X35398178Y-81721594D01*
X35626750Y-81721594D02*
X35626750Y-80921594D01*
X35550559Y-81035880D01*
X35474369Y-81112070D01*
X35398178Y-81150166D01*
X34960083Y-71142547D02*
X34693416Y-71142547D01*
X34693416Y-71561594D02*
X34693416Y-70761594D01*
X35074369Y-70761594D01*
X35721988Y-71028261D02*
X35721988Y-71561594D01*
X35531511Y-70723499D02*
X35341035Y-71294928D01*
X35836273Y-71294928D01*
X34160083Y-68221594D02*
X34426750Y-69021594D01*
X34693416Y-68221594D01*
X35417226Y-68945404D02*
X35379130Y-68983499D01*
X35264845Y-69021594D01*
X35188654Y-69021594D01*
X35074369Y-68983499D01*
X34998178Y-68907309D01*
X34960083Y-68831118D01*
X34921988Y-68678737D01*
X34921988Y-68564451D01*
X34960083Y-68412070D01*
X34998178Y-68335880D01*
X35074369Y-68259690D01*
X35188654Y-68221594D01*
X35264845Y-68221594D01*
X35379130Y-68259690D01*
X35417226Y-68297785D01*
X36217226Y-68945404D02*
X36179130Y-68983499D01*
X36064845Y-69021594D01*
X35988654Y-69021594D01*
X35874369Y-68983499D01*
X35798178Y-68907309D01*
X35760083Y-68831118D01*
X35721988Y-68678737D01*
X35721988Y-68564451D01*
X35760083Y-68412070D01*
X35798178Y-68335880D01*
X35874369Y-68259690D01*
X35988654Y-68221594D01*
X36064845Y-68221594D01*
X36179130Y-68259690D01*
X36217226Y-68297785D01*
X34965536Y-66413499D02*
X35079822Y-66451594D01*
X35270298Y-66451594D01*
X35346489Y-66413499D01*
X35384584Y-66375404D01*
X35422679Y-66299213D01*
X35422679Y-66223023D01*
X35384584Y-66146832D01*
X35346489Y-66108737D01*
X35270298Y-66070642D01*
X35117917Y-66032547D01*
X35041727Y-65994451D01*
X35003631Y-65956356D01*
X34965536Y-65880166D01*
X34965536Y-65803975D01*
X35003631Y-65727785D01*
X35041727Y-65689690D01*
X35117917Y-65651594D01*
X35308393Y-65651594D01*
X35422679Y-65689690D01*
X35651250Y-65651594D02*
X36108393Y-65651594D01*
X35879822Y-66451594D02*
X35879822Y-65651594D01*
X34617226Y-63179690D02*
X34541035Y-63141594D01*
X34426750Y-63141594D01*
X34312464Y-63179690D01*
X34236273Y-63255880D01*
X34198178Y-63332070D01*
X34160083Y-63484451D01*
X34160083Y-63598737D01*
X34198178Y-63751118D01*
X34236273Y-63827309D01*
X34312464Y-63903499D01*
X34426750Y-63941594D01*
X34502940Y-63941594D01*
X34617226Y-63903499D01*
X34655321Y-63865404D01*
X34655321Y-63598737D01*
X34502940Y-63598737D01*
X34998178Y-63941594D02*
X34998178Y-63141594D01*
X35455321Y-63941594D01*
X35455321Y-63141594D01*
X35836273Y-63941594D02*
X35836273Y-63141594D01*
X36026750Y-63141594D01*
X36141035Y-63179690D01*
X36217226Y-63255880D01*
X36255321Y-63332070D01*
X36293416Y-63484451D01*
X36293416Y-63598737D01*
X36255321Y-63751118D01*
X36217226Y-63827309D01*
X36141035Y-63903499D01*
X36026750Y-63941594D01*
X35836273Y-63941594D01*
X34674369Y-61401594D02*
X34407702Y-61020642D01*
X34217226Y-61401594D02*
X34217226Y-60601594D01*
X34521988Y-60601594D01*
X34598178Y-60639690D01*
X34636273Y-60677785D01*
X34674369Y-60753975D01*
X34674369Y-60868261D01*
X34636273Y-60944451D01*
X34598178Y-60982547D01*
X34521988Y-61020642D01*
X34217226Y-61020642D01*
X34979130Y-61173023D02*
X35360083Y-61173023D01*
X34902940Y-61401594D02*
X35169607Y-60601594D01*
X35436273Y-61401594D01*
X35626750Y-60601594D02*
X35817226Y-61401594D01*
X35969607Y-60830166D01*
X36121988Y-61401594D01*
X36312464Y-60601594D01*
X34960083Y-73682547D02*
X34693416Y-73682547D01*
X34693416Y-74101594D02*
X34693416Y-73301594D01*
X35074369Y-73301594D01*
X35760083Y-73301594D02*
X35379130Y-73301594D01*
X35341035Y-73682547D01*
X35379130Y-73644451D01*
X35455321Y-73606356D01*
X35645797Y-73606356D01*
X35721988Y-73644451D01*
X35760083Y-73682547D01*
X35798178Y-73758737D01*
X35798178Y-73949213D01*
X35760083Y-74025404D01*
X35721988Y-74063499D01*
X35645797Y-74101594D01*
X35455321Y-74101594D01*
X35379130Y-74063499D01*
X35341035Y-74025404D01*
X34960083Y-76222547D02*
X34693416Y-76222547D01*
X34693416Y-76641594D02*
X34693416Y-75841594D01*
X35074369Y-75841594D01*
X35721988Y-75841594D02*
X35569607Y-75841594D01*
X35493416Y-75879690D01*
X35455321Y-75917785D01*
X35379130Y-76032070D01*
X35341035Y-76184451D01*
X35341035Y-76489213D01*
X35379130Y-76565404D01*
X35417226Y-76603499D01*
X35493416Y-76641594D01*
X35645797Y-76641594D01*
X35721988Y-76603499D01*
X35760083Y-76565404D01*
X35798178Y-76489213D01*
X35798178Y-76298737D01*
X35760083Y-76222547D01*
X35721988Y-76184451D01*
X35645797Y-76146356D01*
X35493416Y-76146356D01*
X35417226Y-76184451D01*
X35379130Y-76222547D01*
X35341035Y-76298737D01*
X34960083Y-78762547D02*
X34693416Y-78762547D01*
X34693416Y-79181594D02*
X34693416Y-78381594D01*
X35074369Y-78381594D01*
X35302940Y-78381594D02*
X35836273Y-78381594D01*
X35493416Y-79181594D01*
X34902940Y-86382547D02*
X35017226Y-86420642D01*
X35055321Y-86458737D01*
X35093416Y-86534928D01*
X35093416Y-86649213D01*
X35055321Y-86725404D01*
X35017226Y-86763499D01*
X34941035Y-86801594D01*
X34636273Y-86801594D01*
X34636273Y-86001594D01*
X34902940Y-86001594D01*
X34979130Y-86039690D01*
X35017226Y-86077785D01*
X35055321Y-86153975D01*
X35055321Y-86230166D01*
X35017226Y-86306356D01*
X34979130Y-86344451D01*
X34902940Y-86382547D01*
X34636273Y-86382547D01*
X35398178Y-86077785D02*
X35436273Y-86039690D01*
X35512464Y-86001594D01*
X35702940Y-86001594D01*
X35779130Y-86039690D01*
X35817226Y-86077785D01*
X35855321Y-86153975D01*
X35855321Y-86230166D01*
X35817226Y-86344451D01*
X35360083Y-86801594D01*
X35855321Y-86801594D01*
%TO.C,D6*%
D13*
X64868273Y-32081107D02*
X63598273Y-32081107D01*
X63598273Y-31718250D01*
X63658750Y-31500535D01*
X63779702Y-31355392D01*
X63900654Y-31282821D01*
X64142559Y-31210250D01*
X64323988Y-31210250D01*
X64565892Y-31282821D01*
X64686845Y-31355392D01*
X64807797Y-31500535D01*
X64868273Y-31718250D01*
X64868273Y-32081107D01*
X63598273Y-29903964D02*
X63598273Y-30194250D01*
X63658750Y-30339392D01*
X63719226Y-30411964D01*
X63900654Y-30557107D01*
X64142559Y-30629678D01*
X64626369Y-30629678D01*
X64747321Y-30557107D01*
X64807797Y-30484535D01*
X64868273Y-30339392D01*
X64868273Y-30049107D01*
X64807797Y-29903964D01*
X64747321Y-29831392D01*
X64626369Y-29758821D01*
X64323988Y-29758821D01*
X64203035Y-29831392D01*
X64142559Y-29903964D01*
X64082083Y-30049107D01*
X64082083Y-30339392D01*
X64142559Y-30484535D01*
X64203035Y-30557107D01*
X64323988Y-30629678D01*
%TO.C,D47*%
X233143273Y-61381821D02*
X231873273Y-61381821D01*
X231873273Y-61018964D01*
X231933750Y-60801250D01*
X232054702Y-60656107D01*
X232175654Y-60583535D01*
X232417559Y-60510964D01*
X232598988Y-60510964D01*
X232840892Y-60583535D01*
X232961845Y-60656107D01*
X233082797Y-60801250D01*
X233143273Y-61018964D01*
X233143273Y-61381821D01*
X232296607Y-59204678D02*
X233143273Y-59204678D01*
X231812797Y-59567535D02*
X232719940Y-59930392D01*
X232719940Y-58986964D01*
X231873273Y-58551535D02*
X231873273Y-57535535D01*
X233143273Y-58188678D01*
%TO.C,D46*%
X232349523Y-35981821D02*
X231079523Y-35981821D01*
X231079523Y-35618964D01*
X231140000Y-35401250D01*
X231260952Y-35256107D01*
X231381904Y-35183535D01*
X231623809Y-35110964D01*
X231805238Y-35110964D01*
X232047142Y-35183535D01*
X232168095Y-35256107D01*
X232289047Y-35401250D01*
X232349523Y-35618964D01*
X232349523Y-35981821D01*
X231502857Y-33804678D02*
X232349523Y-33804678D01*
X231019047Y-34167535D02*
X231926190Y-34530392D01*
X231926190Y-33586964D01*
X231079523Y-32353250D02*
X231079523Y-32643535D01*
X231140000Y-32788678D01*
X231200476Y-32861250D01*
X231381904Y-33006392D01*
X231623809Y-33078964D01*
X232107619Y-33078964D01*
X232228571Y-33006392D01*
X232289047Y-32933821D01*
X232349523Y-32788678D01*
X232349523Y-32498392D01*
X232289047Y-32353250D01*
X232228571Y-32280678D01*
X232107619Y-32208107D01*
X231805238Y-32208107D01*
X231684285Y-32280678D01*
X231623809Y-32353250D01*
X231563333Y-32498392D01*
X231563333Y-32788678D01*
X231623809Y-32933821D01*
X231684285Y-33006392D01*
X231805238Y-33078964D01*
%TO.C,D43*%
X232349523Y-80431821D02*
X231079523Y-80431821D01*
X231079523Y-80068964D01*
X231140000Y-79851250D01*
X231260952Y-79706107D01*
X231381904Y-79633535D01*
X231623809Y-79560964D01*
X231805238Y-79560964D01*
X232047142Y-79633535D01*
X232168095Y-79706107D01*
X232289047Y-79851250D01*
X232349523Y-80068964D01*
X232349523Y-80431821D01*
X231502857Y-78254678D02*
X232349523Y-78254678D01*
X231019047Y-78617535D02*
X231926190Y-78980392D01*
X231926190Y-78036964D01*
X231079523Y-77601535D02*
X231079523Y-76658107D01*
X231563333Y-77166107D01*
X231563333Y-76948392D01*
X231623809Y-76803250D01*
X231684285Y-76730678D01*
X231805238Y-76658107D01*
X232107619Y-76658107D01*
X232228571Y-76730678D01*
X232289047Y-76803250D01*
X232349523Y-76948392D01*
X232349523Y-77383821D01*
X232289047Y-77528964D01*
X232228571Y-77601535D01*
%TO.C,D42*%
X213299523Y-61540571D02*
X212029523Y-61540571D01*
X212029523Y-61177714D01*
X212090000Y-60960000D01*
X212210952Y-60814857D01*
X212331904Y-60742285D01*
X212573809Y-60669714D01*
X212755238Y-60669714D01*
X212997142Y-60742285D01*
X213118095Y-60814857D01*
X213239047Y-60960000D01*
X213299523Y-61177714D01*
X213299523Y-61540571D01*
X212452857Y-59363428D02*
X213299523Y-59363428D01*
X211969047Y-59726285D02*
X212876190Y-60089142D01*
X212876190Y-59145714D01*
X212150476Y-58637714D02*
X212090000Y-58565142D01*
X212029523Y-58420000D01*
X212029523Y-58057142D01*
X212090000Y-57912000D01*
X212150476Y-57839428D01*
X212271428Y-57766857D01*
X212392380Y-57766857D01*
X212573809Y-57839428D01*
X213299523Y-58710285D01*
X213299523Y-57766857D01*
%TO.C,D41*%
X212505773Y-36140571D02*
X211235773Y-36140571D01*
X211235773Y-35777714D01*
X211296250Y-35560000D01*
X211417202Y-35414857D01*
X211538154Y-35342285D01*
X211780059Y-35269714D01*
X211961488Y-35269714D01*
X212203392Y-35342285D01*
X212324345Y-35414857D01*
X212445297Y-35560000D01*
X212505773Y-35777714D01*
X212505773Y-36140571D01*
X211659107Y-33963428D02*
X212505773Y-33963428D01*
X211175297Y-34326285D02*
X212082440Y-34689142D01*
X212082440Y-33745714D01*
X212505773Y-32366857D02*
X212505773Y-33237714D01*
X212505773Y-32802285D02*
X211235773Y-32802285D01*
X211417202Y-32947428D01*
X211538154Y-33092571D01*
X211598630Y-33237714D01*
%TO.C,D38*%
X211712023Y-80590571D02*
X210442023Y-80590571D01*
X210442023Y-80227714D01*
X210502500Y-80010000D01*
X210623452Y-79864857D01*
X210744404Y-79792285D01*
X210986309Y-79719714D01*
X211167738Y-79719714D01*
X211409642Y-79792285D01*
X211530595Y-79864857D01*
X211651547Y-80010000D01*
X211712023Y-80227714D01*
X211712023Y-80590571D01*
X210442023Y-79211714D02*
X210442023Y-78268285D01*
X210925833Y-78776285D01*
X210925833Y-78558571D01*
X210986309Y-78413428D01*
X211046785Y-78340857D01*
X211167738Y-78268285D01*
X211470119Y-78268285D01*
X211591071Y-78340857D01*
X211651547Y-78413428D01*
X211712023Y-78558571D01*
X211712023Y-78994000D01*
X211651547Y-79139142D01*
X211591071Y-79211714D01*
X210986309Y-77397428D02*
X210925833Y-77542571D01*
X210865357Y-77615142D01*
X210744404Y-77687714D01*
X210683928Y-77687714D01*
X210562976Y-77615142D01*
X210502500Y-77542571D01*
X210442023Y-77397428D01*
X210442023Y-77107142D01*
X210502500Y-76962000D01*
X210562976Y-76889428D01*
X210683928Y-76816857D01*
X210744404Y-76816857D01*
X210865357Y-76889428D01*
X210925833Y-76962000D01*
X210986309Y-77107142D01*
X210986309Y-77397428D01*
X211046785Y-77542571D01*
X211107261Y-77615142D01*
X211228214Y-77687714D01*
X211470119Y-77687714D01*
X211591071Y-77615142D01*
X211651547Y-77542571D01*
X211712023Y-77397428D01*
X211712023Y-77107142D01*
X211651547Y-76962000D01*
X211591071Y-76889428D01*
X211470119Y-76816857D01*
X211228214Y-76816857D01*
X211107261Y-76889428D01*
X211046785Y-76962000D01*
X210986309Y-77107142D01*
%TO.C,D37*%
X207744143Y-92576561D02*
X206474143Y-92576561D01*
X206474143Y-92213704D01*
X206534620Y-91995990D01*
X206655572Y-91850847D01*
X206776524Y-91778275D01*
X207018429Y-91705704D01*
X207199858Y-91705704D01*
X207441762Y-91778275D01*
X207562715Y-91850847D01*
X207683667Y-91995990D01*
X207744143Y-92213704D01*
X207744143Y-92576561D01*
X206474143Y-91197704D02*
X206474143Y-90254275D01*
X206957953Y-90762275D01*
X206957953Y-90544561D01*
X207018429Y-90399418D01*
X207078905Y-90326847D01*
X207199858Y-90254275D01*
X207502239Y-90254275D01*
X207623191Y-90326847D01*
X207683667Y-90399418D01*
X207744143Y-90544561D01*
X207744143Y-90979990D01*
X207683667Y-91125132D01*
X207623191Y-91197704D01*
X206474143Y-89746275D02*
X206474143Y-88730275D01*
X207744143Y-89383418D01*
%TO.C,D36*%
X190280773Y-33759321D02*
X189010773Y-33759321D01*
X189010773Y-33396464D01*
X189071250Y-33178750D01*
X189192202Y-33033607D01*
X189313154Y-32961035D01*
X189555059Y-32888464D01*
X189736488Y-32888464D01*
X189978392Y-32961035D01*
X190099345Y-33033607D01*
X190220297Y-33178750D01*
X190280773Y-33396464D01*
X190280773Y-33759321D01*
X189010773Y-32380464D02*
X189010773Y-31437035D01*
X189494583Y-31945035D01*
X189494583Y-31727321D01*
X189555059Y-31582178D01*
X189615535Y-31509607D01*
X189736488Y-31437035D01*
X190038869Y-31437035D01*
X190159821Y-31509607D01*
X190220297Y-31582178D01*
X190280773Y-31727321D01*
X190280773Y-32162750D01*
X190220297Y-32307892D01*
X190159821Y-32380464D01*
X189010773Y-30130750D02*
X189010773Y-30421035D01*
X189071250Y-30566178D01*
X189131726Y-30638750D01*
X189313154Y-30783892D01*
X189555059Y-30856464D01*
X190038869Y-30856464D01*
X190159821Y-30783892D01*
X190220297Y-30711321D01*
X190280773Y-30566178D01*
X190280773Y-30275892D01*
X190220297Y-30130750D01*
X190159821Y-30058178D01*
X190038869Y-29985607D01*
X189736488Y-29985607D01*
X189615535Y-30058178D01*
X189555059Y-30130750D01*
X189494583Y-30275892D01*
X189494583Y-30566178D01*
X189555059Y-30711321D01*
X189615535Y-30783892D01*
X189736488Y-30856464D01*
%TO.C,D35*%
X213299523Y-119325571D02*
X212029523Y-119325571D01*
X212029523Y-118962714D01*
X212090000Y-118745000D01*
X212210952Y-118599857D01*
X212331904Y-118527285D01*
X212573809Y-118454714D01*
X212755238Y-118454714D01*
X212997142Y-118527285D01*
X213118095Y-118599857D01*
X213239047Y-118745000D01*
X213299523Y-118962714D01*
X213299523Y-119325571D01*
X212029523Y-117946714D02*
X212029523Y-117003285D01*
X212513333Y-117511285D01*
X212513333Y-117293571D01*
X212573809Y-117148428D01*
X212634285Y-117075857D01*
X212755238Y-117003285D01*
X213057619Y-117003285D01*
X213178571Y-117075857D01*
X213239047Y-117148428D01*
X213299523Y-117293571D01*
X213299523Y-117729000D01*
X213239047Y-117874142D01*
X213178571Y-117946714D01*
X212029523Y-115624428D02*
X212029523Y-116350142D01*
X212634285Y-116422714D01*
X212573809Y-116350142D01*
X212513333Y-116205000D01*
X212513333Y-115842142D01*
X212573809Y-115697000D01*
X212634285Y-115624428D01*
X212755238Y-115551857D01*
X213057619Y-115551857D01*
X213178571Y-115624428D01*
X213239047Y-115697000D01*
X213299523Y-115842142D01*
X213299523Y-116205000D01*
X213239047Y-116350142D01*
X213178571Y-116422714D01*
%TO.C,D34*%
X167262023Y-95354321D02*
X165992023Y-95354321D01*
X165992023Y-94991464D01*
X166052500Y-94773750D01*
X166173452Y-94628607D01*
X166294404Y-94556035D01*
X166536309Y-94483464D01*
X166717738Y-94483464D01*
X166959642Y-94556035D01*
X167080595Y-94628607D01*
X167201547Y-94773750D01*
X167262023Y-94991464D01*
X167262023Y-95354321D01*
X165992023Y-93975464D02*
X165992023Y-93032035D01*
X166475833Y-93540035D01*
X166475833Y-93322321D01*
X166536309Y-93177178D01*
X166596785Y-93104607D01*
X166717738Y-93032035D01*
X167020119Y-93032035D01*
X167141071Y-93104607D01*
X167201547Y-93177178D01*
X167262023Y-93322321D01*
X167262023Y-93757750D01*
X167201547Y-93902892D01*
X167141071Y-93975464D01*
X166415357Y-91725750D02*
X167262023Y-91725750D01*
X165931547Y-92088607D02*
X166838690Y-92451464D01*
X166838690Y-91508035D01*
%TO.C,D33*%
X161705773Y-81225571D02*
X160435773Y-81225571D01*
X160435773Y-80862714D01*
X160496250Y-80645000D01*
X160617202Y-80499857D01*
X160738154Y-80427285D01*
X160980059Y-80354714D01*
X161161488Y-80354714D01*
X161403392Y-80427285D01*
X161524345Y-80499857D01*
X161645297Y-80645000D01*
X161705773Y-80862714D01*
X161705773Y-81225571D01*
X160435773Y-79846714D02*
X160435773Y-78903285D01*
X160919583Y-79411285D01*
X160919583Y-79193571D01*
X160980059Y-79048428D01*
X161040535Y-78975857D01*
X161161488Y-78903285D01*
X161463869Y-78903285D01*
X161584821Y-78975857D01*
X161645297Y-79048428D01*
X161705773Y-79193571D01*
X161705773Y-79629000D01*
X161645297Y-79774142D01*
X161584821Y-79846714D01*
X160435773Y-78395285D02*
X160435773Y-77451857D01*
X160919583Y-77959857D01*
X160919583Y-77742142D01*
X160980059Y-77597000D01*
X161040535Y-77524428D01*
X161161488Y-77451857D01*
X161463869Y-77451857D01*
X161584821Y-77524428D01*
X161645297Y-77597000D01*
X161705773Y-77742142D01*
X161705773Y-78177571D01*
X161645297Y-78322714D01*
X161584821Y-78395285D01*
%TO.C,D32*%
X173612023Y-62810811D02*
X172342023Y-62810811D01*
X172342023Y-62447954D01*
X172402500Y-62230240D01*
X172523452Y-62085097D01*
X172644404Y-62012525D01*
X172886309Y-61939954D01*
X173067738Y-61939954D01*
X173309642Y-62012525D01*
X173430595Y-62085097D01*
X173551547Y-62230240D01*
X173612023Y-62447954D01*
X173612023Y-62810811D01*
X172342023Y-61431954D02*
X172342023Y-60488525D01*
X172825833Y-60996525D01*
X172825833Y-60778811D01*
X172886309Y-60633668D01*
X172946785Y-60561097D01*
X173067738Y-60488525D01*
X173370119Y-60488525D01*
X173491071Y-60561097D01*
X173551547Y-60633668D01*
X173612023Y-60778811D01*
X173612023Y-61214240D01*
X173551547Y-61359382D01*
X173491071Y-61431954D01*
X172462976Y-59907954D02*
X172402500Y-59835382D01*
X172342023Y-59690240D01*
X172342023Y-59327382D01*
X172402500Y-59182240D01*
X172462976Y-59109668D01*
X172583928Y-59037097D01*
X172704880Y-59037097D01*
X172886309Y-59109668D01*
X173612023Y-59980525D01*
X173612023Y-59037097D01*
%TO.C,D31*%
X170437023Y-33441821D02*
X169167023Y-33441821D01*
X169167023Y-33078964D01*
X169227500Y-32861250D01*
X169348452Y-32716107D01*
X169469404Y-32643535D01*
X169711309Y-32570964D01*
X169892738Y-32570964D01*
X170134642Y-32643535D01*
X170255595Y-32716107D01*
X170376547Y-32861250D01*
X170437023Y-33078964D01*
X170437023Y-33441821D01*
X169167023Y-32062964D02*
X169167023Y-31119535D01*
X169650833Y-31627535D01*
X169650833Y-31409821D01*
X169711309Y-31264678D01*
X169771785Y-31192107D01*
X169892738Y-31119535D01*
X170195119Y-31119535D01*
X170316071Y-31192107D01*
X170376547Y-31264678D01*
X170437023Y-31409821D01*
X170437023Y-31845250D01*
X170376547Y-31990392D01*
X170316071Y-32062964D01*
X170437023Y-29668107D02*
X170437023Y-30538964D01*
X170437023Y-30103535D02*
X169167023Y-30103535D01*
X169348452Y-30248678D01*
X169469404Y-30393821D01*
X169529880Y-30538964D01*
%TO.C,D30*%
X164880773Y-114721821D02*
X163610773Y-114721821D01*
X163610773Y-114358964D01*
X163671250Y-114141250D01*
X163792202Y-113996107D01*
X163913154Y-113923535D01*
X164155059Y-113850964D01*
X164336488Y-113850964D01*
X164578392Y-113923535D01*
X164699345Y-113996107D01*
X164820297Y-114141250D01*
X164880773Y-114358964D01*
X164880773Y-114721821D01*
X163610773Y-113342964D02*
X163610773Y-112399535D01*
X164094583Y-112907535D01*
X164094583Y-112689821D01*
X164155059Y-112544678D01*
X164215535Y-112472107D01*
X164336488Y-112399535D01*
X164638869Y-112399535D01*
X164759821Y-112472107D01*
X164820297Y-112544678D01*
X164880773Y-112689821D01*
X164880773Y-113125250D01*
X164820297Y-113270392D01*
X164759821Y-113342964D01*
X163610773Y-111456107D02*
X163610773Y-111310964D01*
X163671250Y-111165821D01*
X163731726Y-111093250D01*
X163852678Y-111020678D01*
X164094583Y-110948107D01*
X164396964Y-110948107D01*
X164638869Y-111020678D01*
X164759821Y-111093250D01*
X164820297Y-111165821D01*
X164880773Y-111310964D01*
X164880773Y-111456107D01*
X164820297Y-111601250D01*
X164759821Y-111673821D01*
X164638869Y-111746392D01*
X164396964Y-111818964D01*
X164094583Y-111818964D01*
X163852678Y-111746392D01*
X163731726Y-111673821D01*
X163671250Y-111601250D01*
X163610773Y-111456107D01*
%TO.C,D29*%
X149005773Y-95513071D02*
X147735773Y-95513071D01*
X147735773Y-95150214D01*
X147796250Y-94932500D01*
X147917202Y-94787357D01*
X148038154Y-94714785D01*
X148280059Y-94642214D01*
X148461488Y-94642214D01*
X148703392Y-94714785D01*
X148824345Y-94787357D01*
X148945297Y-94932500D01*
X149005773Y-95150214D01*
X149005773Y-95513071D01*
X147856726Y-94061642D02*
X147796250Y-93989071D01*
X147735773Y-93843928D01*
X147735773Y-93481071D01*
X147796250Y-93335928D01*
X147856726Y-93263357D01*
X147977678Y-93190785D01*
X148098630Y-93190785D01*
X148280059Y-93263357D01*
X149005773Y-94134214D01*
X149005773Y-93190785D01*
X149005773Y-92465071D02*
X149005773Y-92174785D01*
X148945297Y-92029642D01*
X148884821Y-91957071D01*
X148703392Y-91811928D01*
X148461488Y-91739357D01*
X147977678Y-91739357D01*
X147856726Y-91811928D01*
X147796250Y-91884500D01*
X147735773Y-92029642D01*
X147735773Y-92319928D01*
X147796250Y-92465071D01*
X147856726Y-92537642D01*
X147977678Y-92610214D01*
X148280059Y-92610214D01*
X148401011Y-92537642D01*
X148461488Y-92465071D01*
X148521964Y-92319928D01*
X148521964Y-92029642D01*
X148461488Y-91884500D01*
X148401011Y-91811928D01*
X148280059Y-91739357D01*
%TO.C,D28*%
X142655773Y-81384321D02*
X141385773Y-81384321D01*
X141385773Y-81021464D01*
X141446250Y-80803750D01*
X141567202Y-80658607D01*
X141688154Y-80586035D01*
X141930059Y-80513464D01*
X142111488Y-80513464D01*
X142353392Y-80586035D01*
X142474345Y-80658607D01*
X142595297Y-80803750D01*
X142655773Y-81021464D01*
X142655773Y-81384321D01*
X141506726Y-79932892D02*
X141446250Y-79860321D01*
X141385773Y-79715178D01*
X141385773Y-79352321D01*
X141446250Y-79207178D01*
X141506726Y-79134607D01*
X141627678Y-79062035D01*
X141748630Y-79062035D01*
X141930059Y-79134607D01*
X142655773Y-80005464D01*
X142655773Y-79062035D01*
X141930059Y-78191178D02*
X141869583Y-78336321D01*
X141809107Y-78408892D01*
X141688154Y-78481464D01*
X141627678Y-78481464D01*
X141506726Y-78408892D01*
X141446250Y-78336321D01*
X141385773Y-78191178D01*
X141385773Y-77900892D01*
X141446250Y-77755750D01*
X141506726Y-77683178D01*
X141627678Y-77610607D01*
X141688154Y-77610607D01*
X141809107Y-77683178D01*
X141869583Y-77755750D01*
X141930059Y-77900892D01*
X141930059Y-78191178D01*
X141990535Y-78336321D01*
X142051011Y-78408892D01*
X142171964Y-78481464D01*
X142413869Y-78481464D01*
X142534821Y-78408892D01*
X142595297Y-78336321D01*
X142655773Y-78191178D01*
X142655773Y-77900892D01*
X142595297Y-77755750D01*
X142534821Y-77683178D01*
X142413869Y-77610607D01*
X142171964Y-77610607D01*
X142051011Y-77683178D01*
X141990535Y-77755750D01*
X141930059Y-77900892D01*
%TO.C,D27*%
X152180773Y-62334321D02*
X150910773Y-62334321D01*
X150910773Y-61971464D01*
X150971250Y-61753750D01*
X151092202Y-61608607D01*
X151213154Y-61536035D01*
X151455059Y-61463464D01*
X151636488Y-61463464D01*
X151878392Y-61536035D01*
X151999345Y-61608607D01*
X152120297Y-61753750D01*
X152180773Y-61971464D01*
X152180773Y-62334321D01*
X151031726Y-60882892D02*
X150971250Y-60810321D01*
X150910773Y-60665178D01*
X150910773Y-60302321D01*
X150971250Y-60157178D01*
X151031726Y-60084607D01*
X151152678Y-60012035D01*
X151273630Y-60012035D01*
X151455059Y-60084607D01*
X152180773Y-60955464D01*
X152180773Y-60012035D01*
X150910773Y-59504035D02*
X150910773Y-58488035D01*
X152180773Y-59141178D01*
%TO.C,D26*%
X150593273Y-33600571D02*
X149323273Y-33600571D01*
X149323273Y-33237714D01*
X149383750Y-33020000D01*
X149504702Y-32874857D01*
X149625654Y-32802285D01*
X149867559Y-32729714D01*
X150048988Y-32729714D01*
X150290892Y-32802285D01*
X150411845Y-32874857D01*
X150532797Y-33020000D01*
X150593273Y-33237714D01*
X150593273Y-33600571D01*
X149444226Y-32149142D02*
X149383750Y-32076571D01*
X149323273Y-31931428D01*
X149323273Y-31568571D01*
X149383750Y-31423428D01*
X149444226Y-31350857D01*
X149565178Y-31278285D01*
X149686130Y-31278285D01*
X149867559Y-31350857D01*
X150593273Y-32221714D01*
X150593273Y-31278285D01*
X149323273Y-29972000D02*
X149323273Y-30262285D01*
X149383750Y-30407428D01*
X149444226Y-30480000D01*
X149625654Y-30625142D01*
X149867559Y-30697714D01*
X150351369Y-30697714D01*
X150472321Y-30625142D01*
X150532797Y-30552571D01*
X150593273Y-30407428D01*
X150593273Y-30117142D01*
X150532797Y-29972000D01*
X150472321Y-29899428D01*
X150351369Y-29826857D01*
X150048988Y-29826857D01*
X149928035Y-29899428D01*
X149867559Y-29972000D01*
X149807083Y-30117142D01*
X149807083Y-30407428D01*
X149867559Y-30552571D01*
X149928035Y-30625142D01*
X150048988Y-30697714D01*
%TO.C,D25*%
X139480773Y-114404321D02*
X138210773Y-114404321D01*
X138210773Y-114041464D01*
X138271250Y-113823750D01*
X138392202Y-113678607D01*
X138513154Y-113606035D01*
X138755059Y-113533464D01*
X138936488Y-113533464D01*
X139178392Y-113606035D01*
X139299345Y-113678607D01*
X139420297Y-113823750D01*
X139480773Y-114041464D01*
X139480773Y-114404321D01*
X138331726Y-112952892D02*
X138271250Y-112880321D01*
X138210773Y-112735178D01*
X138210773Y-112372321D01*
X138271250Y-112227178D01*
X138331726Y-112154607D01*
X138452678Y-112082035D01*
X138573630Y-112082035D01*
X138755059Y-112154607D01*
X139480773Y-113025464D01*
X139480773Y-112082035D01*
X138210773Y-110703178D02*
X138210773Y-111428892D01*
X138815535Y-111501464D01*
X138755059Y-111428892D01*
X138694583Y-111283750D01*
X138694583Y-110920892D01*
X138755059Y-110775750D01*
X138815535Y-110703178D01*
X138936488Y-110630607D01*
X139238869Y-110630607D01*
X139359821Y-110703178D01*
X139420297Y-110775750D01*
X139480773Y-110920892D01*
X139480773Y-111283750D01*
X139420297Y-111428892D01*
X139359821Y-111501464D01*
%TO.C,D24*%
X128368273Y-95354321D02*
X127098273Y-95354321D01*
X127098273Y-94991464D01*
X127158750Y-94773750D01*
X127279702Y-94628607D01*
X127400654Y-94556035D01*
X127642559Y-94483464D01*
X127823988Y-94483464D01*
X128065892Y-94556035D01*
X128186845Y-94628607D01*
X128307797Y-94773750D01*
X128368273Y-94991464D01*
X128368273Y-95354321D01*
X127219226Y-93902892D02*
X127158750Y-93830321D01*
X127098273Y-93685178D01*
X127098273Y-93322321D01*
X127158750Y-93177178D01*
X127219226Y-93104607D01*
X127340178Y-93032035D01*
X127461130Y-93032035D01*
X127642559Y-93104607D01*
X128368273Y-93975464D01*
X128368273Y-93032035D01*
X127521607Y-91725750D02*
X128368273Y-91725750D01*
X127037797Y-92088607D02*
X127944940Y-92451464D01*
X127944940Y-91508035D01*
%TO.C,D23*%
X122812023Y-81384321D02*
X121542023Y-81384321D01*
X121542023Y-81021464D01*
X121602500Y-80803750D01*
X121723452Y-80658607D01*
X121844404Y-80586035D01*
X122086309Y-80513464D01*
X122267738Y-80513464D01*
X122509642Y-80586035D01*
X122630595Y-80658607D01*
X122751547Y-80803750D01*
X122812023Y-81021464D01*
X122812023Y-81384321D01*
X121662976Y-79932892D02*
X121602500Y-79860321D01*
X121542023Y-79715178D01*
X121542023Y-79352321D01*
X121602500Y-79207178D01*
X121662976Y-79134607D01*
X121783928Y-79062035D01*
X121904880Y-79062035D01*
X122086309Y-79134607D01*
X122812023Y-80005464D01*
X122812023Y-79062035D01*
X121542023Y-78554035D02*
X121542023Y-77610607D01*
X122025833Y-78118607D01*
X122025833Y-77900892D01*
X122086309Y-77755750D01*
X122146785Y-77683178D01*
X122267738Y-77610607D01*
X122570119Y-77610607D01*
X122691071Y-77683178D01*
X122751547Y-77755750D01*
X122812023Y-77900892D01*
X122812023Y-78336321D01*
X122751547Y-78481464D01*
X122691071Y-78554035D01*
%TO.C,D22*%
X133130773Y-62334321D02*
X131860773Y-62334321D01*
X131860773Y-61971464D01*
X131921250Y-61753750D01*
X132042202Y-61608607D01*
X132163154Y-61536035D01*
X132405059Y-61463464D01*
X132586488Y-61463464D01*
X132828392Y-61536035D01*
X132949345Y-61608607D01*
X133070297Y-61753750D01*
X133130773Y-61971464D01*
X133130773Y-62334321D01*
X131981726Y-60882892D02*
X131921250Y-60810321D01*
X131860773Y-60665178D01*
X131860773Y-60302321D01*
X131921250Y-60157178D01*
X131981726Y-60084607D01*
X132102678Y-60012035D01*
X132223630Y-60012035D01*
X132405059Y-60084607D01*
X133130773Y-60955464D01*
X133130773Y-60012035D01*
X131981726Y-59431464D02*
X131921250Y-59358892D01*
X131860773Y-59213750D01*
X131860773Y-58850892D01*
X131921250Y-58705750D01*
X131981726Y-58633178D01*
X132102678Y-58560607D01*
X132223630Y-58560607D01*
X132405059Y-58633178D01*
X133130773Y-59504035D01*
X133130773Y-58560607D01*
%TO.C,D21*%
X133924523Y-33441821D02*
X132654523Y-33441821D01*
X132654523Y-33078964D01*
X132715000Y-32861250D01*
X132835952Y-32716107D01*
X132956904Y-32643535D01*
X133198809Y-32570964D01*
X133380238Y-32570964D01*
X133622142Y-32643535D01*
X133743095Y-32716107D01*
X133864047Y-32861250D01*
X133924523Y-33078964D01*
X133924523Y-33441821D01*
X132775476Y-31990392D02*
X132715000Y-31917821D01*
X132654523Y-31772678D01*
X132654523Y-31409821D01*
X132715000Y-31264678D01*
X132775476Y-31192107D01*
X132896428Y-31119535D01*
X133017380Y-31119535D01*
X133198809Y-31192107D01*
X133924523Y-32062964D01*
X133924523Y-31119535D01*
X133924523Y-29668107D02*
X133924523Y-30538964D01*
X133924523Y-30103535D02*
X132654523Y-30103535D01*
X132835952Y-30248678D01*
X132956904Y-30393821D01*
X133017380Y-30538964D01*
%TO.C,D20*%
X120430773Y-114404321D02*
X119160773Y-114404321D01*
X119160773Y-114041464D01*
X119221250Y-113823750D01*
X119342202Y-113678607D01*
X119463154Y-113606035D01*
X119705059Y-113533464D01*
X119886488Y-113533464D01*
X120128392Y-113606035D01*
X120249345Y-113678607D01*
X120370297Y-113823750D01*
X120430773Y-114041464D01*
X120430773Y-114404321D01*
X119281726Y-112952892D02*
X119221250Y-112880321D01*
X119160773Y-112735178D01*
X119160773Y-112372321D01*
X119221250Y-112227178D01*
X119281726Y-112154607D01*
X119402678Y-112082035D01*
X119523630Y-112082035D01*
X119705059Y-112154607D01*
X120430773Y-113025464D01*
X120430773Y-112082035D01*
X119160773Y-111138607D02*
X119160773Y-110993464D01*
X119221250Y-110848321D01*
X119281726Y-110775750D01*
X119402678Y-110703178D01*
X119644583Y-110630607D01*
X119946964Y-110630607D01*
X120188869Y-110703178D01*
X120309821Y-110775750D01*
X120370297Y-110848321D01*
X120430773Y-110993464D01*
X120430773Y-111138607D01*
X120370297Y-111283750D01*
X120309821Y-111356321D01*
X120188869Y-111428892D01*
X119946964Y-111501464D01*
X119644583Y-111501464D01*
X119402678Y-111428892D01*
X119281726Y-111356321D01*
X119221250Y-111283750D01*
X119160773Y-111138607D01*
%TO.C,D19*%
X110112023Y-95513071D02*
X108842023Y-95513071D01*
X108842023Y-95150214D01*
X108902500Y-94932500D01*
X109023452Y-94787357D01*
X109144404Y-94714785D01*
X109386309Y-94642214D01*
X109567738Y-94642214D01*
X109809642Y-94714785D01*
X109930595Y-94787357D01*
X110051547Y-94932500D01*
X110112023Y-95150214D01*
X110112023Y-95513071D01*
X110112023Y-93190785D02*
X110112023Y-94061642D01*
X110112023Y-93626214D02*
X108842023Y-93626214D01*
X109023452Y-93771357D01*
X109144404Y-93916500D01*
X109204880Y-94061642D01*
X110112023Y-92465071D02*
X110112023Y-92174785D01*
X110051547Y-92029642D01*
X109991071Y-91957071D01*
X109809642Y-91811928D01*
X109567738Y-91739357D01*
X109083928Y-91739357D01*
X108962976Y-91811928D01*
X108902500Y-91884500D01*
X108842023Y-92029642D01*
X108842023Y-92319928D01*
X108902500Y-92465071D01*
X108962976Y-92537642D01*
X109083928Y-92610214D01*
X109386309Y-92610214D01*
X109507261Y-92537642D01*
X109567738Y-92465071D01*
X109628214Y-92319928D01*
X109628214Y-92029642D01*
X109567738Y-91884500D01*
X109507261Y-91811928D01*
X109386309Y-91739357D01*
%TO.C,D18*%
X104555773Y-81225571D02*
X103285773Y-81225571D01*
X103285773Y-80862714D01*
X103346250Y-80645000D01*
X103467202Y-80499857D01*
X103588154Y-80427285D01*
X103830059Y-80354714D01*
X104011488Y-80354714D01*
X104253392Y-80427285D01*
X104374345Y-80499857D01*
X104495297Y-80645000D01*
X104555773Y-80862714D01*
X104555773Y-81225571D01*
X104555773Y-78903285D02*
X104555773Y-79774142D01*
X104555773Y-79338714D02*
X103285773Y-79338714D01*
X103467202Y-79483857D01*
X103588154Y-79629000D01*
X103648630Y-79774142D01*
X103830059Y-78032428D02*
X103769583Y-78177571D01*
X103709107Y-78250142D01*
X103588154Y-78322714D01*
X103527678Y-78322714D01*
X103406726Y-78250142D01*
X103346250Y-78177571D01*
X103285773Y-78032428D01*
X103285773Y-77742142D01*
X103346250Y-77597000D01*
X103406726Y-77524428D01*
X103527678Y-77451857D01*
X103588154Y-77451857D01*
X103709107Y-77524428D01*
X103769583Y-77597000D01*
X103830059Y-77742142D01*
X103830059Y-78032428D01*
X103890535Y-78177571D01*
X103951011Y-78250142D01*
X104071964Y-78322714D01*
X104313869Y-78322714D01*
X104434821Y-78250142D01*
X104495297Y-78177571D01*
X104555773Y-78032428D01*
X104555773Y-77742142D01*
X104495297Y-77597000D01*
X104434821Y-77524428D01*
X104313869Y-77451857D01*
X104071964Y-77451857D01*
X103951011Y-77524428D01*
X103890535Y-77597000D01*
X103830059Y-77742142D01*
%TO.C,D17*%
X114080773Y-62334321D02*
X112810773Y-62334321D01*
X112810773Y-61971464D01*
X112871250Y-61753750D01*
X112992202Y-61608607D01*
X113113154Y-61536035D01*
X113355059Y-61463464D01*
X113536488Y-61463464D01*
X113778392Y-61536035D01*
X113899345Y-61608607D01*
X114020297Y-61753750D01*
X114080773Y-61971464D01*
X114080773Y-62334321D01*
X114080773Y-60012035D02*
X114080773Y-60882892D01*
X114080773Y-60447464D02*
X112810773Y-60447464D01*
X112992202Y-60592607D01*
X113113154Y-60737750D01*
X113173630Y-60882892D01*
X112810773Y-59504035D02*
X112810773Y-58488035D01*
X114080773Y-59141178D01*
%TO.C,D16*%
X103762023Y-33441821D02*
X102492023Y-33441821D01*
X102492023Y-33078964D01*
X102552500Y-32861250D01*
X102673452Y-32716107D01*
X102794404Y-32643535D01*
X103036309Y-32570964D01*
X103217738Y-32570964D01*
X103459642Y-32643535D01*
X103580595Y-32716107D01*
X103701547Y-32861250D01*
X103762023Y-33078964D01*
X103762023Y-33441821D01*
X103762023Y-31119535D02*
X103762023Y-31990392D01*
X103762023Y-31554964D02*
X102492023Y-31554964D01*
X102673452Y-31700107D01*
X102794404Y-31845250D01*
X102854880Y-31990392D01*
X102492023Y-29813250D02*
X102492023Y-30103535D01*
X102552500Y-30248678D01*
X102612976Y-30321250D01*
X102794404Y-30466392D01*
X103036309Y-30538964D01*
X103520119Y-30538964D01*
X103641071Y-30466392D01*
X103701547Y-30393821D01*
X103762023Y-30248678D01*
X103762023Y-29958392D01*
X103701547Y-29813250D01*
X103641071Y-29740678D01*
X103520119Y-29668107D01*
X103217738Y-29668107D01*
X103096785Y-29740678D01*
X103036309Y-29813250D01*
X102975833Y-29958392D01*
X102975833Y-30248678D01*
X103036309Y-30393821D01*
X103096785Y-30466392D01*
X103217738Y-30538964D01*
%TO.C,D15*%
X101380773Y-114404321D02*
X100110773Y-114404321D01*
X100110773Y-114041464D01*
X100171250Y-113823750D01*
X100292202Y-113678607D01*
X100413154Y-113606035D01*
X100655059Y-113533464D01*
X100836488Y-113533464D01*
X101078392Y-113606035D01*
X101199345Y-113678607D01*
X101320297Y-113823750D01*
X101380773Y-114041464D01*
X101380773Y-114404321D01*
X101380773Y-112082035D02*
X101380773Y-112952892D01*
X101380773Y-112517464D02*
X100110773Y-112517464D01*
X100292202Y-112662607D01*
X100413154Y-112807750D01*
X100473630Y-112952892D01*
X100110773Y-110703178D02*
X100110773Y-111428892D01*
X100715535Y-111501464D01*
X100655059Y-111428892D01*
X100594583Y-111283750D01*
X100594583Y-110920892D01*
X100655059Y-110775750D01*
X100715535Y-110703178D01*
X100836488Y-110630607D01*
X101138869Y-110630607D01*
X101259821Y-110703178D01*
X101320297Y-110775750D01*
X101380773Y-110920892D01*
X101380773Y-111283750D01*
X101320297Y-111428892D01*
X101259821Y-111501464D01*
%TO.C,D14*%
X91062023Y-95513071D02*
X89792023Y-95513071D01*
X89792023Y-95150214D01*
X89852500Y-94932500D01*
X89973452Y-94787357D01*
X90094404Y-94714785D01*
X90336309Y-94642214D01*
X90517738Y-94642214D01*
X90759642Y-94714785D01*
X90880595Y-94787357D01*
X91001547Y-94932500D01*
X91062023Y-95150214D01*
X91062023Y-95513071D01*
X91062023Y-93190785D02*
X91062023Y-94061642D01*
X91062023Y-93626214D02*
X89792023Y-93626214D01*
X89973452Y-93771357D01*
X90094404Y-93916500D01*
X90154880Y-94061642D01*
X90215357Y-91884500D02*
X91062023Y-91884500D01*
X89731547Y-92247357D02*
X90638690Y-92610214D01*
X90638690Y-91666785D01*
%TO.C,D13*%
X83124523Y-81384321D02*
X81854523Y-81384321D01*
X81854523Y-81021464D01*
X81915000Y-80803750D01*
X82035952Y-80658607D01*
X82156904Y-80586035D01*
X82398809Y-80513464D01*
X82580238Y-80513464D01*
X82822142Y-80586035D01*
X82943095Y-80658607D01*
X83064047Y-80803750D01*
X83124523Y-81021464D01*
X83124523Y-81384321D01*
X83124523Y-79062035D02*
X83124523Y-79932892D01*
X83124523Y-79497464D02*
X81854523Y-79497464D01*
X82035952Y-79642607D01*
X82156904Y-79787750D01*
X82217380Y-79932892D01*
X81854523Y-78554035D02*
X81854523Y-77610607D01*
X82338333Y-78118607D01*
X82338333Y-77900892D01*
X82398809Y-77755750D01*
X82459285Y-77683178D01*
X82580238Y-77610607D01*
X82882619Y-77610607D01*
X83003571Y-77683178D01*
X83064047Y-77755750D01*
X83124523Y-77900892D01*
X83124523Y-78336321D01*
X83064047Y-78481464D01*
X83003571Y-78554035D01*
%TO.C,D12*%
X95030773Y-62334321D02*
X93760773Y-62334321D01*
X93760773Y-61971464D01*
X93821250Y-61753750D01*
X93942202Y-61608607D01*
X94063154Y-61536035D01*
X94305059Y-61463464D01*
X94486488Y-61463464D01*
X94728392Y-61536035D01*
X94849345Y-61608607D01*
X94970297Y-61753750D01*
X95030773Y-61971464D01*
X95030773Y-62334321D01*
X95030773Y-60012035D02*
X95030773Y-60882892D01*
X95030773Y-60447464D02*
X93760773Y-60447464D01*
X93942202Y-60592607D01*
X94063154Y-60737750D01*
X94123630Y-60882892D01*
X93881726Y-59431464D02*
X93821250Y-59358892D01*
X93760773Y-59213750D01*
X93760773Y-58850892D01*
X93821250Y-58705750D01*
X93881726Y-58633178D01*
X94002678Y-58560607D01*
X94123630Y-58560607D01*
X94305059Y-58633178D01*
X95030773Y-59504035D01*
X95030773Y-58560607D01*
%TO.C,D11*%
X84712023Y-32965571D02*
X83442023Y-32965571D01*
X83442023Y-32602714D01*
X83502500Y-32385000D01*
X83623452Y-32239857D01*
X83744404Y-32167285D01*
X83986309Y-32094714D01*
X84167738Y-32094714D01*
X84409642Y-32167285D01*
X84530595Y-32239857D01*
X84651547Y-32385000D01*
X84712023Y-32602714D01*
X84712023Y-32965571D01*
X84712023Y-30643285D02*
X84712023Y-31514142D01*
X84712023Y-31078714D02*
X83442023Y-31078714D01*
X83623452Y-31223857D01*
X83744404Y-31369000D01*
X83804880Y-31514142D01*
X84712023Y-29191857D02*
X84712023Y-30062714D01*
X84712023Y-29627285D02*
X83442023Y-29627285D01*
X83623452Y-29772428D01*
X83744404Y-29917571D01*
X83804880Y-30062714D01*
%TO.C,D10*%
X82330773Y-114404321D02*
X81060773Y-114404321D01*
X81060773Y-114041464D01*
X81121250Y-113823750D01*
X81242202Y-113678607D01*
X81363154Y-113606035D01*
X81605059Y-113533464D01*
X81786488Y-113533464D01*
X82028392Y-113606035D01*
X82149345Y-113678607D01*
X82270297Y-113823750D01*
X82330773Y-114041464D01*
X82330773Y-114404321D01*
X82330773Y-112082035D02*
X82330773Y-112952892D01*
X82330773Y-112517464D02*
X81060773Y-112517464D01*
X81242202Y-112662607D01*
X81363154Y-112807750D01*
X81423630Y-112952892D01*
X81060773Y-111138607D02*
X81060773Y-110993464D01*
X81121250Y-110848321D01*
X81181726Y-110775750D01*
X81302678Y-110703178D01*
X81544583Y-110630607D01*
X81846964Y-110630607D01*
X82088869Y-110703178D01*
X82209821Y-110775750D01*
X82270297Y-110848321D01*
X82330773Y-110993464D01*
X82330773Y-111138607D01*
X82270297Y-111283750D01*
X82209821Y-111356321D01*
X82088869Y-111428892D01*
X81846964Y-111501464D01*
X81544583Y-111501464D01*
X81302678Y-111428892D01*
X81181726Y-111356321D01*
X81121250Y-111283750D01*
X81060773Y-111138607D01*
%TO.C,D9*%
X72805773Y-94946107D02*
X71535773Y-94946107D01*
X71535773Y-94583250D01*
X71596250Y-94365535D01*
X71717202Y-94220392D01*
X71838154Y-94147821D01*
X72080059Y-94075250D01*
X72261488Y-94075250D01*
X72503392Y-94147821D01*
X72624345Y-94220392D01*
X72745297Y-94365535D01*
X72805773Y-94583250D01*
X72805773Y-94946107D01*
X72805773Y-93349535D02*
X72805773Y-93059250D01*
X72745297Y-92914107D01*
X72684821Y-92841535D01*
X72503392Y-92696392D01*
X72261488Y-92623821D01*
X71777678Y-92623821D01*
X71656726Y-92696392D01*
X71596250Y-92768964D01*
X71535773Y-92914107D01*
X71535773Y-93204392D01*
X71596250Y-93349535D01*
X71656726Y-93422107D01*
X71777678Y-93494678D01*
X72080059Y-93494678D01*
X72201011Y-93422107D01*
X72261488Y-93349535D01*
X72321964Y-93204392D01*
X72321964Y-92914107D01*
X72261488Y-92768964D01*
X72201011Y-92696392D01*
X72080059Y-92623821D01*
%TO.C,D8*%
X66455773Y-80658607D02*
X65185773Y-80658607D01*
X65185773Y-80295750D01*
X65246250Y-80078035D01*
X65367202Y-79932892D01*
X65488154Y-79860321D01*
X65730059Y-79787750D01*
X65911488Y-79787750D01*
X66153392Y-79860321D01*
X66274345Y-79932892D01*
X66395297Y-80078035D01*
X66455773Y-80295750D01*
X66455773Y-80658607D01*
X65730059Y-78916892D02*
X65669583Y-79062035D01*
X65609107Y-79134607D01*
X65488154Y-79207178D01*
X65427678Y-79207178D01*
X65306726Y-79134607D01*
X65246250Y-79062035D01*
X65185773Y-78916892D01*
X65185773Y-78626607D01*
X65246250Y-78481464D01*
X65306726Y-78408892D01*
X65427678Y-78336321D01*
X65488154Y-78336321D01*
X65609107Y-78408892D01*
X65669583Y-78481464D01*
X65730059Y-78626607D01*
X65730059Y-78916892D01*
X65790535Y-79062035D01*
X65851011Y-79134607D01*
X65971964Y-79207178D01*
X66213869Y-79207178D01*
X66334821Y-79134607D01*
X66395297Y-79062035D01*
X66455773Y-78916892D01*
X66455773Y-78626607D01*
X66395297Y-78481464D01*
X66334821Y-78408892D01*
X66213869Y-78336321D01*
X65971964Y-78336321D01*
X65851011Y-78408892D01*
X65790535Y-78481464D01*
X65730059Y-78626607D01*
%TO.C,D7*%
X75584213Y-62085097D02*
X74314213Y-62085097D01*
X74314213Y-61722240D01*
X74374690Y-61504525D01*
X74495642Y-61359382D01*
X74616594Y-61286811D01*
X74858499Y-61214240D01*
X75039928Y-61214240D01*
X75281832Y-61286811D01*
X75402785Y-61359382D01*
X75523737Y-61504525D01*
X75584213Y-61722240D01*
X75584213Y-62085097D01*
X74314213Y-60706240D02*
X74314213Y-59690240D01*
X75584213Y-60343382D01*
%TO.C,D5*%
X63280773Y-113837357D02*
X62010773Y-113837357D01*
X62010773Y-113474500D01*
X62071250Y-113256785D01*
X62192202Y-113111642D01*
X62313154Y-113039071D01*
X62555059Y-112966500D01*
X62736488Y-112966500D01*
X62978392Y-113039071D01*
X63099345Y-113111642D01*
X63220297Y-113256785D01*
X63280773Y-113474500D01*
X63280773Y-113837357D01*
X62010773Y-111587642D02*
X62010773Y-112313357D01*
X62615535Y-112385928D01*
X62555059Y-112313357D01*
X62494583Y-112168214D01*
X62494583Y-111805357D01*
X62555059Y-111660214D01*
X62615535Y-111587642D01*
X62736488Y-111515071D01*
X63038869Y-111515071D01*
X63159821Y-111587642D01*
X63220297Y-111660214D01*
X63280773Y-111805357D01*
X63280773Y-112168214D01*
X63220297Y-112313357D01*
X63159821Y-112385928D01*
%TO.C,D4*%
X52962023Y-94946107D02*
X51692023Y-94946107D01*
X51692023Y-94583250D01*
X51752500Y-94365535D01*
X51873452Y-94220392D01*
X51994404Y-94147821D01*
X52236309Y-94075250D01*
X52417738Y-94075250D01*
X52659642Y-94147821D01*
X52780595Y-94220392D01*
X52901547Y-94365535D01*
X52962023Y-94583250D01*
X52962023Y-94946107D01*
X52115357Y-92768964D02*
X52962023Y-92768964D01*
X51631547Y-93131821D02*
X52538690Y-93494678D01*
X52538690Y-92551250D01*
%TO.C,D3*%
X47405773Y-80658607D02*
X46135773Y-80658607D01*
X46135773Y-80295750D01*
X46196250Y-80078035D01*
X46317202Y-79932892D01*
X46438154Y-79860321D01*
X46680059Y-79787750D01*
X46861488Y-79787750D01*
X47103392Y-79860321D01*
X47224345Y-79932892D01*
X47345297Y-80078035D01*
X47405773Y-80295750D01*
X47405773Y-80658607D01*
X46135773Y-79279750D02*
X46135773Y-78336321D01*
X46619583Y-78844321D01*
X46619583Y-78626607D01*
X46680059Y-78481464D01*
X46740535Y-78408892D01*
X46861488Y-78336321D01*
X47163869Y-78336321D01*
X47284821Y-78408892D01*
X47345297Y-78481464D01*
X47405773Y-78626607D01*
X47405773Y-79062035D01*
X47345297Y-79207178D01*
X47284821Y-79279750D01*
%TO.C,D2*%
X56930773Y-62084857D02*
X55660773Y-62084857D01*
X55660773Y-61722000D01*
X55721250Y-61504285D01*
X55842202Y-61359142D01*
X55963154Y-61286571D01*
X56205059Y-61214000D01*
X56386488Y-61214000D01*
X56628392Y-61286571D01*
X56749345Y-61359142D01*
X56870297Y-61504285D01*
X56930773Y-61722000D01*
X56930773Y-62084857D01*
X55781726Y-60633428D02*
X55721250Y-60560857D01*
X55660773Y-60415714D01*
X55660773Y-60052857D01*
X55721250Y-59907714D01*
X55781726Y-59835142D01*
X55902678Y-59762571D01*
X56023630Y-59762571D01*
X56205059Y-59835142D01*
X56930773Y-60706000D01*
X56930773Y-59762571D01*
%TO.C,D1*%
X46612023Y-32239857D02*
X45342023Y-32239857D01*
X45342023Y-31877000D01*
X45402500Y-31659285D01*
X45523452Y-31514142D01*
X45644404Y-31441571D01*
X45886309Y-31369000D01*
X46067738Y-31369000D01*
X46309642Y-31441571D01*
X46430595Y-31514142D01*
X46551547Y-31659285D01*
X46612023Y-31877000D01*
X46612023Y-32239857D01*
X46612023Y-29917571D02*
X46612023Y-30788428D01*
X46612023Y-30353000D02*
X45342023Y-30353000D01*
X45523452Y-30498142D01*
X45644404Y-30643285D01*
X45704880Y-30788428D01*
%TO.C,D52*%
X114875003Y-141392391D02*
X113605003Y-141392391D01*
X113605003Y-141029534D01*
X113665480Y-140811820D01*
X113786432Y-140666677D01*
X113907384Y-140594105D01*
X114149289Y-140521534D01*
X114330718Y-140521534D01*
X114572622Y-140594105D01*
X114693575Y-140666677D01*
X114814527Y-140811820D01*
X114875003Y-141029534D01*
X114875003Y-141392391D01*
X113605003Y-139142677D02*
X113605003Y-139868391D01*
X114209765Y-139940962D01*
X114149289Y-139868391D01*
X114088813Y-139723248D01*
X114088813Y-139360391D01*
X114149289Y-139215248D01*
X114209765Y-139142677D01*
X114330718Y-139070105D01*
X114633099Y-139070105D01*
X114754051Y-139142677D01*
X114814527Y-139215248D01*
X114875003Y-139360391D01*
X114875003Y-139723248D01*
X114814527Y-139868391D01*
X114754051Y-139940962D01*
X113725956Y-138489534D02*
X113665480Y-138416962D01*
X113605003Y-138271820D01*
X113605003Y-137908962D01*
X113665480Y-137763820D01*
X113725956Y-137691248D01*
X113846908Y-137618677D01*
X113967860Y-137618677D01*
X114149289Y-137691248D01*
X114875003Y-138562105D01*
X114875003Y-137618677D01*
%TO.C,D53*%
X137524422Y-141772221D02*
X136254422Y-141772221D01*
X136254422Y-141409364D01*
X136314899Y-141191650D01*
X136435851Y-141046507D01*
X136556803Y-140973935D01*
X136798708Y-140901364D01*
X136980137Y-140901364D01*
X137222041Y-140973935D01*
X137342994Y-141046507D01*
X137463946Y-141191650D01*
X137524422Y-141409364D01*
X137524422Y-141772221D01*
X136254422Y-139522507D02*
X136254422Y-140248221D01*
X136859184Y-140320792D01*
X136798708Y-140248221D01*
X136738232Y-140103078D01*
X136738232Y-139740221D01*
X136798708Y-139595078D01*
X136859184Y-139522507D01*
X136980137Y-139449935D01*
X137282518Y-139449935D01*
X137403470Y-139522507D01*
X137463946Y-139595078D01*
X137524422Y-139740221D01*
X137524422Y-140103078D01*
X137463946Y-140248221D01*
X137403470Y-140320792D01*
X136254422Y-138941935D02*
X136254422Y-137998507D01*
X136738232Y-138506507D01*
X136738232Y-138288792D01*
X136798708Y-138143650D01*
X136859184Y-138071078D01*
X136980137Y-137998507D01*
X137282518Y-137998507D01*
X137403470Y-138071078D01*
X137463946Y-138143650D01*
X137524422Y-138288792D01*
X137524422Y-138724221D01*
X137463946Y-138869364D01*
X137403470Y-138941935D01*
%TO.C,D54*%
X162500203Y-141392391D02*
X161230203Y-141392391D01*
X161230203Y-141029534D01*
X161290680Y-140811820D01*
X161411632Y-140666677D01*
X161532584Y-140594105D01*
X161774489Y-140521534D01*
X161955918Y-140521534D01*
X162197822Y-140594105D01*
X162318775Y-140666677D01*
X162439727Y-140811820D01*
X162500203Y-141029534D01*
X162500203Y-141392391D01*
X161230203Y-139142677D02*
X161230203Y-139868391D01*
X161834965Y-139940962D01*
X161774489Y-139868391D01*
X161714013Y-139723248D01*
X161714013Y-139360391D01*
X161774489Y-139215248D01*
X161834965Y-139142677D01*
X161955918Y-139070105D01*
X162258299Y-139070105D01*
X162379251Y-139142677D01*
X162439727Y-139215248D01*
X162500203Y-139360391D01*
X162500203Y-139723248D01*
X162439727Y-139868391D01*
X162379251Y-139940962D01*
X161653537Y-137763820D02*
X162500203Y-137763820D01*
X161169727Y-138126677D02*
X162076870Y-138489534D01*
X162076870Y-137546105D01*
%TO.C,D55*%
X194647213Y-145916801D02*
X193377213Y-145916801D01*
X193377213Y-145553944D01*
X193437690Y-145336230D01*
X193558642Y-145191087D01*
X193679594Y-145118515D01*
X193921499Y-145045944D01*
X194102928Y-145045944D01*
X194344832Y-145118515D01*
X194465785Y-145191087D01*
X194586737Y-145336230D01*
X194647213Y-145553944D01*
X194647213Y-145916801D01*
X193377213Y-143667087D02*
X193377213Y-144392801D01*
X193981975Y-144465372D01*
X193921499Y-144392801D01*
X193861023Y-144247658D01*
X193861023Y-143884801D01*
X193921499Y-143739658D01*
X193981975Y-143667087D01*
X194102928Y-143594515D01*
X194405309Y-143594515D01*
X194526261Y-143667087D01*
X194586737Y-143739658D01*
X194647213Y-143884801D01*
X194647213Y-144247658D01*
X194586737Y-144392801D01*
X194526261Y-144465372D01*
X193377213Y-142215658D02*
X193377213Y-142941372D01*
X193981975Y-143013944D01*
X193921499Y-142941372D01*
X193861023Y-142796230D01*
X193861023Y-142433372D01*
X193921499Y-142288230D01*
X193981975Y-142215658D01*
X194102928Y-142143087D01*
X194405309Y-142143087D01*
X194526261Y-142215658D01*
X194586737Y-142288230D01*
X194647213Y-142433372D01*
X194647213Y-142796230D01*
X194586737Y-142941372D01*
X194526261Y-143013944D01*
%TO.C,D56*%
X213697293Y-145678691D02*
X212427293Y-145678691D01*
X212427293Y-145315834D01*
X212487770Y-145098120D01*
X212608722Y-144952977D01*
X212729674Y-144880405D01*
X212971579Y-144807834D01*
X213153008Y-144807834D01*
X213394912Y-144880405D01*
X213515865Y-144952977D01*
X213636817Y-145098120D01*
X213697293Y-145315834D01*
X213697293Y-145678691D01*
X212427293Y-143428977D02*
X212427293Y-144154691D01*
X213032055Y-144227262D01*
X212971579Y-144154691D01*
X212911103Y-144009548D01*
X212911103Y-143646691D01*
X212971579Y-143501548D01*
X213032055Y-143428977D01*
X213153008Y-143356405D01*
X213455389Y-143356405D01*
X213576341Y-143428977D01*
X213636817Y-143501548D01*
X213697293Y-143646691D01*
X213697293Y-144009548D01*
X213636817Y-144154691D01*
X213576341Y-144227262D01*
X212427293Y-142050120D02*
X212427293Y-142340405D01*
X212487770Y-142485548D01*
X212548246Y-142558120D01*
X212729674Y-142703262D01*
X212971579Y-142775834D01*
X213455389Y-142775834D01*
X213576341Y-142703262D01*
X213636817Y-142630691D01*
X213697293Y-142485548D01*
X213697293Y-142195262D01*
X213636817Y-142050120D01*
X213576341Y-141977548D01*
X213455389Y-141904977D01*
X213153008Y-141904977D01*
X213032055Y-141977548D01*
X212971579Y-142050120D01*
X212911103Y-142195262D01*
X212911103Y-142485548D01*
X212971579Y-142630691D01*
X213032055Y-142703262D01*
X213153008Y-142775834D01*
%TO.C,D57*%
X232747373Y-145916801D02*
X231477373Y-145916801D01*
X231477373Y-145553944D01*
X231537850Y-145336230D01*
X231658802Y-145191087D01*
X231779754Y-145118515D01*
X232021659Y-145045944D01*
X232203088Y-145045944D01*
X232444992Y-145118515D01*
X232565945Y-145191087D01*
X232686897Y-145336230D01*
X232747373Y-145553944D01*
X232747373Y-145916801D01*
X231477373Y-143667087D02*
X231477373Y-144392801D01*
X232082135Y-144465372D01*
X232021659Y-144392801D01*
X231961183Y-144247658D01*
X231961183Y-143884801D01*
X232021659Y-143739658D01*
X232082135Y-143667087D01*
X232203088Y-143594515D01*
X232505469Y-143594515D01*
X232626421Y-143667087D01*
X232686897Y-143739658D01*
X232747373Y-143884801D01*
X232747373Y-144247658D01*
X232686897Y-144392801D01*
X232626421Y-144465372D01*
X231477373Y-143086515D02*
X231477373Y-142070515D01*
X232747373Y-142723658D01*
%TD*%
M02*
