M48
; DRILL file {KiCad (5.1.9)-1} date 04/06/21 00:29:59
; FORMAT={-:-/ absolute / inch / decimal}
; #@! TF.CreationDate,2021-04-06T00:29:59+03:00
; #@! TF.GenerationSoftware,Kicad,Pcbnew,(5.1.9)-1
; #@! TF.FileFunction,NonPlated,1,2,NPTH
FMAT,2
INCH
T1C0.0315
T2C0.0689
T3C0.1200
T4C0.1260
T5C0.1570
%
G90
G05
T1
X0.375Y-2.313
X0.375Y-2.5886
T2
X2.0031Y-1.3125
X2.0031Y-3.1875
X2.1906Y-3.9375
X2.3781Y-2.4375
X2.4031Y-1.3125
X2.4031Y-3.1875
X2.5656Y-4.6875
X2.5906Y-3.9375
X2.7531Y-1.3125
X2.7531Y-3.1875
X2.7781Y-2.4375
X2.9406Y-3.9375
X2.9656Y-4.6875
X3.1281Y-2.4375
X3.1531Y-1.3125
X3.1531Y-3.1875
X3.2219Y-5.4375
X3.3156Y-4.6875
X3.3406Y-3.9375
X3.5031Y-1.3125
X3.5031Y-3.1875
X3.5281Y-2.4375
X3.6219Y-5.4375
X3.6906Y-3.9375
X3.7156Y-4.6875
X3.8781Y-2.4375
X3.9031Y-1.3125
X3.9031Y-3.1875
X4.0656Y-4.6875
X4.0906Y-3.9375
X4.2531Y-1.3125
X4.2531Y-3.1875
X4.2781Y-2.4375
X4.4406Y-3.9375
X4.4656Y-4.6875
X4.6281Y-2.4375
X4.6531Y-1.3125
X4.6531Y-3.1875
X4.7219Y-5.4375
X4.8156Y-4.6875
X4.8406Y-3.9375
X5.0031Y-3.1875
X5.0281Y-2.4375
X5.1219Y-5.4375
X5.1906Y-3.9375
X5.2156Y-4.6875
X5.3781Y-1.3125
X5.3781Y-2.4375
X5.4031Y-3.1875
X5.5656Y-4.6875
X5.5906Y-3.9375
X5.6594Y-5.4375
X5.7531Y-3.1875
X5.7781Y-1.3125
X5.7781Y-2.4375
X5.9407Y-3.9375
X5.9656Y-4.6875
X6.0594Y-5.4375
X6.1282Y-1.3125
X6.1282Y-2.4375
X6.1532Y-3.1875
X6.3407Y-3.9375
X6.5032Y-3.1875
X6.5282Y-1.3125
X6.5282Y-2.4375
X6.5969Y-5.4375
X6.6907Y-3.9375
X6.8782Y-1.3125
X6.9032Y-3.1875
X6.9719Y-4.6875
X6.9969Y-5.4375
X7.0907Y-3.9375
X7.2532Y-2.4375
X7.2782Y-1.3125
X7.3719Y-4.6875
X7.6282Y-1.3125
X7.6532Y-2.4375
X7.7344Y-3.3625
X7.7344Y-3.7625
X7.8157Y-5.625
X8.0282Y-1.3125
X8.2157Y-5.625
X8.5657Y-1.3125
X8.5657Y-2.4375
X8.5657Y-3.1875
X8.5657Y-4.875
X8.5657Y-5.625
X8.9657Y-1.3125
X8.9657Y-2.4375
X8.9657Y-3.1875
X8.9657Y-4.875
X8.9657Y-5.625
X9.3154Y-1.3125
X9.3154Y-5.6249
X9.3157Y-2.4375
X9.3157Y-3.1875
X9.7154Y-1.3125
X9.7154Y-5.6249
X9.7157Y-2.4375
X9.7157Y-3.1875
T3
X2.9531Y-5.1625
X3.8906Y-5.1625
X6.7032Y-4.4125
X6.9844Y-2.1625
X7.6407Y-4.4125
X7.9219Y-2.1625
X8.0094Y-3.0925
X8.0094Y-4.0325
T4
X0.4062Y-3.9062
X1.9062Y-2.2188
X2.1875Y-5.9062
X2.5938Y-1.875
X5.0312Y-1.4688
X5.875Y-6.1562
X8.2188Y-1.0
X8.7188Y-4.0312
X9.8125Y-1.8125
X9.8125Y-5.9688
T5
X2.2031Y-1.3125
X2.2031Y-3.1875
X2.3906Y-3.9375
X2.5781Y-2.4375
X2.7656Y-4.6875
X2.9531Y-1.3125
X2.9531Y-3.1875
X2.9531Y-5.7625
X3.1406Y-3.9375
X3.3281Y-2.4375
X3.4219Y-5.4375
X3.5156Y-4.6875
X3.7031Y-1.3125
X3.7031Y-3.1875
X3.8906Y-5.7625
X3.8906Y-3.9375
X4.0781Y-2.4375
X4.2656Y-4.6875
X4.4531Y-1.3125
X4.4531Y-3.1875
X4.6406Y-3.9375
X4.8281Y-2.4375
X4.9219Y-5.4375
X5.0156Y-4.6875
X5.2031Y-3.1875
X5.3906Y-3.9375
X5.5781Y-1.3125
X5.5781Y-2.4375
X5.7656Y-4.6875
X5.8594Y-5.4375
X5.9531Y-3.1875
X6.1407Y-3.9375
X6.3282Y-1.3125
X6.3282Y-2.4375
X6.7032Y-3.1875
X6.7032Y-5.0125
X6.7969Y-5.4375
X6.8907Y-3.9375
X6.9844Y-2.7625
X7.0782Y-1.3125
X7.1719Y-4.6875
X7.4094Y-3.0925
X7.4094Y-4.0325
X7.4532Y-2.4375
X7.6407Y-5.0125
X7.7344Y-3.5625
X7.8282Y-1.3125
X7.9219Y-2.7625
X8.0157Y-5.625
X8.7657Y-1.3125
X8.7657Y-2.4375
X8.7657Y-3.1875
X8.7657Y-4.875
X8.7657Y-5.625
X9.5154Y-1.3125
X9.5154Y-5.6249
X9.5157Y-2.4375
X9.5157Y-3.1875
T0
M30
