%TF.GenerationSoftware,KiCad,Pcbnew,(5.1.9)-1*%
%TF.CreationDate,2021-04-06T00:29:57+03:00*%
%TF.ProjectId,SplitHside2,53706c69-7448-4736-9964-65322e6b6963,rev?*%
%TF.SameCoordinates,Original*%
%TF.FileFunction,Copper,L1,Top*%
%TF.FilePolarity,Positive*%
%FSLAX46Y46*%
G04 Gerber Fmt 4.6, Leading zero omitted, Abs format (unit mm)*
G04 Created by KiCad (PCBNEW (5.1.9)-1) date 2021-04-06 00:29:57*
%MOMM*%
%LPD*%
G01*
G04 APERTURE LIST*
%TA.AperFunction,ComponentPad*%
%ADD10C,2.250000*%
%TD*%
%TA.AperFunction,ComponentPad*%
%ADD11C,1.651000*%
%TD*%
%TA.AperFunction,ComponentPad*%
%ADD12R,1.651000X1.651000*%
%TD*%
%TA.AperFunction,ComponentPad*%
%ADD13C,1.752600*%
%TD*%
%TA.AperFunction,ComponentPad*%
%ADD14R,1.752600X1.752600*%
%TD*%
%TA.AperFunction,ComponentPad*%
%ADD15O,1.600000X2.000000*%
%TD*%
%TA.AperFunction,Conductor*%
%ADD16C,0.250000*%
%TD*%
G04 APERTURE END LIST*
D10*
%TO.P,SW57,2*%
%TO.N,D2*%
X244231800Y-137792000D03*
%TO.P,SW57,1*%
%TO.N,Net-(D57-Pad1)*%
X237881800Y-140332000D03*
%TD*%
%TO.P,SW46,2*%
%TO.N,E6*%
X244231800Y-28257500D03*
%TO.P,SW46,1*%
%TO.N,Net-(D46-Pad1)*%
X237881800Y-30797500D03*
%TD*%
%TO.P,SW35,2*%
%TO.N,D2*%
X225187810Y-118745520D03*
%TO.P,SW35,1*%
%TO.N,Net-(D35-Pad1)*%
X218837810Y-121285520D03*
%TD*%
D11*
%TO.P,R2,2*%
%TO.N,D1*%
X18256250Y-70961250D03*
%TO.P,R2,1*%
%TO.N,/Sheet60DDDDC8/3*%
X18256250Y-60801250D03*
%TD*%
%TO.P,R1,2*%
%TO.N,D0*%
X15875000Y-72548750D03*
%TO.P,R1,1*%
%TO.N,/Sheet60DDDDC8/2*%
X15875000Y-62388750D03*
%TD*%
D10*
%TO.P,SW14,2*%
%TO.N,F6*%
X101362290Y-94932920D03*
%TO.P,SW14,1*%
%TO.N,Net-(D14-Pad1)*%
X95012290Y-97472920D03*
%TD*%
%TO.P,SW13,2*%
%TO.N,F6*%
X96599770Y-75882840D03*
%TO.P,SW13,1*%
%TO.N,Net-(D13-Pad1)*%
X90249770Y-78422840D03*
%TD*%
%TO.P,SW54,2*%
%TO.N,D7*%
X175181350Y-133033080D03*
%TO.P,SW54,1*%
%TO.N,Net-(D54-Pad1)*%
X168831350Y-135573080D03*
%TD*%
%TO.P,SW55,1*%
%TO.N,Net-(D55-Pad1)*%
X199787730Y-140335600D03*
%TO.P,SW55,2*%
%TO.N,C6*%
X206137730Y-137795600D03*
%TD*%
%TO.P,SW56,2*%
%TO.N,D4*%
X225187810Y-137795600D03*
%TO.P,SW56,1*%
%TO.N,Net-(D56-Pad1)*%
X218837810Y-140335600D03*
%TD*%
%TO.P,SW51,2*%
%TO.N,B5*%
X89455990Y-133033080D03*
%TO.P,SW51,1*%
%TO.N,Net-(D51-Pad1)*%
X83105990Y-135573080D03*
%TD*%
D12*
%TO.P,D51,2*%
%TO.N,F5*%
X69056540Y-143351820D03*
D11*
%TO.P,D51,1*%
%TO.N,Net-(D51-Pad1)*%
X69056540Y-135731820D03*
%TD*%
D13*
%TO.P,J1,24*%
%TO.N,RAW*%
X37385750Y-61039690D03*
%TO.P,J1,12*%
%TO.N,B5*%
X22145750Y-88979690D03*
%TO.P,J1,23*%
%TO.N,GND*%
X37385750Y-63579690D03*
%TO.P,J1,22*%
%TO.N,RESET*%
X37385750Y-66119690D03*
%TO.P,J1,21*%
%TO.N,VCC*%
X37385750Y-68659690D03*
%TO.P,J1,20*%
%TO.N,F4*%
X37385750Y-71199690D03*
%TO.P,J1,19*%
%TO.N,F5*%
X37385750Y-73739690D03*
%TO.P,J1,18*%
%TO.N,F6*%
X37385750Y-76279690D03*
%TO.P,J1,17*%
%TO.N,F7*%
X37385750Y-78819690D03*
%TO.P,J1,16*%
%TO.N,B1*%
X37385750Y-81359690D03*
%TO.P,J1,15*%
%TO.N,B3*%
X37385750Y-83899690D03*
%TO.P,J1,14*%
%TO.N,B2*%
X37385750Y-86439690D03*
%TO.P,J1,13*%
%TO.N,B6*%
X37385750Y-88979690D03*
%TO.P,J1,11*%
%TO.N,B4*%
X22145750Y-86439690D03*
%TO.P,J1,10*%
%TO.N,E6*%
X22145750Y-83899690D03*
%TO.P,J1,9*%
%TO.N,D7*%
X22145750Y-81359690D03*
%TO.P,J1,8*%
%TO.N,C6*%
X22145750Y-78819690D03*
%TO.P,J1,7*%
%TO.N,D4*%
X22145750Y-76279690D03*
%TO.P,J1,6*%
%TO.N,D0*%
X22145750Y-73739690D03*
%TO.P,J1,5*%
%TO.N,D1*%
X22145750Y-71199690D03*
%TO.P,J1,4*%
%TO.N,GND*%
X22145750Y-68659690D03*
%TO.P,J1,3*%
X22145750Y-66119690D03*
%TO.P,J1,2*%
%TO.N,D2*%
X22145750Y-63579690D03*
D14*
%TO.P,J1,1*%
%TO.N,D3*%
X22145750Y-61039690D03*
%TD*%
D10*
%TO.P,SW8,2*%
%TO.N,B4*%
X77549690Y-75882840D03*
%TO.P,SW8,1*%
%TO.N,Net-(D8-Pad1)*%
X71199690Y-78422840D03*
%TD*%
%TO.P,SW10,2*%
%TO.N,B4*%
X91837250Y-113983000D03*
%TO.P,SW10,1*%
%TO.N,Net-(D10-Pad1)*%
X85487250Y-116523000D03*
%TD*%
%TO.P,SW3,2*%
%TO.N,B5*%
X58499610Y-75882840D03*
%TO.P,SW3,1*%
%TO.N,Net-(D3-Pad1)*%
X52149610Y-78422840D03*
%TD*%
%TO.P,SW4,2*%
%TO.N,B5*%
X63262130Y-94932920D03*
%TO.P,SW4,1*%
%TO.N,Net-(D4-Pad1)*%
X56912130Y-97472920D03*
%TD*%
%TO.P,SW53,2*%
%TO.N,F6*%
X151368750Y-133033080D03*
%TO.P,SW53,1*%
%TO.N,Net-(D53-Pad1)*%
X145018750Y-135573080D03*
%TD*%
%TO.P,SW52,2*%
%TO.N,B4*%
X127556150Y-133033080D03*
%TO.P,SW52,1*%
%TO.N,Net-(D52-Pad1)*%
X121206150Y-135573080D03*
%TD*%
%TO.P,SW37,1*%
%TO.N,Net-(D37-Pad1)*%
X198993950Y-86677880D03*
%TO.P,SW37,2*%
%TO.N,D3*%
X201533950Y-93027880D03*
%TD*%
%TO.P,SW32,2*%
%TO.N,D2*%
X191850170Y-56832760D03*
%TO.P,SW32,1*%
%TO.N,Net-(D32-Pad1)*%
X185500170Y-59372760D03*
%TD*%
%TO.P,SW30,2*%
%TO.N,D4*%
X184706390Y-113983000D03*
%TO.P,SW30,1*%
%TO.N,Net-(D30-Pad1)*%
X178356390Y-116523000D03*
%TD*%
%TO.P,SW42,2*%
%TO.N,F4*%
X225187810Y-56832760D03*
%TO.P,SW42,1*%
%TO.N,Net-(D42-Pad1)*%
X218837810Y-59372760D03*
%TD*%
%TO.P,SW41,2*%
%TO.N,F4*%
X225187810Y-28257640D03*
%TO.P,SW41,1*%
%TO.N,Net-(D41-Pad1)*%
X218837810Y-30797640D03*
%TD*%
%TO.P,SW38,2*%
%TO.N,D3*%
X225187810Y-75882840D03*
%TO.P,SW38,1*%
%TO.N,Net-(D38-Pad1)*%
X218837810Y-78422840D03*
%TD*%
%TO.P,SW33,2*%
%TO.N,D2*%
X172800090Y-75882840D03*
%TO.P,SW33,1*%
%TO.N,Net-(D33-Pad1)*%
X166450090Y-78422840D03*
%TD*%
%TO.P,SW27,2*%
%TO.N,D4*%
X163275050Y-56832760D03*
%TO.P,SW27,1*%
%TO.N,Net-(D27-Pad1)*%
X156925050Y-59372760D03*
%TD*%
%TO.P,SW12,2*%
%TO.N,F6*%
X106124810Y-56832760D03*
%TO.P,SW12,1*%
%TO.N,Net-(D12-Pad1)*%
X99774810Y-59372760D03*
%TD*%
%TO.P,SW6,2*%
%TO.N,B4*%
X77549690Y-28257640D03*
%TO.P,SW6,1*%
%TO.N,Net-(D6-Pad1)*%
X71199690Y-30797640D03*
%TD*%
D12*
%TO.P,D6,2*%
%TO.N,B6*%
X64293750Y-34766250D03*
D11*
%TO.P,D6,1*%
%TO.N,Net-(D6-Pad1)*%
X64293750Y-27146250D03*
%TD*%
D10*
%TO.P,SW47,2*%
%TO.N,E6*%
X244237890Y-56832760D03*
%TO.P,SW47,1*%
%TO.N,Net-(D47-Pad1)*%
X237887890Y-59372760D03*
%TD*%
%TO.P,SW43,2*%
%TO.N,F4*%
X244237890Y-75882840D03*
%TO.P,SW43,1*%
%TO.N,Net-(D43-Pad1)*%
X237887890Y-78422840D03*
%TD*%
%TO.P,SW36,2*%
%TO.N,D3*%
X201375210Y-28257640D03*
%TO.P,SW36,1*%
%TO.N,Net-(D36-Pad1)*%
X195025210Y-30797640D03*
%TD*%
%TO.P,SW34,2*%
%TO.N,D2*%
X177562610Y-94932920D03*
%TO.P,SW34,1*%
%TO.N,Net-(D34-Pad1)*%
X171212610Y-97472920D03*
%TD*%
%TO.P,SW31,2*%
%TO.N,D2*%
X182325130Y-28257640D03*
%TO.P,SW31,1*%
%TO.N,Net-(D31-Pad1)*%
X175975130Y-30797640D03*
%TD*%
%TO.P,SW29,2*%
%TO.N,D4*%
X158512530Y-94932920D03*
%TO.P,SW29,1*%
%TO.N,Net-(D29-Pad1)*%
X152162530Y-97472920D03*
%TD*%
%TO.P,SW28,2*%
%TO.N,D4*%
X153750010Y-75882840D03*
%TO.P,SW28,1*%
%TO.N,Net-(D28-Pad1)*%
X147400010Y-78422840D03*
%TD*%
%TO.P,SW26,2*%
%TO.N,D4*%
X163275050Y-28257640D03*
%TO.P,SW26,1*%
%TO.N,Net-(D26-Pad1)*%
X156925050Y-30797640D03*
%TD*%
%TO.P,SW25,2*%
%TO.N,C6*%
X148987490Y-113983000D03*
%TO.P,SW25,1*%
%TO.N,Net-(D25-Pad1)*%
X142637490Y-116523000D03*
%TD*%
%TO.P,SW24,2*%
%TO.N,C6*%
X139462450Y-94932920D03*
%TO.P,SW24,1*%
%TO.N,Net-(D24-Pad1)*%
X133112450Y-97472920D03*
%TD*%
%TO.P,SW23,2*%
%TO.N,C6*%
X134699930Y-75882840D03*
%TO.P,SW23,1*%
%TO.N,Net-(D23-Pad1)*%
X128349930Y-78422840D03*
%TD*%
%TO.P,SW22,2*%
%TO.N,C6*%
X144224970Y-56832760D03*
%TO.P,SW22,1*%
%TO.N,Net-(D22-Pad1)*%
X137874970Y-59372760D03*
%TD*%
%TO.P,SW21,2*%
%TO.N,C6*%
X144224970Y-28257640D03*
%TO.P,SW21,1*%
%TO.N,Net-(D21-Pad1)*%
X137874970Y-30797640D03*
%TD*%
%TO.P,SW20,2*%
%TO.N,D7*%
X129937410Y-113983000D03*
%TO.P,SW20,1*%
%TO.N,Net-(D20-Pad1)*%
X123587410Y-116523000D03*
%TD*%
%TO.P,SW19,2*%
%TO.N,D7*%
X120412370Y-94932920D03*
%TO.P,SW19,1*%
%TO.N,Net-(D19-Pad1)*%
X114062370Y-97472920D03*
%TD*%
%TO.P,SW18,2*%
%TO.N,D7*%
X115649850Y-75882840D03*
%TO.P,SW18,1*%
%TO.N,Net-(D18-Pad1)*%
X109299850Y-78422840D03*
%TD*%
%TO.P,SW17,2*%
%TO.N,D7*%
X125174890Y-56832760D03*
%TO.P,SW17,1*%
%TO.N,Net-(D17-Pad1)*%
X118824890Y-59372760D03*
%TD*%
%TO.P,SW16,2*%
%TO.N,D7*%
X115649850Y-28257640D03*
%TO.P,SW16,1*%
%TO.N,Net-(D16-Pad1)*%
X109299850Y-30797640D03*
%TD*%
%TO.P,SW15,2*%
%TO.N,F6*%
X110887330Y-113983000D03*
%TO.P,SW15,1*%
%TO.N,Net-(D15-Pad1)*%
X104537330Y-116523000D03*
%TD*%
%TO.P,SW11,2*%
%TO.N,F6*%
X96599770Y-28257640D03*
%TO.P,SW11,1*%
%TO.N,Net-(D11-Pad1)*%
X90249770Y-30797640D03*
%TD*%
%TO.P,SW9,2*%
%TO.N,B4*%
X82312210Y-94932920D03*
%TO.P,SW9,1*%
%TO.N,Net-(D9-Pad1)*%
X75962210Y-97472920D03*
%TD*%
%TO.P,SW7,2*%
%TO.N,B4*%
X87074730Y-56832500D03*
%TO.P,SW7,1*%
%TO.N,Net-(D7-Pad1)*%
X80724730Y-59372500D03*
%TD*%
%TO.P,SW5,2*%
%TO.N,B5*%
X72787170Y-113983000D03*
%TO.P,SW5,1*%
%TO.N,Net-(D5-Pad1)*%
X66437170Y-116523000D03*
%TD*%
%TO.P,SW2,2*%
%TO.N,B5*%
X68024650Y-56832760D03*
%TO.P,SW2,1*%
%TO.N,Net-(D2-Pad1)*%
X61674650Y-59372760D03*
%TD*%
%TO.P,SW1,2*%
%TO.N,B5*%
X58499610Y-28257640D03*
%TO.P,SW1,1*%
%TO.N,Net-(D1-Pad1)*%
X52149610Y-30797640D03*
%TD*%
D12*
%TO.P,D47,2*%
%TO.N,B2*%
X232568750Y-63341250D03*
D11*
%TO.P,D47,1*%
%TO.N,Net-(D47-Pad1)*%
X232568750Y-55721250D03*
%TD*%
D12*
%TO.P,D46,2*%
%TO.N,B6*%
X231775000Y-37941250D03*
D11*
%TO.P,D46,1*%
%TO.N,Net-(D46-Pad1)*%
X231775000Y-30321250D03*
%TD*%
D12*
%TO.P,D43,2*%
%TO.N,B3*%
X231775000Y-82391250D03*
D11*
%TO.P,D43,1*%
%TO.N,Net-(D43-Pad1)*%
X231775000Y-74771250D03*
%TD*%
D12*
%TO.P,D42,2*%
%TO.N,B2*%
X212725000Y-63500000D03*
D11*
%TO.P,D42,1*%
%TO.N,Net-(D42-Pad1)*%
X212725000Y-55880000D03*
%TD*%
D12*
%TO.P,D41,2*%
%TO.N,B6*%
X211931250Y-38100000D03*
D11*
%TO.P,D41,1*%
%TO.N,Net-(D41-Pad1)*%
X211931250Y-30480000D03*
%TD*%
D12*
%TO.P,D38,2*%
%TO.N,B3*%
X211137500Y-82550000D03*
D11*
%TO.P,D38,1*%
%TO.N,Net-(D38-Pad1)*%
X211137500Y-74930000D03*
%TD*%
D12*
%TO.P,D37,2*%
%TO.N,B2*%
X207169620Y-94535990D03*
D11*
%TO.P,D37,1*%
%TO.N,Net-(D37-Pad1)*%
X207169620Y-86915990D03*
%TD*%
D12*
%TO.P,D36,2*%
%TO.N,B6*%
X189706250Y-35718750D03*
D11*
%TO.P,D36,1*%
%TO.N,Net-(D36-Pad1)*%
X189706250Y-28098750D03*
%TD*%
D12*
%TO.P,D35,2*%
%TO.N,F7*%
X212725000Y-113665000D03*
D11*
%TO.P,D35,1*%
%TO.N,Net-(D35-Pad1)*%
X212725000Y-121285000D03*
%TD*%
D12*
%TO.P,D34,2*%
%TO.N,B1*%
X166687500Y-89693750D03*
D11*
%TO.P,D34,1*%
%TO.N,Net-(D34-Pad1)*%
X166687500Y-97313750D03*
%TD*%
D12*
%TO.P,D33,2*%
%TO.N,B3*%
X161131250Y-83185000D03*
D11*
%TO.P,D33,1*%
%TO.N,Net-(D33-Pad1)*%
X161131250Y-75565000D03*
%TD*%
D12*
%TO.P,D32,2*%
%TO.N,B2*%
X173037500Y-64770240D03*
D11*
%TO.P,D32,1*%
%TO.N,Net-(D32-Pad1)*%
X173037500Y-57150240D03*
%TD*%
D12*
%TO.P,D31,2*%
%TO.N,B6*%
X169862500Y-35401250D03*
D11*
%TO.P,D31,1*%
%TO.N,Net-(D31-Pad1)*%
X169862500Y-27781250D03*
%TD*%
D12*
%TO.P,D30,2*%
%TO.N,F7*%
X164306250Y-109061250D03*
D11*
%TO.P,D30,1*%
%TO.N,Net-(D30-Pad1)*%
X164306250Y-116681250D03*
%TD*%
D12*
%TO.P,D29,2*%
%TO.N,B1*%
X148431250Y-89852500D03*
D11*
%TO.P,D29,1*%
%TO.N,Net-(D29-Pad1)*%
X148431250Y-97472500D03*
%TD*%
D12*
%TO.P,D28,2*%
%TO.N,B3*%
X142081250Y-83343750D03*
D11*
%TO.P,D28,1*%
%TO.N,Net-(D28-Pad1)*%
X142081250Y-75723750D03*
%TD*%
D12*
%TO.P,D27,2*%
%TO.N,B2*%
X151606250Y-64293750D03*
D11*
%TO.P,D27,1*%
%TO.N,Net-(D27-Pad1)*%
X151606250Y-56673750D03*
%TD*%
D12*
%TO.P,D26,2*%
%TO.N,B6*%
X150018750Y-35560000D03*
D11*
%TO.P,D26,1*%
%TO.N,Net-(D26-Pad1)*%
X150018750Y-27940000D03*
%TD*%
D12*
%TO.P,D25,2*%
%TO.N,F7*%
X138906250Y-108743750D03*
D11*
%TO.P,D25,1*%
%TO.N,Net-(D25-Pad1)*%
X138906250Y-116363750D03*
%TD*%
D12*
%TO.P,D24,2*%
%TO.N,B1*%
X127793750Y-89693750D03*
D11*
%TO.P,D24,1*%
%TO.N,Net-(D24-Pad1)*%
X127793750Y-97313750D03*
%TD*%
D12*
%TO.P,D23,2*%
%TO.N,B3*%
X122237500Y-83343750D03*
D11*
%TO.P,D23,1*%
%TO.N,Net-(D23-Pad1)*%
X122237500Y-75723750D03*
%TD*%
D12*
%TO.P,D22,2*%
%TO.N,B2*%
X132556250Y-64293750D03*
D11*
%TO.P,D22,1*%
%TO.N,Net-(D22-Pad1)*%
X132556250Y-56673750D03*
%TD*%
D12*
%TO.P,D21,2*%
%TO.N,B6*%
X133350000Y-35401250D03*
D11*
%TO.P,D21,1*%
%TO.N,Net-(D21-Pad1)*%
X133350000Y-27781250D03*
%TD*%
D12*
%TO.P,D20,2*%
%TO.N,F7*%
X119856250Y-108743750D03*
D11*
%TO.P,D20,1*%
%TO.N,Net-(D20-Pad1)*%
X119856250Y-116363750D03*
%TD*%
D12*
%TO.P,D19,2*%
%TO.N,B1*%
X109537500Y-89852500D03*
D11*
%TO.P,D19,1*%
%TO.N,Net-(D19-Pad1)*%
X109537500Y-97472500D03*
%TD*%
D12*
%TO.P,D18,2*%
%TO.N,B3*%
X103981250Y-83185000D03*
D11*
%TO.P,D18,1*%
%TO.N,Net-(D18-Pad1)*%
X103981250Y-75565000D03*
%TD*%
D12*
%TO.P,D17,2*%
%TO.N,B2*%
X113506250Y-64293750D03*
D11*
%TO.P,D17,1*%
%TO.N,Net-(D17-Pad1)*%
X113506250Y-56673750D03*
%TD*%
D12*
%TO.P,D16,2*%
%TO.N,B6*%
X103187500Y-35401250D03*
D11*
%TO.P,D16,1*%
%TO.N,Net-(D16-Pad1)*%
X103187500Y-27781250D03*
%TD*%
D12*
%TO.P,D15,2*%
%TO.N,F7*%
X100806250Y-108743750D03*
D11*
%TO.P,D15,1*%
%TO.N,Net-(D15-Pad1)*%
X100806250Y-116363750D03*
%TD*%
D12*
%TO.P,D14,2*%
%TO.N,B1*%
X90487500Y-89852500D03*
D11*
%TO.P,D14,1*%
%TO.N,Net-(D14-Pad1)*%
X90487500Y-97472500D03*
%TD*%
D12*
%TO.P,D13,2*%
%TO.N,B3*%
X82550000Y-83343750D03*
D11*
%TO.P,D13,1*%
%TO.N,Net-(D13-Pad1)*%
X82550000Y-75723750D03*
%TD*%
D12*
%TO.P,D12,2*%
%TO.N,B2*%
X94456250Y-64293750D03*
D11*
%TO.P,D12,1*%
%TO.N,Net-(D12-Pad1)*%
X94456250Y-56673750D03*
%TD*%
D12*
%TO.P,D11,2*%
%TO.N,B6*%
X84137500Y-34925000D03*
D11*
%TO.P,D11,1*%
%TO.N,Net-(D11-Pad1)*%
X84137500Y-27305000D03*
%TD*%
D12*
%TO.P,D10,2*%
%TO.N,F7*%
X81756250Y-108743750D03*
D11*
%TO.P,D10,1*%
%TO.N,Net-(D10-Pad1)*%
X81756250Y-116363750D03*
%TD*%
D12*
%TO.P,D9,2*%
%TO.N,B1*%
X72231250Y-90011250D03*
D11*
%TO.P,D9,1*%
%TO.N,Net-(D9-Pad1)*%
X72231250Y-97631250D03*
%TD*%
D12*
%TO.P,D8,2*%
%TO.N,B3*%
X65881250Y-83343750D03*
D11*
%TO.P,D8,1*%
%TO.N,Net-(D8-Pad1)*%
X65881250Y-75723750D03*
%TD*%
D12*
%TO.P,D7,2*%
%TO.N,B2*%
X75009690Y-64770240D03*
D11*
%TO.P,D7,1*%
%TO.N,Net-(D7-Pad1)*%
X75009690Y-57150240D03*
%TD*%
D12*
%TO.P,D5,2*%
%TO.N,F7*%
X62706250Y-108902500D03*
D11*
%TO.P,D5,1*%
%TO.N,Net-(D5-Pad1)*%
X62706250Y-116522500D03*
%TD*%
D12*
%TO.P,D4,2*%
%TO.N,B1*%
X52387500Y-90011250D03*
D11*
%TO.P,D4,1*%
%TO.N,Net-(D4-Pad1)*%
X52387500Y-97631250D03*
%TD*%
D12*
%TO.P,D3,2*%
%TO.N,B3*%
X46831250Y-83343750D03*
D11*
%TO.P,D3,1*%
%TO.N,Net-(D3-Pad1)*%
X46831250Y-75723750D03*
%TD*%
D12*
%TO.P,D2,2*%
%TO.N,B2*%
X56356250Y-64770000D03*
D11*
%TO.P,D2,1*%
%TO.N,Net-(D2-Pad1)*%
X56356250Y-57150000D03*
%TD*%
D12*
%TO.P,D1,2*%
%TO.N,B6*%
X46037500Y-34925000D03*
D11*
%TO.P,D1,1*%
%TO.N,Net-(D1-Pad1)*%
X46037500Y-27305000D03*
%TD*%
D15*
%TO.P,J2,3*%
%TO.N,/Sheet60DDDDC8/3*%
X11825040Y-63350240D03*
%TO.P,J2,4*%
%TO.N,GND*%
X11825040Y-60350240D03*
%TO.P,J2,2*%
%TO.N,/Sheet60DDDDC8/2*%
X11825040Y-67350240D03*
%TO.P,J2,1*%
%TO.N,VCC*%
X7225040Y-68450240D03*
%TD*%
D11*
%TO.P,D52,1*%
%TO.N,Net-(D52-Pad1)*%
X114300480Y-135731820D03*
D12*
%TO.P,D52,2*%
%TO.N,F5*%
X114300480Y-143351820D03*
%TD*%
%TO.P,D53,2*%
%TO.N,F5*%
X136949899Y-143731650D03*
D11*
%TO.P,D53,1*%
%TO.N,Net-(D53-Pad1)*%
X136949899Y-136111650D03*
%TD*%
%TO.P,D54,1*%
%TO.N,Net-(D54-Pad1)*%
X161925680Y-135731820D03*
D12*
%TO.P,D54,2*%
%TO.N,F5*%
X161925680Y-143351820D03*
%TD*%
D11*
%TO.P,D55,1*%
%TO.N,Net-(D55-Pad1)*%
X194072690Y-140256230D03*
D12*
%TO.P,D55,2*%
%TO.N,F5*%
X194072690Y-147876230D03*
%TD*%
%TO.P,D56,2*%
%TO.N,F5*%
X213122770Y-147638120D03*
D11*
%TO.P,D56,1*%
%TO.N,Net-(D56-Pad1)*%
X213122770Y-140018120D03*
%TD*%
%TO.P,D57,1*%
%TO.N,Net-(D57-Pad1)*%
X232172850Y-140256230D03*
D12*
%TO.P,D57,2*%
%TO.N,F5*%
X232172850Y-147876230D03*
%TD*%
D16*
%TO.N,B5*%
X22145750Y-88979690D02*
X22304690Y-88979690D01*
%TO.N,F4*%
X243126980Y-76993750D02*
X244237890Y-75882840D01*
X213518750Y-69056250D02*
X231775000Y-69056250D01*
X239712500Y-76993750D02*
X243126980Y-76993750D01*
X208756250Y-64293750D02*
X213518750Y-69056250D01*
X231775000Y-69056250D02*
X239712500Y-76993750D01*
X195262500Y-64293750D02*
X208756250Y-64293750D01*
X185737500Y-73818750D02*
X195262500Y-64293750D01*
X174625000Y-73818750D02*
X185737500Y-73818750D01*
X172005940Y-71199690D02*
X174625000Y-73818750D01*
X37385750Y-71199690D02*
X172005940Y-71199690D01*
%TO.N,F5*%
X231934740Y-147638120D02*
X232172850Y-147876230D01*
X213122770Y-147638120D02*
X231934740Y-147638120D01*
X194310800Y-147638120D02*
X194072690Y-147876230D01*
X213122770Y-147638120D02*
X194310800Y-147638120D01*
X166450090Y-147876230D02*
X161925680Y-143351820D01*
X194072690Y-147876230D02*
X166450090Y-147876230D01*
X137329729Y-143351820D02*
X136949899Y-143731650D01*
X161925680Y-143351820D02*
X137329729Y-143351820D01*
X114680310Y-143731650D02*
X114300480Y-143351820D01*
X136949899Y-143731650D02*
X114680310Y-143731650D01*
X70327110Y-142081250D02*
X69056540Y-143351820D01*
X100806250Y-142081250D02*
X70327110Y-142081250D01*
X102076820Y-143351820D02*
X100806250Y-142081250D01*
X114300480Y-143351820D02*
X102076820Y-143351820D01*
%TO.N,F6*%
X94535680Y-73818750D02*
X96599770Y-75882840D01*
X37385750Y-76279690D02*
X39846690Y-73818750D01*
X39846690Y-73818750D02*
X94535680Y-73818750D01*
%TO.N,F7*%
X81597500Y-108902500D02*
X81756250Y-108743750D01*
X62706250Y-108902500D02*
X81597500Y-108902500D01*
X81756250Y-108743750D02*
X100806250Y-108743750D01*
X100806250Y-108743750D02*
X119856250Y-108743750D01*
X119856250Y-108743750D02*
X138906250Y-108743750D01*
X163988750Y-108743750D02*
X164306250Y-109061250D01*
X138906250Y-108743750D02*
X163988750Y-108743750D01*
X164306250Y-109061250D02*
X197167500Y-109061250D01*
X201771250Y-113665000D02*
X212725000Y-113665000D01*
X197167500Y-109061250D02*
X201771250Y-113665000D01*
%TO.N,B1*%
X148590000Y-89693750D02*
X148431250Y-89852500D01*
X166687500Y-89693750D02*
X148590000Y-89693750D01*
X127952500Y-89852500D02*
X127793750Y-89693750D01*
X148431250Y-89852500D02*
X127952500Y-89852500D01*
X109696250Y-89693750D02*
X109537500Y-89852500D01*
X127793750Y-89693750D02*
X109696250Y-89693750D01*
X109537500Y-89852500D02*
X90487500Y-89852500D01*
X72390000Y-89852500D02*
X72231250Y-90011250D01*
X90487500Y-89852500D02*
X72390000Y-89852500D01*
X72231250Y-90011250D02*
X52387500Y-90011250D01*
%TO.N,B3*%
X46275310Y-83899690D02*
X46831250Y-83343750D01*
X37385750Y-83899690D02*
X46275310Y-83899690D01*
X46831250Y-83343750D02*
X50800000Y-83343750D01*
X50800000Y-83343750D02*
X52387500Y-84931250D01*
X64293750Y-84931250D02*
X65881250Y-83343750D01*
X52387500Y-84931250D02*
X64293750Y-84931250D01*
X65881250Y-83343750D02*
X67468750Y-84931250D01*
X67468750Y-84931250D02*
X81756250Y-84931250D01*
X81756250Y-84931250D02*
X82550000Y-84137500D01*
X82550000Y-83343750D02*
X84137500Y-83343750D01*
X84137500Y-83343750D02*
X86518750Y-85725000D01*
X86518750Y-85725000D02*
X101600000Y-85725000D01*
X101600000Y-85566250D02*
X103981250Y-83185000D01*
X101600000Y-85725000D02*
X101600000Y-85566250D01*
X103981250Y-83185000D02*
X103981250Y-83343750D01*
X103981250Y-83343750D02*
X106362500Y-85725000D01*
X119856250Y-85725000D02*
X122237500Y-83343750D01*
X106362500Y-85725000D02*
X119856250Y-85725000D01*
X138906250Y-86518750D02*
X142081250Y-83343750D01*
X125412500Y-86518750D02*
X138906250Y-86518750D01*
X122237500Y-83343750D02*
X125412500Y-86518750D01*
X157797500Y-86518750D02*
X161131250Y-83185000D01*
X145256250Y-86518750D02*
X157797500Y-86518750D01*
X142081250Y-83343750D02*
X145256250Y-86518750D01*
X161131250Y-83185000D02*
X161766250Y-83185000D01*
X161766250Y-83185000D02*
X164306250Y-85725000D01*
X165823371Y-84207879D02*
X191223371Y-84207879D01*
X164306250Y-85725000D02*
X165823371Y-84207879D01*
X192881250Y-82550000D02*
X211137500Y-82550000D01*
X191223371Y-84207879D02*
X192881250Y-82550000D01*
X211137500Y-82550000D02*
X211137500Y-83343750D01*
X211137500Y-83343750D02*
X213518750Y-85725000D01*
X228441250Y-85725000D02*
X231775000Y-82391250D01*
X213518750Y-85725000D02*
X228441250Y-85725000D01*
%TO.N,B2*%
X51127861Y-69998389D02*
X56356250Y-64770000D01*
X36809125Y-69998389D02*
X51127861Y-69998389D01*
X32093740Y-74713774D02*
X36809125Y-69998389D01*
X32093740Y-82736400D02*
X32093740Y-74713774D01*
X35797030Y-86439690D02*
X32093740Y-82736400D01*
X37385750Y-86439690D02*
X35797030Y-86439690D01*
X75009450Y-64770000D02*
X75009690Y-64770240D01*
X93979760Y-64770240D02*
X94456250Y-64293750D01*
X94456250Y-64293750D02*
X97631250Y-64293750D01*
X97631250Y-64293750D02*
X99218750Y-65881250D01*
X111918750Y-65881250D02*
X113506250Y-64293750D01*
X99218750Y-65881250D02*
X111918750Y-65881250D01*
X56356250Y-64770000D02*
X60801250Y-64770000D01*
X60801250Y-64770000D02*
X61912500Y-65881250D01*
X73898680Y-65881250D02*
X75009690Y-64770240D01*
X61912500Y-65881250D02*
X73898680Y-65881250D01*
X75009690Y-64770240D02*
X75088990Y-64770240D01*
X75088990Y-64770240D02*
X76200000Y-65881250D01*
X92868750Y-65881250D02*
X94456250Y-64293750D01*
X76200000Y-65881250D02*
X92868750Y-65881250D01*
X130968750Y-65881250D02*
X132556250Y-64293750D01*
X115093750Y-65881250D02*
X130968750Y-65881250D01*
X113506250Y-64293750D02*
X115093750Y-65881250D01*
X150018750Y-65881250D02*
X151606250Y-64293750D01*
X134143750Y-65881250D02*
X150018750Y-65881250D01*
X132556250Y-64293750D02*
X134143750Y-65881250D01*
X171926490Y-65881250D02*
X173037500Y-64770240D01*
X153193750Y-65881250D02*
X171926490Y-65881250D01*
X151606250Y-64293750D02*
X153193750Y-65881250D01*
X173037500Y-64770240D02*
X173513990Y-64770240D01*
X173513990Y-64770240D02*
X174625000Y-65881250D01*
X195076100Y-63843740D02*
X212274990Y-63843740D01*
X193038590Y-65881250D02*
X195076100Y-63843740D01*
X174625000Y-65881250D02*
X193038590Y-65881250D01*
X212618730Y-63500000D02*
X212725000Y-63500000D01*
X212274990Y-63843740D02*
X212618730Y-63500000D01*
X230822500Y-65087500D02*
X232568750Y-63341250D01*
X214312500Y-65087500D02*
X230822500Y-65087500D01*
X212725000Y-63500000D02*
X214312500Y-65087500D01*
X207169620Y-94535990D02*
X226139010Y-94535990D01*
X226139010Y-94535990D02*
X229393750Y-91281250D01*
X229393750Y-91281250D02*
X247650000Y-91281250D01*
X247650000Y-91281250D02*
X250825000Y-88106250D01*
X250825000Y-88106250D02*
X250825000Y-73818750D01*
X250825000Y-73818750D02*
X246062500Y-69056250D01*
X238283750Y-69056250D02*
X232568750Y-63341250D01*
X246062500Y-69056250D02*
X238283750Y-69056250D01*
%TO.N,B6*%
X212090000Y-37941250D02*
X211931250Y-38100000D01*
X231775000Y-37941250D02*
X212090000Y-37941250D01*
X192087500Y-38100000D02*
X189706250Y-35718750D01*
X211931250Y-38100000D02*
X192087500Y-38100000D01*
X189706250Y-35718750D02*
X188912500Y-35718750D01*
X188912500Y-35718750D02*
X187325000Y-37306250D01*
X171767500Y-37306250D02*
X169862500Y-35401250D01*
X187325000Y-37306250D02*
X171767500Y-37306250D01*
X169862500Y-35401250D02*
X169862500Y-35718750D01*
X169862500Y-35718750D02*
X167481250Y-38100000D01*
X152558750Y-38100000D02*
X150018750Y-35560000D01*
X167481250Y-38100000D02*
X152558750Y-38100000D01*
X150018750Y-35560000D02*
X150018750Y-35718750D01*
X150018750Y-35718750D02*
X148431250Y-37306250D01*
X135255000Y-37306250D02*
X133350000Y-35401250D01*
X148431250Y-37306250D02*
X135255000Y-37306250D01*
X133350000Y-35401250D02*
X133032500Y-35401250D01*
X133032500Y-35401250D02*
X129381250Y-31750000D01*
X129381250Y-31750000D02*
X123825000Y-31750000D01*
X123825000Y-31750000D02*
X118268750Y-37306250D01*
X105092500Y-37306250D02*
X103187500Y-35401250D01*
X118268750Y-37306250D02*
X105092500Y-37306250D01*
X103187500Y-35401250D02*
X103187500Y-35718750D01*
X103187500Y-35718750D02*
X100806250Y-38100000D01*
X87312500Y-38100000D02*
X84137500Y-34925000D01*
X100806250Y-38100000D02*
X87312500Y-38100000D01*
X80168750Y-38893750D02*
X68421250Y-38893750D01*
X68421250Y-38893750D02*
X64293750Y-34766250D01*
X84137500Y-34925000D02*
X80168750Y-38893750D01*
X64293750Y-34766250D02*
X64293750Y-35718750D01*
X64293750Y-35718750D02*
X61912500Y-38100000D01*
X49212500Y-38100000D02*
X46037500Y-34925000D01*
X61912500Y-38100000D02*
X49212500Y-38100000D01*
X37385750Y-88979690D02*
X31643731Y-83237671D01*
X46037500Y-49212500D02*
X46037500Y-38100000D01*
X35718750Y-61118750D02*
X46037500Y-49212500D01*
X46037500Y-38100000D02*
X46037500Y-34925000D01*
X35718750Y-69056250D02*
X35718750Y-61118750D01*
X31643731Y-73131269D02*
X35718750Y-69056250D01*
X31643731Y-83237481D02*
X31643731Y-73131269D01*
X31750000Y-83343750D02*
X31643731Y-83237481D01*
%TO.N,B4*%
X72707920Y-94932920D02*
X82312210Y-94932920D01*
X69850000Y-92075000D02*
X72707920Y-94932920D01*
X61118750Y-92075000D02*
X69850000Y-92075000D01*
X59531250Y-93662500D02*
X61118750Y-92075000D01*
X34131250Y-93662500D02*
X59531250Y-93662500D01*
X26908440Y-86439690D02*
X34131250Y-93662500D01*
X22145750Y-86439690D02*
X26908440Y-86439690D01*
%TO.N,D7*%
X114300000Y-92868750D02*
X116364170Y-94932920D01*
X71437500Y-92868750D02*
X114300000Y-92868750D01*
X60932350Y-91624990D02*
X70193740Y-91624990D01*
X59688590Y-92868750D02*
X60932350Y-91624990D01*
X116364170Y-94932920D02*
X120412370Y-94932920D01*
X37306250Y-92868750D02*
X59688590Y-92868750D01*
X34925000Y-88296866D02*
X34925000Y-90487500D01*
X70193740Y-91624990D02*
X71437500Y-92868750D01*
X34925000Y-90487500D02*
X37306250Y-92868750D01*
X27987824Y-81359690D02*
X34925000Y-88296866D01*
X22145750Y-81359690D02*
X27987824Y-81359690D01*
%TO.N,C6*%
X213758330Y-130175000D02*
X206137730Y-137795600D01*
X245268750Y-130175000D02*
X213758330Y-130175000D01*
X22145750Y-78819690D02*
X19605310Y-78819690D01*
X19605310Y-78819690D02*
X18256250Y-80168750D01*
X18256250Y-89693750D02*
X20637500Y-92075000D01*
X131762500Y-153193750D02*
X134143750Y-150812500D01*
X18256250Y-80168750D02*
X18256250Y-89693750D01*
X25400000Y-92075000D02*
X61118750Y-127793750D01*
X20637500Y-92075000D02*
X25400000Y-92075000D01*
X61118750Y-127793750D02*
X61118750Y-142875000D01*
X61118750Y-142875000D02*
X71437500Y-153193750D01*
X71437500Y-153193750D02*
X131762500Y-153193750D01*
X134143750Y-150812500D02*
X242887500Y-150812500D01*
X242887500Y-150812500D02*
X247977891Y-145722109D01*
X247977891Y-145722109D02*
X248027891Y-145722109D01*
X248027891Y-145722109D02*
X249250000Y-144500000D01*
X249250000Y-134156250D02*
X247921875Y-132828125D01*
X249250000Y-144500000D02*
X249250000Y-134156250D01*
X247921875Y-132828125D02*
X245268750Y-130175000D01*
X247977891Y-132884141D02*
X247921875Y-132828125D01*
%TO.N,D4*%
X71623900Y-92418740D02*
X155998350Y-92418740D01*
X60745950Y-91174980D02*
X70380141Y-91174981D01*
X155998350Y-92418740D02*
X158512530Y-94932920D01*
X59502190Y-92418740D02*
X60745950Y-91174980D01*
X38443740Y-92418740D02*
X59502190Y-92418740D01*
X35375010Y-89350010D02*
X38443740Y-92418740D01*
X70380141Y-91174981D02*
X71623900Y-92418740D01*
X35375010Y-88110466D02*
X35375010Y-89350010D01*
X23544234Y-76279690D02*
X35375010Y-88110466D01*
X22145750Y-76279690D02*
X23544234Y-76279690D01*
%TO.N,D0*%
X17065940Y-73739690D02*
X15875000Y-72548750D01*
X22145750Y-73739690D02*
X17065940Y-73739690D01*
%TO.N,D1*%
X18494690Y-71199690D02*
X18256250Y-70961250D01*
X22145750Y-71199690D02*
X18494690Y-71199690D01*
%TO.N,D3*%
X197723820Y-24606250D02*
X201375210Y-28257640D01*
X44450000Y-24606250D02*
X197723820Y-24606250D01*
X43656250Y-27781250D02*
X44450000Y-24606250D01*
X45243750Y-49212500D02*
X43656250Y-27781250D01*
X23097810Y-61039690D02*
X34925000Y-61118750D01*
X34925000Y-61118750D02*
X45243750Y-49212500D01*
X22145750Y-61039690D02*
X23097810Y-61039690D01*
%TO.N,Net-(D1-Pad1)*%
X48656970Y-27305000D02*
X52149610Y-30797640D01*
X46037500Y-27305000D02*
X48656970Y-27305000D01*
%TO.N,Net-(D2-Pad1)*%
X59451890Y-57150000D02*
X61674650Y-59372760D01*
X56356250Y-57150000D02*
X59451890Y-57150000D01*
%TO.N,Net-(D3-Pad1)*%
X49450520Y-75723750D02*
X52149610Y-78422840D01*
X46831250Y-75723750D02*
X49450520Y-75723750D01*
%TO.N,Net-(D4-Pad1)*%
X56753800Y-97631250D02*
X56912130Y-97472920D01*
X52387500Y-97631250D02*
X56753800Y-97631250D01*
%TO.N,Net-(D5-Pad1)*%
X62706750Y-116523000D02*
X62706250Y-116522500D01*
X66437170Y-116523000D02*
X62706750Y-116523000D01*
%TO.N,Net-(D6-Pad1)*%
X67548300Y-27146250D02*
X71199690Y-30797640D01*
X64293750Y-27146250D02*
X67548300Y-27146250D01*
%TO.N,Net-(D7-Pad1)*%
X78502470Y-57150240D02*
X80724730Y-59372500D01*
X75009690Y-57150240D02*
X78502470Y-57150240D01*
%TO.N,Net-(D8-Pad1)*%
X68500600Y-75723750D02*
X71199690Y-78422840D01*
X65881250Y-75723750D02*
X68500600Y-75723750D01*
%TO.N,Net-(D9-Pad1)*%
X75803880Y-97631250D02*
X75962210Y-97472920D01*
X72231250Y-97631250D02*
X75803880Y-97631250D01*
%TO.N,Net-(D10-Pad1)*%
X85328000Y-116363750D02*
X85487250Y-116523000D01*
X81756250Y-116363750D02*
X85328000Y-116363750D01*
%TO.N,Net-(D11-Pad1)*%
X87630140Y-30797640D02*
X84137500Y-27305000D01*
X90249770Y-30797640D02*
X87630140Y-30797640D01*
%TO.N,Net-(D12-Pad1)*%
X97075800Y-56673750D02*
X99774810Y-59372760D01*
X94456250Y-56673750D02*
X97075800Y-56673750D01*
%TO.N,Net-(D13-Pad1)*%
X87550680Y-75723750D02*
X90249770Y-78422840D01*
X82550000Y-75723750D02*
X87550680Y-75723750D01*
%TO.N,Net-(D14-Pad1)*%
X95011870Y-97472500D02*
X95012290Y-97472920D01*
X90487500Y-97472500D02*
X95011870Y-97472500D01*
%TO.N,Net-(D15-Pad1)*%
X104378080Y-116363750D02*
X104537330Y-116523000D01*
X100806250Y-116363750D02*
X104378080Y-116363750D01*
%TO.N,Net-(D16-Pad1)*%
X106283460Y-27781250D02*
X109299850Y-30797640D01*
X103187500Y-27781250D02*
X106283460Y-27781250D01*
%TO.N,Net-(D17-Pad1)*%
X116125880Y-56673750D02*
X118824890Y-59372760D01*
X113506250Y-56673750D02*
X116125880Y-56673750D01*
%TO.N,Net-(D18-Pad1)*%
X106442010Y-75565000D02*
X109299850Y-78422840D01*
X103981250Y-75565000D02*
X106442010Y-75565000D01*
%TO.N,Net-(D19-Pad1)*%
X109537920Y-97472920D02*
X109537500Y-97472500D01*
X114062370Y-97472920D02*
X109537920Y-97472920D01*
%TO.N,Net-(D20-Pad1)*%
X123428160Y-116363750D02*
X123587410Y-116523000D01*
X119856250Y-116363750D02*
X123428160Y-116363750D01*
%TO.N,Net-(D21-Pad1)*%
X134858580Y-27781250D02*
X137874970Y-30797640D01*
X133350000Y-27781250D02*
X134858580Y-27781250D01*
%TO.N,Net-(D22-Pad1)*%
X135175960Y-56673750D02*
X137874970Y-59372760D01*
X132556250Y-56673750D02*
X135175960Y-56673750D01*
%TO.N,Net-(D23-Pad1)*%
X125650840Y-75723750D02*
X128349930Y-78422840D01*
X122237500Y-75723750D02*
X125650840Y-75723750D01*
%TO.N,Net-(D24-Pad1)*%
X132953280Y-97313750D02*
X133112450Y-97472920D01*
X127793750Y-97313750D02*
X132953280Y-97313750D01*
%TO.N,Net-(D25-Pad1)*%
X142478240Y-116363750D02*
X142637490Y-116523000D01*
X138906250Y-116363750D02*
X142478240Y-116363750D01*
%TO.N,Net-(D26-Pad1)*%
X154067410Y-27940000D02*
X156925050Y-30797640D01*
X150018750Y-27940000D02*
X154067410Y-27940000D01*
%TO.N,Net-(D27-Pad1)*%
X154226040Y-56673750D02*
X156925050Y-59372760D01*
X151606250Y-56673750D02*
X154226040Y-56673750D01*
%TO.N,Net-(D28-Pad1)*%
X144700920Y-75723750D02*
X147400010Y-78422840D01*
X142081250Y-75723750D02*
X144700920Y-75723750D01*
%TO.N,Net-(D29-Pad1)*%
X152162110Y-97472500D02*
X152162530Y-97472920D01*
X148431250Y-97472500D02*
X152162110Y-97472500D01*
%TO.N,Net-(D30-Pad1)*%
X178198140Y-116681250D02*
X178356390Y-116523000D01*
X164306250Y-116681250D02*
X178198140Y-116681250D01*
%TO.N,Net-(D31-Pad1)*%
X172958740Y-27781250D02*
X175975130Y-30797640D01*
X169862500Y-27781250D02*
X172958740Y-27781250D01*
%TO.N,Net-(D32-Pad1)*%
X173037500Y-57150240D02*
X175418990Y-57150240D01*
X177641510Y-59372760D02*
X185500170Y-59372760D01*
X175418990Y-57150240D02*
X177641510Y-59372760D01*
%TO.N,Net-(D33-Pad1)*%
X163592250Y-75565000D02*
X166450090Y-78422840D01*
X161131250Y-75565000D02*
X163592250Y-75565000D01*
%TO.N,Net-(D34-Pad1)*%
X171053440Y-97313750D02*
X171212610Y-97472920D01*
X166687500Y-97313750D02*
X171053440Y-97313750D01*
%TO.N,Net-(D35-Pad1)*%
X212725520Y-121285520D02*
X212725000Y-121285000D01*
X218837810Y-121285520D02*
X212725520Y-121285520D01*
%TO.N,Net-(D36-Pad1)*%
X192326320Y-28098750D02*
X195025210Y-30797640D01*
X189706250Y-28098750D02*
X192326320Y-28098750D01*
%TO.N,Net-(D37-Pad1)*%
X199232060Y-86915990D02*
X198993950Y-86677880D01*
X207169620Y-86915990D02*
X199232060Y-86915990D01*
%TO.N,Net-(D38-Pad1)*%
X215344970Y-74930000D02*
X218837810Y-78422840D01*
X211137500Y-74930000D02*
X215344970Y-74930000D01*
%TO.N,Net-(D41-Pad1)*%
X218520170Y-30480000D02*
X218837810Y-30797640D01*
X211931250Y-30480000D02*
X218520170Y-30480000D01*
%TO.N,Net-(D42-Pad1)*%
X215345050Y-55880000D02*
X218837810Y-59372760D01*
X212725000Y-55880000D02*
X215345050Y-55880000D01*
%TO.N,Net-(D43-Pad1)*%
X234236300Y-74771250D02*
X237887890Y-78422840D01*
X231775000Y-74771250D02*
X234236300Y-74771250D01*
%TO.N,Net-(D46-Pad1)*%
X237411500Y-30321250D02*
X237887890Y-30797640D01*
X237807500Y-30321250D02*
X238283750Y-30797500D01*
X237405550Y-30321250D02*
X237881800Y-30797500D01*
X231775000Y-30321250D02*
X237405550Y-30321250D01*
%TO.N,Net-(D47-Pad1)*%
X234236380Y-55721250D02*
X237887890Y-59372760D01*
X232568750Y-55721250D02*
X234236380Y-55721250D01*
%TO.N,Net-(D51-Pad1)*%
X82947250Y-135731820D02*
X83105990Y-135573080D01*
X69056540Y-135731820D02*
X82947250Y-135731820D01*
%TO.N,Net-(D52-Pad1)*%
X121047410Y-135731820D02*
X121206150Y-135573080D01*
X114300480Y-135731820D02*
X121047410Y-135731820D01*
%TO.N,Net-(D53-Pad1)*%
X144480180Y-136111650D02*
X145018750Y-135573080D01*
X136949899Y-136111650D02*
X144480180Y-136111650D01*
%TO.N,Net-(D54-Pad1)*%
X168672610Y-135731820D02*
X168831350Y-135573080D01*
X161925680Y-135731820D02*
X168672610Y-135731820D01*
%TO.N,Net-(D55-Pad1)*%
X199708360Y-140256230D02*
X199787730Y-140335600D01*
X194072690Y-140256230D02*
X199708360Y-140256230D01*
%TO.N,Net-(D56-Pad1)*%
X218520330Y-140018120D02*
X218837810Y-140335600D01*
X213122770Y-140018120D02*
X218520330Y-140018120D01*
%TO.N,Net-(D57-Pad1)*%
X237861230Y-140256230D02*
X237940000Y-140335000D01*
X232248620Y-140332000D02*
X232172850Y-140256230D01*
X237881800Y-140332000D02*
X232248620Y-140332000D01*
%TO.N,/Sheet60DDDDC8/3*%
X14374030Y-60801250D02*
X11825040Y-63350240D01*
X18256250Y-60801250D02*
X14374030Y-60801250D01*
%TO.N,/Sheet60DDDDC8/2*%
X15875000Y-62388750D02*
X13493750Y-64770000D01*
X13493750Y-65681530D02*
X11825040Y-67350240D01*
X13493750Y-64770000D02*
X13493750Y-65681530D01*
%TD*%
M02*
