M48
; DRILL file {KiCad (5.1.9)-1} date 04/06/21 00:29:59
; FORMAT={-:-/ absolute / inch / decimal}
; #@! TF.CreationDate,2021-04-06T00:29:59+03:00
; #@! TF.GenerationSoftware,Kicad,Pcbnew,(5.1.9)-1
; #@! TF.FileFunction,Plated,1,2,PTH
FMAT,2
INCH
T1C0.0354
T2C0.0390
T3C0.0430
T4C0.0579
%
G90
G05
T2
X0.625Y-2.4562
X0.625Y-2.8562
X0.7188Y-2.3937
X0.7188Y-2.7937
X1.8125Y-1.075
X1.8125Y-1.375
X1.8438Y-2.9812
X1.8438Y-3.2812
X2.0625Y-3.5437
X2.0625Y-3.8438
X2.2188Y-2.25
X2.2188Y-2.55
X2.4688Y-4.2875
X2.4688Y-4.5875
X2.5312Y-1.0687
X2.5312Y-1.3687
X2.5938Y-2.9812
X2.5938Y-3.2812
X2.7188Y-5.3438
X2.7188Y-5.6438
X2.8438Y-3.5437
X2.8438Y-3.8438
X2.9531Y-2.25
X2.9531Y-2.55
X3.2188Y-4.2812
X3.2188Y-4.5812
X3.25Y-2.9812
X3.25Y-3.2812
X3.3125Y-1.075
X3.3125Y-1.375
X3.5625Y-3.5375
X3.5625Y-3.8375
X3.7188Y-2.2312
X3.7188Y-2.5312
X3.9688Y-4.2812
X3.9688Y-4.5812
X4.0625Y-1.0938
X4.0625Y-1.3938
X4.0938Y-2.975
X4.0938Y-3.275
X4.3125Y-3.5375
X4.3125Y-3.8375
X4.4688Y-2.2312
X4.4688Y-2.5312
X4.5Y-5.3438
X4.5Y-5.6438
X4.7188Y-4.2812
X4.7188Y-4.5812
X4.8125Y-2.9812
X4.8125Y-3.2812
X5.0312Y-3.5312
X5.0312Y-3.8312
X5.2188Y-2.2312
X5.2188Y-2.5312
X5.25Y-1.0938
X5.25Y-1.3938
X5.3917Y-5.3587
X5.3917Y-5.6587
X5.4688Y-4.2812
X5.4688Y-4.5812
X5.5938Y-2.9812
X5.5938Y-3.2812
X5.8438Y-3.5375
X5.8438Y-3.8375
X5.9062Y-1.1
X5.9062Y-1.4
X5.9688Y-2.2312
X5.9688Y-2.5312
X6.3438Y-2.975
X6.3438Y-3.275
X6.375Y-5.3438
X6.375Y-5.6438
X6.4688Y-4.2938
X6.4688Y-4.5938
X6.5625Y-3.5312
X6.5625Y-3.8312
X6.6875Y-1.0938
X6.6875Y-1.3938
X6.8125Y-2.25
X6.8125Y-2.55
X7.4688Y-1.1062
X7.4688Y-1.4062
X7.6407Y-5.5219
X7.6407Y-5.8219
X8.1563Y-3.4219
X8.1563Y-3.7219
X8.3125Y-2.95
X8.3125Y-3.25
X8.3438Y-1.2
X8.3438Y-1.5
X8.375Y-2.2
X8.375Y-2.5
X8.375Y-4.475
X8.375Y-4.775
X8.3907Y-5.5125
X8.3907Y-5.8125
X9.125Y-1.1937
X9.125Y-1.4937
X9.125Y-2.9438
X9.125Y-3.2437
X9.1407Y-5.5219
X9.1407Y-5.8219
X9.1562Y-2.1938
X9.1562Y-2.4937
T3
X0.8719Y-2.4031
X0.8719Y-2.5031
X0.8719Y-2.6031
X0.8719Y-2.7031
X0.8719Y-2.8031
X0.8719Y-2.9031
X0.8719Y-3.0031
X0.8719Y-3.1031
X0.8719Y-3.2031
X0.8719Y-3.3031
X0.8719Y-3.4031
X0.8719Y-3.5031
X1.4719Y-2.4031
X1.4719Y-2.5031
X1.4719Y-2.6031
X1.4719Y-2.7031
X1.4719Y-2.8031
X1.4719Y-2.9031
X1.4719Y-3.0031
X1.4719Y-3.1031
X1.4719Y-3.2031
X1.4719Y-3.3031
X1.4719Y-3.4031
X1.4719Y-3.5031
T4
X2.0531Y-1.2125
X2.0531Y-3.0875
X2.2406Y-3.8375
X2.3031Y-1.1125
X2.3031Y-2.9875
X2.4281Y-2.3375
X2.4906Y-3.7375
X2.6156Y-4.5875
X2.6781Y-2.2375
X2.8031Y-1.2125
X2.8031Y-3.0875
X2.8656Y-4.4875
X2.9906Y-3.8375
X3.0531Y-1.1125
X3.0531Y-2.9875
X3.1781Y-2.3375
X3.2406Y-3.7375
X3.2719Y-5.3375
X3.3656Y-4.5875
X3.4281Y-2.2375
X3.5219Y-5.2375
X3.5531Y-1.2125
X3.5531Y-3.0875
X3.6156Y-4.4875
X3.7406Y-3.8375
X3.8031Y-1.1125
X3.8031Y-2.9875
X3.9281Y-2.3375
X3.9906Y-3.7375
X4.1156Y-4.5875
X4.1781Y-2.2375
X4.3031Y-1.2125
X4.3031Y-3.0875
X4.3656Y-4.4875
X4.4906Y-3.8375
X4.5531Y-1.1125
X4.5531Y-2.9875
X4.6781Y-2.3375
X4.7406Y-3.7375
X4.7719Y-5.3375
X4.8656Y-4.5875
X4.9281Y-2.2375
X5.0219Y-5.2375
X5.0531Y-3.0875
X5.1156Y-4.4875
X5.2406Y-3.8375
X5.3031Y-2.9875
X5.4281Y-1.2125
X5.4281Y-2.3375
X5.4906Y-3.7375
X5.6156Y-4.5875
X5.6781Y-1.1125
X5.6781Y-2.2375
X5.7094Y-5.3375
X5.8031Y-3.0875
X5.8656Y-4.4875
X5.9594Y-5.2375
X5.9907Y-3.8375
X6.0531Y-2.9875
X6.1782Y-1.2125
X6.1782Y-2.3375
X6.2407Y-3.7375
X6.4282Y-1.1125
X6.4282Y-2.2375
X6.5532Y-3.0875
X6.6469Y-5.3375
X6.7407Y-3.8375
X6.8032Y-2.9875
X6.8969Y-5.2375
X6.9282Y-1.2125
X6.9907Y-3.7375
X7.0219Y-4.5875
X7.1782Y-1.1125
X7.2719Y-4.4875
X7.3032Y-2.3375
X7.5532Y-2.2375
X7.6782Y-1.2125
X7.8344Y-3.4125
X7.8657Y-5.525
X7.9282Y-1.1125
X7.9344Y-3.6625
X8.1157Y-5.425
X8.6157Y-1.2125
X8.6157Y-2.3375
X8.6157Y-3.0875
X8.6157Y-4.775
X8.6157Y-5.525
X8.8657Y-1.1125
X8.8657Y-2.2375
X8.8657Y-2.9875
X8.8657Y-4.675
X8.8657Y-5.425
X9.3654Y-1.2125
X9.3654Y-5.5249
X9.3657Y-2.3375
X9.3657Y-3.0875
X9.6154Y-1.1125
X9.6154Y-5.4249
X9.6157Y-2.2375
X9.6157Y-2.9875
T1
G00X0.2845Y-2.687
M15
G01X0.2845Y-2.7028
M16
G05
G00X0.4656Y-2.3681
M15
G01X0.4656Y-2.3839
M16
G05
G00X0.4656Y-2.4862
M15
G01X0.4656Y-2.502
M16
G05
G00X0.4656Y-2.6437
M15
G01X0.4656Y-2.6595
M16
G05
T0
M30
