%TF.GenerationSoftware,KiCad,Pcbnew,(5.1.4)-1*%
%TF.CreationDate,2021-04-07T12:38:03+03:00*%
%TF.ProjectId,SplitH,53706c69-7448-42e6-9b69-6361645f7063,rev?*%
%TF.SameCoordinates,Original*%
%TF.FileFunction,Soldermask,Top*%
%TF.FilePolarity,Negative*%
%FSLAX46Y46*%
G04 Gerber Fmt 4.6, Leading zero omitted, Abs format (unit mm)*
G04 Created by KiCad (PCBNEW (5.1.4)-1) date 2021-04-07 12:38:03*
%MOMM*%
%LPD*%
G04 APERTURE LIST*
%ADD10C,1.750000*%
%ADD11C,3.987800*%
%ADD12C,1.752600*%
%ADD13R,1.752600X1.752600*%
%ADD14C,3.200000*%
%ADD15C,3.048000*%
%ADD16C,1.600000*%
%ADD17R,1.600000X1.600000*%
%ADD18O,2.000000X2.000000*%
%ADD19C,0.800000*%
%ADD20C,2.000000*%
G04 APERTURE END LIST*
D10*
%TO.C,SW8*%
X52705200Y-57150240D03*
X42545200Y-57150240D03*
D11*
X47625200Y-57150240D03*
%TD*%
%TO.C,SW32*%
X133350000Y-76200000D03*
D10*
X128270000Y-76200000D03*
X138430000Y-76200000D03*
%TD*%
D12*
%TO.C,J1*%
X181451980Y-55626000D03*
X166211980Y-83566000D03*
X181451980Y-58166000D03*
X181451980Y-60706000D03*
X181451980Y-63246000D03*
X181451980Y-65786000D03*
X181451980Y-68326000D03*
X181451980Y-70866000D03*
X181451980Y-73406000D03*
X181451980Y-75946000D03*
X181451980Y-78486000D03*
X181451980Y-81026000D03*
X181451980Y-83566000D03*
X166211980Y-81026000D03*
X166211980Y-78486000D03*
X166211980Y-75946000D03*
X166211980Y-73406000D03*
X166211980Y-70866000D03*
X166211980Y-68326000D03*
X166211980Y-65786000D03*
X166211980Y-63246000D03*
X166211980Y-60706000D03*
X166211980Y-58166000D03*
D13*
X166211980Y-55626000D03*
%TD*%
D10*
%TO.C,SW10*%
X66992760Y-95250400D03*
X56832760Y-95250400D03*
D11*
X61912760Y-95250400D03*
%TD*%
D10*
%TO.C,SW16*%
X86042840Y-95250400D03*
X75882840Y-95250400D03*
D11*
X80962840Y-95250400D03*
%TD*%
D10*
%TO.C,SW18*%
X83661580Y-133350560D03*
X73501580Y-133350560D03*
D11*
X78581580Y-133350560D03*
%TD*%
%TO.C,SW38*%
X152400000Y-76200000D03*
D10*
X147320000Y-76200000D03*
X157480000Y-76200000D03*
%TD*%
%TO.C,SW5*%
X36036380Y-114300480D03*
X25876380Y-114300480D03*
D11*
X30956380Y-114300480D03*
%TD*%
D10*
%TO.C,SW3*%
X38417640Y-76200320D03*
X28257640Y-76200320D03*
D11*
X33337640Y-76200320D03*
%TD*%
D14*
%TO.C,REF\002A\002A*%
X96441030Y-85130060D03*
%TD*%
D11*
%TO.C,SW24*%
X116681250Y-133350000D03*
D10*
X111601250Y-133350000D03*
X121761250Y-133350000D03*
D15*
X104775000Y-126365000D03*
X128587500Y-126365000D03*
D11*
X104775000Y-141605000D03*
X128587500Y-141605000D03*
%TD*%
D16*
%TO.C,D32*%
X124618750Y-81092200D03*
D17*
X124618750Y-73292200D03*
%TD*%
D16*
%TO.C,D24*%
X96837500Y-136723450D03*
D17*
X96837500Y-128923450D03*
%TD*%
D11*
%TO.C,SW37*%
X142875000Y-57150000D03*
D10*
X137795000Y-57150000D03*
X147955000Y-57150000D03*
%TD*%
D11*
%TO.C,SW34*%
X128587500Y-114300000D03*
D10*
X123507500Y-114300000D03*
X133667500Y-114300000D03*
%TD*%
D11*
%TO.C,SW31*%
X123825000Y-57150000D03*
D10*
X118745000Y-57150000D03*
X128905000Y-57150000D03*
%TD*%
D11*
%TO.C,SW33*%
X138112500Y-95250000D03*
D10*
X133032500Y-95250000D03*
X143192500Y-95250000D03*
%TD*%
D11*
%TO.C,SW39*%
X157162500Y-95250000D03*
D10*
X152082500Y-95250000D03*
X162242500Y-95250000D03*
%TD*%
D11*
%TO.C,SW40*%
X147637500Y-114300000D03*
D10*
X142557500Y-114300000D03*
X152717500Y-114300000D03*
%TD*%
D16*
%TO.C,D31*%
X114300000Y-60642200D03*
D17*
X114300000Y-52842200D03*
%TD*%
D11*
%TO.C,SW7*%
X66675000Y-28575000D03*
D10*
X61595000Y-28575000D03*
X71755000Y-28575000D03*
%TD*%
D16*
%TO.C,D37*%
X133350000Y-61179700D03*
D17*
X133350000Y-53379700D03*
%TD*%
D16*
%TO.C,D7*%
X57943750Y-31810950D03*
D17*
X57943750Y-24010950D03*
%TD*%
D10*
%TO.C,SW21*%
X100330400Y-76200320D03*
X90170400Y-76200320D03*
D11*
X95250400Y-76200320D03*
%TD*%
D10*
%TO.C,SW25*%
X128905000Y-28575120D03*
X118745000Y-28575120D03*
D11*
X123825000Y-28575120D03*
%TD*%
D10*
%TO.C,SW26*%
X109855000Y-57150000D03*
X99695000Y-57150000D03*
D11*
X104775000Y-57150000D03*
%TD*%
D10*
%TO.C,SW14*%
X71755280Y-57150240D03*
X61595280Y-57150240D03*
D11*
X66675280Y-57150240D03*
%TD*%
D10*
%TO.C,SW2*%
X33655120Y-57150240D03*
X23495120Y-57150240D03*
D11*
X28575120Y-57150240D03*
%TD*%
D14*
%TO.C,REF\002A\002A*%
X173831980Y-97631660D03*
%TD*%
%TO.C,REF\002A\002A*%
X148828750Y-25003230D03*
%TD*%
%TO.C,REF\002A\002A*%
X16668820Y-142875600D03*
%TD*%
%TO.C,REF\002A\002A*%
X16668820Y-16668820D03*
%TD*%
%TO.C,REF\002A\002A*%
X198532550Y-77240175D03*
%TD*%
%TO.C,REF\002A\002A*%
X163116310Y-141684970D03*
%TD*%
D10*
%TO.C,SW12*%
X59848980Y-133350560D03*
X49688980Y-133350560D03*
D11*
X54768980Y-133350560D03*
%TD*%
D10*
%TO.C,SW6*%
X36036380Y-133350560D03*
X25876380Y-133350560D03*
D11*
X30956380Y-133350560D03*
%TD*%
D10*
%TO.C,SW4*%
X40798900Y-95250400D03*
X30638900Y-95250400D03*
D11*
X35718900Y-95250400D03*
%TD*%
D10*
%TO.C,SW29*%
X114617500Y-114300000D03*
X104457500Y-114300000D03*
D11*
X109537500Y-114300000D03*
%TD*%
D10*
%TO.C,SW28*%
X124142500Y-95250000D03*
X113982500Y-95250000D03*
D11*
X119062500Y-95250000D03*
%TD*%
D10*
%TO.C,SW27*%
X119380000Y-76200000D03*
X109220000Y-76200000D03*
D11*
X114300000Y-76200000D03*
%TD*%
D10*
%TO.C,SW23*%
X95567880Y-114300480D03*
X85407880Y-114300480D03*
D11*
X90487880Y-114300480D03*
%TD*%
D10*
%TO.C,SW22*%
X105092920Y-95250400D03*
X94932920Y-95250400D03*
D11*
X100012920Y-95250400D03*
%TD*%
D10*
%TO.C,SW20*%
X90805360Y-57150240D03*
X80645360Y-57150240D03*
D11*
X85725360Y-57150240D03*
%TD*%
D10*
%TO.C,SW19*%
X109855360Y-28575120D03*
X99695360Y-28575120D03*
D11*
X104775360Y-28575120D03*
%TD*%
D10*
%TO.C,SW17*%
X76517800Y-114300480D03*
X66357800Y-114300480D03*
D11*
X71437800Y-114300480D03*
%TD*%
D10*
%TO.C,SW15*%
X81280320Y-76200320D03*
X71120320Y-76200320D03*
D11*
X76200320Y-76200320D03*
%TD*%
D10*
%TO.C,SW13*%
X90805000Y-28575120D03*
X80645000Y-28575120D03*
D11*
X85725000Y-28575120D03*
%TD*%
D10*
%TO.C,SW11*%
X57467720Y-114300480D03*
X47307720Y-114300480D03*
D11*
X52387720Y-114300480D03*
%TD*%
D10*
%TO.C,SW9*%
X62230240Y-76200320D03*
X52070240Y-76200320D03*
D11*
X57150240Y-76200320D03*
%TD*%
D10*
%TO.C,SW1*%
X33655120Y-28575120D03*
X23495120Y-28575120D03*
D11*
X28575120Y-28575120D03*
%TD*%
D18*
%TO.C,J2*%
X187424000Y-63980000D03*
X192024000Y-62880000D03*
X192024000Y-55880000D03*
D19*
X189724000Y-61280000D03*
X189724000Y-54280000D03*
D20*
X192024000Y-58880000D03*
%TD*%
D16*
%TO.C,D40*%
X138112500Y-117535950D03*
D17*
X138112500Y-109735950D03*
%TD*%
%TO.C,D39*%
X147637500Y-92273450D03*
D16*
X147637500Y-100073450D03*
%TD*%
%TO.C,D38*%
X142875000Y-80298450D03*
D17*
X142875000Y-72498450D03*
%TD*%
D16*
%TO.C,D34*%
X119062500Y-117535950D03*
D17*
X119062500Y-109735950D03*
%TD*%
D16*
%TO.C,D33*%
X128587500Y-100073450D03*
D17*
X128587500Y-92273450D03*
%TD*%
D16*
%TO.C,D29*%
X100012500Y-117535950D03*
D17*
X100012500Y-109735950D03*
%TD*%
D16*
%TO.C,D28*%
X109537500Y-100073450D03*
D17*
X109537500Y-92273450D03*
%TD*%
D16*
%TO.C,D27*%
X104775000Y-80904700D03*
D17*
X104775000Y-73104700D03*
%TD*%
D16*
%TO.C,D26*%
X95250000Y-60385950D03*
D17*
X95250000Y-52585950D03*
%TD*%
D16*
%TO.C,D25*%
X114300000Y-31879700D03*
D17*
X114300000Y-24079700D03*
%TD*%
D16*
%TO.C,D23*%
X80962840Y-117605180D03*
D17*
X80962840Y-109805180D03*
%TD*%
D16*
%TO.C,D22*%
X90487880Y-98555100D03*
D17*
X90487880Y-90755100D03*
%TD*%
D16*
%TO.C,D21*%
X85725360Y-81023760D03*
D17*
X85725360Y-73223760D03*
%TD*%
D16*
%TO.C,D20*%
X76200320Y-60454940D03*
D17*
X76200320Y-52654940D03*
%TD*%
D16*
%TO.C,D19*%
X95250000Y-31879820D03*
D17*
X95250000Y-24079820D03*
%TD*%
D16*
%TO.C,D18*%
X69056540Y-136983370D03*
D17*
X69056540Y-129183370D03*
%TD*%
D16*
%TO.C,D17*%
X61912760Y-117605180D03*
D17*
X61912760Y-109805180D03*
%TD*%
D16*
%TO.C,D16*%
X71437800Y-98555100D03*
D17*
X71437800Y-90755100D03*
%TD*%
D16*
%TO.C,D15*%
X66675280Y-81023760D03*
D17*
X66675280Y-73223760D03*
%TD*%
D16*
%TO.C,D14*%
X57150240Y-60454940D03*
D17*
X57150240Y-52654940D03*
%TD*%
D16*
%TO.C,D13*%
X76200000Y-31879820D03*
D17*
X76200000Y-24079820D03*
%TD*%
D16*
%TO.C,D12*%
X45243940Y-136774000D03*
D17*
X45243940Y-128974000D03*
%TD*%
D16*
%TO.C,D11*%
X42862680Y-117605180D03*
D17*
X42862680Y-109805180D03*
%TD*%
D16*
%TO.C,D10*%
X52387720Y-98883210D03*
D17*
X52387720Y-91083210D03*
%TD*%
D16*
%TO.C,D9*%
X47625200Y-80695650D03*
D17*
X47625200Y-72895650D03*
%TD*%
D16*
%TO.C,D8*%
X38100160Y-60783050D03*
D17*
X38100160Y-52983050D03*
%TD*%
D16*
%TO.C,D6*%
X21431340Y-136655260D03*
D17*
X21431340Y-128855260D03*
%TD*%
D16*
%TO.C,D5*%
X21431340Y-117814550D03*
D17*
X21431340Y-110014550D03*
%TD*%
D16*
%TO.C,D4*%
X26193860Y-99745730D03*
D17*
X26193860Y-91945730D03*
%TD*%
D16*
%TO.C,D3*%
X23812600Y-80695650D03*
D17*
X23812600Y-72895650D03*
%TD*%
D16*
%TO.C,D2*%
X19050080Y-60664310D03*
D17*
X19050080Y-52864310D03*
%TD*%
D16*
%TO.C,D1*%
X19050080Y-31879820D03*
D17*
X19050080Y-24079820D03*
%TD*%
M02*
