M48
; DRILL file {KiCad (5.1.4)-1} date 7.4.2021 12.38.06
; FORMAT={-:-/ absolute / inch / decimal}
; #@! TF.CreationDate,2021-04-07T12:38:06+03:00
; #@! TF.GenerationSoftware,Kicad,Pcbnew,(5.1.4)-1
; #@! TF.FileFunction,Plated,1,2,PTH
FMAT,2
INCH
T1C0.0157
T2C0.0394
T3C0.0430
T4C0.0512
T5C0.0579
%
G90
G05
T1
X5.203Y-2.5781
T2
X6.84Y-3.26
X7.91Y-2.13
X5.4375Y-4.3203
X5.4375Y-4.6274
X4.5Y-2.0804
X4.5Y-2.3875
X0.8438Y-4.3313
X0.8438Y-4.6384
X5.0625Y-3.6328
X5.0625Y-3.9399
X3.1875Y-4.323
X3.1875Y-4.6301
X4.9062Y-2.8855
X4.9062Y-3.1926
X5.25Y-2.1016
X5.25Y-2.4086
X3.5625Y-3.573
X3.5625Y-3.8801
X0.9375Y-2.8699
X0.9375Y-3.177
X3.75Y-0.948
X3.75Y-1.2551
X0.8438Y-5.073
X0.8438Y-5.3801
X2.8125Y-3.573
X2.8125Y-3.8801
X3.0Y-0.948
X3.0Y-1.2551
X5.625Y-2.8543
X5.625Y-3.1614
X4.125Y-2.8781
X4.125Y-3.1852
X5.8125Y-3.6328
X5.8125Y-3.9399
X1.0313Y-3.6199
X1.0313Y-3.927
X1.7813Y-5.0777
X1.7813Y-5.3848
X0.75Y-0.948
X0.75Y-1.2551
X3.375Y-2.8828
X3.375Y-3.1899
X3.9375Y-4.3203
X3.9375Y-4.6274
X1.875Y-2.8699
X1.875Y-3.177
X2.4375Y-4.323
X2.4375Y-4.6301
X2.0625Y-3.586
X2.0625Y-3.893
X2.625Y-2.8828
X2.625Y-3.1899
X2.7188Y-5.086
X2.7188Y-5.393
X4.6875Y-4.3203
X4.6875Y-4.6274
X2.2812Y-0.9453
X2.2812Y-1.2524
X1.6875Y-4.323
X1.6875Y-4.6301
X4.3125Y-3.6328
X4.3125Y-3.9399
X0.75Y-2.0813
X0.75Y-2.3884
X3.0Y-2.073
X3.0Y-2.3801
X3.8125Y-5.0757
X3.8125Y-5.3828
X4.5Y-0.948
X4.5Y-1.2551
X1.5Y-2.0859
X1.5Y-2.393
X3.75Y-2.0703
X3.75Y-2.3774
X2.25Y-2.073
X2.25Y-2.3801
T3
X6.5438Y-2.19
X6.5438Y-2.29
X6.5438Y-2.39
X6.5438Y-2.49
X6.5438Y-2.59
X6.5438Y-2.69
X6.5438Y-2.79
X6.5438Y-2.89
X6.5438Y-2.99
X6.5438Y-3.09
X6.5438Y-3.19
X6.5438Y-3.29
X7.1438Y-2.19
X7.1438Y-2.29
X7.1438Y-2.39
X7.1438Y-2.49
X7.1438Y-2.59
X7.1438Y-2.69
X7.1438Y-2.79
X7.1438Y-2.89
X7.1438Y-2.99
X7.1438Y-3.09
X7.1438Y-3.19
X7.1438Y-3.29
T4
X7.56Y-2.3181
T5
X5.2875Y-3.65
X5.5375Y-3.55
X2.0063Y-5.15
X2.2563Y-5.05
X3.225Y-2.15
X3.475Y-2.05
X2.475Y-2.15
X2.725Y-2.05
X6.0375Y-3.65
X6.2875Y-3.55
X4.725Y-1.025
X4.975Y-0.925
X4.4437Y-5.15
X4.6937Y-5.05
X3.7875Y-3.65
X4.0375Y-3.55
X3.4125Y-4.4
X3.6625Y-4.3
X2.1Y-2.9
X2.35Y-2.8
X5.1Y-2.9
X5.35Y-2.8
X0.975Y-1.025
X1.225Y-0.925
X2.9438Y-5.15
X3.1938Y-5.05
X4.725Y-2.15
X4.975Y-2.05
X5.85Y-2.9
X6.1Y-2.8
X5.475Y-2.15
X5.725Y-2.05
X1.0688Y-5.15
X1.3188Y-5.05
X1.9125Y-4.4
X2.1625Y-4.3
X2.475Y-1.025
X2.725Y-0.925
X3.975Y-2.15
X4.225Y-2.05
X3.975Y-1.025
X4.225Y-0.925
X1.725Y-2.15
X1.975Y-2.05
X4.35Y-2.9
X4.6Y-2.8
X2.6625Y-4.4
X2.9125Y-4.3
X1.1625Y-2.9
X1.4125Y-2.8
X4.5375Y-3.65
X4.7875Y-3.55
X3.0375Y-3.65
X3.2875Y-3.55
X4.9125Y-4.4
X5.1625Y-4.3
X4.1625Y-4.4
X4.4125Y-4.3
X3.6Y-2.9
X3.85Y-2.8
X1.2563Y-3.65
X1.5063Y-3.55
X5.6625Y-4.4
X5.9125Y-4.3
X2.85Y-2.9
X3.1Y-2.8
X3.225Y-1.025
X3.475Y-0.925
X2.2875Y-3.65
X2.5375Y-3.55
X0.975Y-2.15
X1.225Y-2.05
X1.0688Y-4.4
X1.3188Y-4.3
T4
G00X7.3789Y-2.5189
M15
G01X7.3789Y-2.5189
M16
G05
G00X7.56Y-2.2
M15
G01X7.56Y-2.2
M16
G05
G00X7.56Y-2.4756
M15
G01X7.56Y-2.4756
M16
G05
T0
M30
