M48
; DRILL file {KiCad (5.1.4)-1} date 7.4.2021 12.38.06
; FORMAT={-:-/ absolute / inch / decimal}
; #@! TF.CreationDate,2021-04-07T12:38:06+03:00
; #@! TF.GenerationSoftware,Kicad,Pcbnew,(5.1.4)-1
; #@! TF.FileFunction,NonPlated,1,2,NPTH
FMAT,2
INCH
T1C0.0315
T2C0.0689
T3C0.1200
T4C0.1260
T5C0.1570
%
G90
G05
T1
X7.4694Y-2.137
X7.4694Y-2.4126
T2
X4.3Y-3.0
X4.7Y-3.0
X2.6125Y-4.5
X3.0125Y-4.5
X1.1125Y-3.0
X1.5125Y-3.0
X4.4875Y-3.75
X4.8875Y-3.75
X2.9875Y-3.75
X3.3875Y-3.75
X4.8625Y-4.5
X5.2625Y-4.5
X4.1125Y-4.5
X4.5125Y-4.5
X3.55Y-3.0
X3.95Y-3.0
X1.2063Y-3.75
X1.6063Y-3.75
X5.6125Y-4.5
X6.0125Y-4.5
X2.8Y-3.0
X3.2Y-3.0
X3.175Y-1.125
X3.575Y-1.125
X2.2375Y-3.75
X2.6375Y-3.75
X0.925Y-2.25
X1.325Y-2.25
X1.0188Y-4.5
X1.4188Y-4.5
X5.2375Y-3.75
X5.6375Y-3.75
X1.9563Y-5.25
X2.3563Y-5.25
X3.175Y-2.25
X3.575Y-2.25
X2.425Y-2.25
X2.825Y-2.25
X5.9875Y-3.75
X6.3875Y-3.75
X4.675Y-1.125
X5.075Y-1.125
X4.3937Y-5.25
X4.7938Y-5.25
X3.7375Y-3.75
X4.1375Y-3.75
X3.3625Y-4.5
X3.7625Y-4.5
X2.05Y-3.0
X2.45Y-3.0
X5.05Y-3.0
X5.45Y-3.0
X0.925Y-1.125
X1.325Y-1.125
X2.8938Y-5.25
X3.2938Y-5.25
X4.675Y-2.25
X5.075Y-2.25
X5.8Y-3.0
X6.2Y-3.0
X5.425Y-2.25
X5.825Y-2.25
X1.0188Y-5.25
X1.4188Y-5.25
X1.8625Y-4.5
X2.2625Y-4.5
X2.425Y-1.125
X2.825Y-1.125
X3.925Y-2.25
X4.325Y-2.25
X3.925Y-1.125
X4.325Y-1.125
X1.675Y-2.25
X2.075Y-2.25
T3
X4.125Y-4.975
X5.0625Y-4.975
T4
X0.6563Y-0.6563
X6.4219Y-5.5781
X7.8162Y-3.041
X0.6563Y-5.625
X3.7969Y-3.3516
X6.8438Y-3.8438
X5.8594Y-0.9844
T5
X3.5625Y-4.5
X2.25Y-3.0
X5.25Y-3.0
X1.125Y-1.125
X3.0938Y-5.25
X4.875Y-2.25
X6.0Y-3.0
X5.625Y-2.25
X1.2188Y-5.25
X2.0625Y-4.5
X2.625Y-1.125
X4.125Y-2.25
X4.125Y-1.125
X1.875Y-2.25
X4.5Y-3.0
X2.8125Y-4.5
X1.3125Y-3.0
X4.6875Y-3.75
X3.1875Y-3.75
X5.0625Y-4.5
X4.3125Y-4.5
X3.75Y-3.0
X1.4063Y-3.75
X5.8125Y-4.5
X3.0Y-3.0
X3.375Y-1.125
X2.4375Y-3.75
X1.125Y-2.25
X1.2188Y-4.5
X5.4375Y-3.75
X2.1563Y-5.25
X3.375Y-2.25
X2.625Y-2.25
X6.1875Y-3.75
X4.875Y-1.125
X4.125Y-5.575
X4.5938Y-5.25
X5.0625Y-5.575
X3.9375Y-3.75
T0
M30
