%TF.GenerationSoftware,KiCad,Pcbnew,(5.1.4)-1*%
%TF.CreationDate,2021-04-07T12:38:03+03:00*%
%TF.ProjectId,SplitH,53706c69-7448-42e6-9b69-6361645f7063,rev?*%
%TF.SameCoordinates,Original*%
%TF.FileFunction,Legend,Top*%
%TF.FilePolarity,Positive*%
%FSLAX46Y46*%
G04 Gerber Fmt 4.6, Leading zero omitted, Abs format (unit mm)*
G04 Created by KiCad (PCBNEW (5.1.4)-1) date 2021-04-07 12:38:03*
%MOMM*%
%LPD*%
G04 APERTURE LIST*
%ADD10C,0.300000*%
%ADD11C,0.381000*%
%ADD12C,0.150000*%
G04 APERTURE END LIST*
D10*
X189263320Y-83713301D02*
X190120462Y-83713301D01*
X189691891Y-85213301D02*
X189691891Y-83713301D01*
X191263320Y-84213301D02*
X191263320Y-85213301D01*
X190620462Y-84213301D02*
X190620462Y-84999015D01*
X190691891Y-85141872D01*
X190834748Y-85213301D01*
X191049034Y-85213301D01*
X191191891Y-85141872D01*
X191263320Y-85070444D01*
X192620462Y-84213301D02*
X192620462Y-85213301D01*
X191977605Y-84213301D02*
X191977605Y-84999015D01*
X192049034Y-85141872D01*
X192191891Y-85213301D01*
X192406177Y-85213301D01*
X192549034Y-85141872D01*
X192620462Y-85070444D01*
X193120462Y-83713301D02*
X193620462Y-85213301D01*
X194120462Y-83713301D01*
X195191891Y-85141872D02*
X195049034Y-85213301D01*
X194763320Y-85213301D01*
X194620462Y-85141872D01*
X194549034Y-84999015D01*
X194549034Y-84427587D01*
X194620462Y-84284730D01*
X194763320Y-84213301D01*
X195049034Y-84213301D01*
X195191891Y-84284730D01*
X195263320Y-84427587D01*
X195263320Y-84570444D01*
X194549034Y-84713301D01*
X195906177Y-85213301D02*
X195906177Y-84213301D01*
X195906177Y-83713301D02*
X195834748Y-83784730D01*
X195906177Y-83856158D01*
X195977605Y-83784730D01*
X195906177Y-83713301D01*
X195906177Y-83856158D01*
X196549034Y-85141872D02*
X196763320Y-85213301D01*
X197120462Y-85213301D01*
X197263320Y-85141872D01*
X197334748Y-85070444D01*
X197406177Y-84927587D01*
X197406177Y-84784730D01*
X197334748Y-84641872D01*
X197263320Y-84570444D01*
X197120462Y-84499015D01*
X196834748Y-84427587D01*
X196691891Y-84356158D01*
X196620462Y-84284730D01*
X196549034Y-84141872D01*
X196549034Y-83999015D01*
X196620462Y-83856158D01*
X196691891Y-83784730D01*
X196834748Y-83713301D01*
X197191891Y-83713301D01*
X197406177Y-83784730D01*
X198049034Y-84213301D02*
X198049034Y-85713301D01*
X198049034Y-84284730D02*
X198191891Y-84213301D01*
X198477605Y-84213301D01*
X198620462Y-84284730D01*
X198691891Y-84356158D01*
X198763320Y-84499015D01*
X198763320Y-84927587D01*
X198691891Y-85070444D01*
X198620462Y-85141872D01*
X198477605Y-85213301D01*
X198191891Y-85213301D01*
X198049034Y-85141872D01*
X199620462Y-85213301D02*
X199477605Y-85141872D01*
X199406177Y-84999015D01*
X199406177Y-83713301D01*
X200191891Y-85213301D02*
X200191891Y-84213301D01*
X200191891Y-83713301D02*
X200120462Y-83784730D01*
X200191891Y-83856158D01*
X200263320Y-83784730D01*
X200191891Y-83713301D01*
X200191891Y-83856158D01*
X200691891Y-84213301D02*
X201263320Y-84213301D01*
X200906177Y-83713301D02*
X200906177Y-84999015D01*
X200977605Y-85141872D01*
X201120462Y-85213301D01*
X201263320Y-85213301D01*
X25611295Y-144673372D02*
X25825581Y-144744801D01*
X26182724Y-144744801D01*
X26325581Y-144673372D01*
X26397010Y-144601944D01*
X26468438Y-144459087D01*
X26468438Y-144316230D01*
X26397010Y-144173372D01*
X26325581Y-144101944D01*
X26182724Y-144030515D01*
X25897010Y-143959087D01*
X25754152Y-143887658D01*
X25682724Y-143816230D01*
X25611295Y-143673372D01*
X25611295Y-143530515D01*
X25682724Y-143387658D01*
X25754152Y-143316230D01*
X25897010Y-143244801D01*
X26254152Y-143244801D01*
X26468438Y-143316230D01*
X27754152Y-144744801D02*
X27754152Y-143959087D01*
X27682724Y-143816230D01*
X27539867Y-143744801D01*
X27254152Y-143744801D01*
X27111295Y-143816230D01*
X27754152Y-144673372D02*
X27611295Y-144744801D01*
X27254152Y-144744801D01*
X27111295Y-144673372D01*
X27039867Y-144530515D01*
X27039867Y-144387658D01*
X27111295Y-144244801D01*
X27254152Y-144173372D01*
X27611295Y-144173372D01*
X27754152Y-144101944D01*
X28468438Y-143744801D02*
X28468438Y-144744801D01*
X28468438Y-143887658D02*
X28539867Y-143816230D01*
X28682724Y-143744801D01*
X28897010Y-143744801D01*
X29039867Y-143816230D01*
X29111295Y-143959087D01*
X29111295Y-144744801D01*
X29611295Y-143744801D02*
X30182724Y-143744801D01*
X29825581Y-143244801D02*
X29825581Y-144530515D01*
X29897010Y-144673372D01*
X30039867Y-144744801D01*
X30182724Y-144744801D01*
X31254152Y-144673372D02*
X31111295Y-144744801D01*
X30825581Y-144744801D01*
X30682724Y-144673372D01*
X30611295Y-144530515D01*
X30611295Y-143959087D01*
X30682724Y-143816230D01*
X30825581Y-143744801D01*
X31111295Y-143744801D01*
X31254152Y-143816230D01*
X31325581Y-143959087D01*
X31325581Y-144101944D01*
X30611295Y-144244801D01*
X32825581Y-144744801D02*
X32325581Y-144030515D01*
X31968438Y-144744801D02*
X31968438Y-143244801D01*
X32539867Y-143244801D01*
X32682724Y-143316230D01*
X32754152Y-143387658D01*
X32825581Y-143530515D01*
X32825581Y-143744801D01*
X32754152Y-143887658D01*
X32682724Y-143959087D01*
X32539867Y-144030515D01*
X31968438Y-144030515D01*
X34111295Y-144744801D02*
X34111295Y-143959087D01*
X34039867Y-143816230D01*
X33897010Y-143744801D01*
X33611295Y-143744801D01*
X33468438Y-143816230D01*
X34111295Y-144673372D02*
X33968438Y-144744801D01*
X33611295Y-144744801D01*
X33468438Y-144673372D01*
X33397010Y-144530515D01*
X33397010Y-144387658D01*
X33468438Y-144244801D01*
X33611295Y-144173372D01*
X33968438Y-144173372D01*
X34111295Y-144101944D01*
X34825581Y-143744801D02*
X34825581Y-145244801D01*
X34825581Y-143816230D02*
X34968438Y-143744801D01*
X35254152Y-143744801D01*
X35397010Y-143816230D01*
X35468438Y-143887658D01*
X35539867Y-144030515D01*
X35539867Y-144459087D01*
X35468438Y-144601944D01*
X35397010Y-144673372D01*
X35254152Y-144744801D01*
X34968438Y-144744801D01*
X34825581Y-144673372D01*
X35968438Y-143744801D02*
X36539867Y-143744801D01*
X36182724Y-143244801D02*
X36182724Y-144530515D01*
X36254152Y-144673372D01*
X36397010Y-144744801D01*
X36539867Y-144744801D01*
X37254152Y-144744801D02*
X37111295Y-144673372D01*
X37039867Y-144601944D01*
X36968438Y-144459087D01*
X36968438Y-144030515D01*
X37039867Y-143887658D01*
X37111295Y-143816230D01*
X37254152Y-143744801D01*
X37468438Y-143744801D01*
X37611295Y-143816230D01*
X37682724Y-143887658D01*
X37754152Y-144030515D01*
X37754152Y-144459087D01*
X37682724Y-144601944D01*
X37611295Y-144673372D01*
X37468438Y-144744801D01*
X37254152Y-144744801D01*
X38397010Y-144744801D02*
X38397010Y-143744801D01*
X38397010Y-144030515D02*
X38468438Y-143887658D01*
X38539867Y-143816230D01*
X38682724Y-143744801D01*
X38825581Y-143744801D01*
D11*
%TO.C,J1*%
X167481980Y-54356000D02*
X164941980Y-54356000D01*
X164941980Y-51816000D02*
X164941980Y-54356000D01*
X182721980Y-51816000D02*
X164941980Y-51816000D01*
X182721980Y-54356000D02*
X182721980Y-51816000D01*
D12*
G36*
X178763548Y-60835360D02*
G01*
X178763548Y-61035360D01*
X178663548Y-61035360D01*
X178663548Y-60835360D01*
X178763548Y-60835360D01*
G37*
X178763548Y-60835360D02*
X178763548Y-61035360D01*
X178663548Y-61035360D01*
X178663548Y-60835360D01*
X178763548Y-60835360D01*
G36*
X178363548Y-60235360D02*
G01*
X178363548Y-61035360D01*
X178263548Y-61035360D01*
X178263548Y-60235360D01*
X178363548Y-60235360D01*
G37*
X178363548Y-60235360D02*
X178363548Y-61035360D01*
X178263548Y-61035360D01*
X178263548Y-60235360D01*
X178363548Y-60235360D01*
G36*
X178763548Y-60235360D02*
G01*
X178763548Y-60335360D01*
X178263548Y-60335360D01*
X178263548Y-60235360D01*
X178763548Y-60235360D01*
G37*
X178763548Y-60235360D02*
X178763548Y-60335360D01*
X178263548Y-60335360D01*
X178263548Y-60235360D01*
X178763548Y-60235360D01*
G36*
X178563548Y-60635360D02*
G01*
X178563548Y-60735360D01*
X178463548Y-60735360D01*
X178463548Y-60635360D01*
X178563548Y-60635360D01*
G37*
X178563548Y-60635360D02*
X178563548Y-60735360D01*
X178463548Y-60735360D01*
X178463548Y-60635360D01*
X178563548Y-60635360D01*
G36*
X178763548Y-60235360D02*
G01*
X178763548Y-60535360D01*
X178663548Y-60535360D01*
X178663548Y-60235360D01*
X178763548Y-60235360D01*
G37*
X178763548Y-60235360D02*
X178763548Y-60535360D01*
X178663548Y-60535360D01*
X178663548Y-60235360D01*
X178763548Y-60235360D01*
D11*
X167481980Y-56896000D02*
X164941980Y-56896000D01*
X167481980Y-54356000D02*
X167481980Y-56896000D01*
X182721980Y-84836000D02*
X182721980Y-54356000D01*
X164941980Y-84836000D02*
X182721980Y-84836000D01*
X164941980Y-54356000D02*
X164941980Y-84836000D01*
D12*
%TO.C,J2*%
X192774000Y-52680000D02*
X186674000Y-52680000D01*
X192774000Y-64780000D02*
X186674000Y-64780000D01*
X192774000Y-52680000D02*
X192774000Y-64780000D01*
X186674000Y-52680000D02*
X186674000Y-64780000D01*
X192524000Y-52680000D02*
X192524000Y-50680000D01*
X186924000Y-52680000D02*
X186924000Y-50680000D01*
X192524000Y-50680000D02*
X186924000Y-50680000D01*
%TO.C,J1*%
X168069631Y-55187904D02*
X168526774Y-55187904D01*
X168298203Y-55987904D02*
X168298203Y-55187904D01*
X168717250Y-55187904D02*
X169250584Y-55987904D01*
X169250584Y-55187904D02*
X168717250Y-55987904D01*
X169707727Y-55187904D02*
X169783917Y-55187904D01*
X169860108Y-55226000D01*
X169898203Y-55264095D01*
X169936298Y-55340285D01*
X169974393Y-55492666D01*
X169974393Y-55683142D01*
X169936298Y-55835523D01*
X169898203Y-55911714D01*
X169860108Y-55949809D01*
X169783917Y-55987904D01*
X169707727Y-55987904D01*
X169631536Y-55949809D01*
X169593441Y-55911714D01*
X169555346Y-55835523D01*
X169517250Y-55683142D01*
X169517250Y-55492666D01*
X169555346Y-55340285D01*
X169593441Y-55264095D01*
X169631536Y-55226000D01*
X169707727Y-55187904D01*
X170888679Y-55149809D02*
X170202965Y-56178380D01*
X171155346Y-55987904D02*
X171155346Y-55187904D01*
X171345822Y-55187904D01*
X171460108Y-55226000D01*
X171536298Y-55302190D01*
X171574393Y-55378380D01*
X171612488Y-55530761D01*
X171612488Y-55645047D01*
X171574393Y-55797428D01*
X171536298Y-55873619D01*
X171460108Y-55949809D01*
X171345822Y-55987904D01*
X171155346Y-55987904D01*
X171879155Y-55187904D02*
X172374393Y-55187904D01*
X172107727Y-55492666D01*
X172222012Y-55492666D01*
X172298203Y-55530761D01*
X172336298Y-55568857D01*
X172374393Y-55645047D01*
X172374393Y-55835523D01*
X172336298Y-55911714D01*
X172298203Y-55949809D01*
X172222012Y-55987904D01*
X171993441Y-55987904D01*
X171917250Y-55949809D01*
X171879155Y-55911714D01*
X167780503Y-58527904D02*
X167780503Y-57727904D01*
X167970980Y-57727904D01*
X168085265Y-57766000D01*
X168161456Y-57842190D01*
X168199551Y-57918380D01*
X168237646Y-58070761D01*
X168237646Y-58185047D01*
X168199551Y-58337428D01*
X168161456Y-58413619D01*
X168085265Y-58489809D01*
X167970980Y-58527904D01*
X167780503Y-58527904D01*
X168542408Y-57804095D02*
X168580503Y-57766000D01*
X168656694Y-57727904D01*
X168847170Y-57727904D01*
X168923360Y-57766000D01*
X168961456Y-57804095D01*
X168999551Y-57880285D01*
X168999551Y-57956476D01*
X168961456Y-58070761D01*
X168504313Y-58527904D01*
X168999551Y-58527904D01*
X167780503Y-68687904D02*
X167780503Y-67887904D01*
X167970980Y-67887904D01*
X168085265Y-67926000D01*
X168161456Y-68002190D01*
X168199551Y-68078380D01*
X168237646Y-68230761D01*
X168237646Y-68345047D01*
X168199551Y-68497428D01*
X168161456Y-68573619D01*
X168085265Y-68649809D01*
X167970980Y-68687904D01*
X167780503Y-68687904D01*
X168732884Y-67887904D02*
X168809075Y-67887904D01*
X168885265Y-67926000D01*
X168923360Y-67964095D01*
X168961456Y-68040285D01*
X168999551Y-68192666D01*
X168999551Y-68383142D01*
X168961456Y-68535523D01*
X168923360Y-68611714D01*
X168885265Y-68649809D01*
X168809075Y-68687904D01*
X168732884Y-68687904D01*
X168656694Y-68649809D01*
X168618599Y-68611714D01*
X168580503Y-68535523D01*
X168542408Y-68383142D01*
X168542408Y-68192666D01*
X168580503Y-68040285D01*
X168618599Y-67964095D01*
X168656694Y-67926000D01*
X168732884Y-67887904D01*
X167780503Y-66147904D02*
X167780503Y-65347904D01*
X167970980Y-65347904D01*
X168085265Y-65386000D01*
X168161456Y-65462190D01*
X168199551Y-65538380D01*
X168237646Y-65690761D01*
X168237646Y-65805047D01*
X168199551Y-65957428D01*
X168161456Y-66033619D01*
X168085265Y-66109809D01*
X167970980Y-66147904D01*
X167780503Y-66147904D01*
X168999551Y-66147904D02*
X168542408Y-66147904D01*
X168770980Y-66147904D02*
X168770980Y-65347904D01*
X168694789Y-65462190D01*
X168618599Y-65538380D01*
X168542408Y-65576476D01*
X167761456Y-62846000D02*
X167685265Y-62807904D01*
X167570980Y-62807904D01*
X167456694Y-62846000D01*
X167380503Y-62922190D01*
X167342408Y-62998380D01*
X167304313Y-63150761D01*
X167304313Y-63265047D01*
X167342408Y-63417428D01*
X167380503Y-63493619D01*
X167456694Y-63569809D01*
X167570980Y-63607904D01*
X167647170Y-63607904D01*
X167761456Y-63569809D01*
X167799551Y-63531714D01*
X167799551Y-63265047D01*
X167647170Y-63265047D01*
X168142408Y-63607904D02*
X168142408Y-62807904D01*
X168599551Y-63607904D01*
X168599551Y-62807904D01*
X168980503Y-63607904D02*
X168980503Y-62807904D01*
X169170980Y-62807904D01*
X169285265Y-62846000D01*
X169361456Y-62922190D01*
X169399551Y-62998380D01*
X169437646Y-63150761D01*
X169437646Y-63265047D01*
X169399551Y-63417428D01*
X169361456Y-63493619D01*
X169285265Y-63569809D01*
X169170980Y-63607904D01*
X168980503Y-63607904D01*
X167761456Y-60306000D02*
X167685265Y-60267904D01*
X167570980Y-60267904D01*
X167456694Y-60306000D01*
X167380503Y-60382190D01*
X167342408Y-60458380D01*
X167304313Y-60610761D01*
X167304313Y-60725047D01*
X167342408Y-60877428D01*
X167380503Y-60953619D01*
X167456694Y-61029809D01*
X167570980Y-61067904D01*
X167647170Y-61067904D01*
X167761456Y-61029809D01*
X167799551Y-60991714D01*
X167799551Y-60725047D01*
X167647170Y-60725047D01*
X168142408Y-61067904D02*
X168142408Y-60267904D01*
X168599551Y-61067904D01*
X168599551Y-60267904D01*
X168980503Y-61067904D02*
X168980503Y-60267904D01*
X169170980Y-60267904D01*
X169285265Y-60306000D01*
X169361456Y-60382190D01*
X169399551Y-60458380D01*
X169437646Y-60610761D01*
X169437646Y-60725047D01*
X169399551Y-60877428D01*
X169361456Y-60953619D01*
X169285265Y-61029809D01*
X169170980Y-61067904D01*
X168980503Y-61067904D01*
X167780503Y-71227904D02*
X167780503Y-70427904D01*
X167970980Y-70427904D01*
X168085265Y-70466000D01*
X168161456Y-70542190D01*
X168199551Y-70618380D01*
X168237646Y-70770761D01*
X168237646Y-70885047D01*
X168199551Y-71037428D01*
X168161456Y-71113619D01*
X168085265Y-71189809D01*
X167970980Y-71227904D01*
X167780503Y-71227904D01*
X168923360Y-70694571D02*
X168923360Y-71227904D01*
X168732884Y-70389809D02*
X168542408Y-70961238D01*
X169037646Y-70961238D01*
X168237646Y-73691714D02*
X168199551Y-73729809D01*
X168085265Y-73767904D01*
X168009075Y-73767904D01*
X167894789Y-73729809D01*
X167818599Y-73653619D01*
X167780503Y-73577428D01*
X167742408Y-73425047D01*
X167742408Y-73310761D01*
X167780503Y-73158380D01*
X167818599Y-73082190D01*
X167894789Y-73006000D01*
X168009075Y-72967904D01*
X168085265Y-72967904D01*
X168199551Y-73006000D01*
X168237646Y-73044095D01*
X168923360Y-72967904D02*
X168770980Y-72967904D01*
X168694789Y-73006000D01*
X168656694Y-73044095D01*
X168580503Y-73158380D01*
X168542408Y-73310761D01*
X168542408Y-73615523D01*
X168580503Y-73691714D01*
X168618599Y-73729809D01*
X168694789Y-73767904D01*
X168847170Y-73767904D01*
X168923360Y-73729809D01*
X168961456Y-73691714D01*
X168999551Y-73615523D01*
X168999551Y-73425047D01*
X168961456Y-73348857D01*
X168923360Y-73310761D01*
X168847170Y-73272666D01*
X168694789Y-73272666D01*
X168618599Y-73310761D01*
X168580503Y-73348857D01*
X168542408Y-73425047D01*
X167780503Y-76307904D02*
X167780503Y-75507904D01*
X167970980Y-75507904D01*
X168085265Y-75546000D01*
X168161456Y-75622190D01*
X168199551Y-75698380D01*
X168237646Y-75850761D01*
X168237646Y-75965047D01*
X168199551Y-76117428D01*
X168161456Y-76193619D01*
X168085265Y-76269809D01*
X167970980Y-76307904D01*
X167780503Y-76307904D01*
X168504313Y-75507904D02*
X169037646Y-75507904D01*
X168694789Y-76307904D01*
X167818599Y-78428857D02*
X168085265Y-78428857D01*
X168199551Y-78847904D02*
X167818599Y-78847904D01*
X167818599Y-78047904D01*
X168199551Y-78047904D01*
X168885265Y-78047904D02*
X168732884Y-78047904D01*
X168656694Y-78086000D01*
X168618599Y-78124095D01*
X168542408Y-78238380D01*
X168504313Y-78390761D01*
X168504313Y-78695523D01*
X168542408Y-78771714D01*
X168580503Y-78809809D01*
X168656694Y-78847904D01*
X168809075Y-78847904D01*
X168885265Y-78809809D01*
X168923360Y-78771714D01*
X168961456Y-78695523D01*
X168961456Y-78505047D01*
X168923360Y-78428857D01*
X168885265Y-78390761D01*
X168809075Y-78352666D01*
X168656694Y-78352666D01*
X168580503Y-78390761D01*
X168542408Y-78428857D01*
X168504313Y-78505047D01*
X168047170Y-80968857D02*
X168161456Y-81006952D01*
X168199551Y-81045047D01*
X168237646Y-81121238D01*
X168237646Y-81235523D01*
X168199551Y-81311714D01*
X168161456Y-81349809D01*
X168085265Y-81387904D01*
X167780503Y-81387904D01*
X167780503Y-80587904D01*
X168047170Y-80587904D01*
X168123360Y-80626000D01*
X168161456Y-80664095D01*
X168199551Y-80740285D01*
X168199551Y-80816476D01*
X168161456Y-80892666D01*
X168123360Y-80930761D01*
X168047170Y-80968857D01*
X167780503Y-80968857D01*
X168923360Y-80854571D02*
X168923360Y-81387904D01*
X168732884Y-80549809D02*
X168542408Y-81121238D01*
X169037646Y-81121238D01*
X168047170Y-83508857D02*
X168161456Y-83546952D01*
X168199551Y-83585047D01*
X168237646Y-83661238D01*
X168237646Y-83775523D01*
X168199551Y-83851714D01*
X168161456Y-83889809D01*
X168085265Y-83927904D01*
X167780503Y-83927904D01*
X167780503Y-83127904D01*
X168047170Y-83127904D01*
X168123360Y-83166000D01*
X168161456Y-83204095D01*
X168199551Y-83280285D01*
X168199551Y-83356476D01*
X168161456Y-83432666D01*
X168123360Y-83470761D01*
X168047170Y-83508857D01*
X167780503Y-83508857D01*
X168961456Y-83127904D02*
X168580503Y-83127904D01*
X168542408Y-83508857D01*
X168580503Y-83470761D01*
X168656694Y-83432666D01*
X168847170Y-83432666D01*
X168923360Y-83470761D01*
X168961456Y-83508857D01*
X168999551Y-83585047D01*
X168999551Y-83775523D01*
X168961456Y-83851714D01*
X168923360Y-83889809D01*
X168847170Y-83927904D01*
X168656694Y-83927904D01*
X168580503Y-83889809D01*
X168542408Y-83851714D01*
X178969170Y-83508857D02*
X179083456Y-83546952D01*
X179121551Y-83585047D01*
X179159646Y-83661238D01*
X179159646Y-83775523D01*
X179121551Y-83851714D01*
X179083456Y-83889809D01*
X179007265Y-83927904D01*
X178702503Y-83927904D01*
X178702503Y-83127904D01*
X178969170Y-83127904D01*
X179045360Y-83166000D01*
X179083456Y-83204095D01*
X179121551Y-83280285D01*
X179121551Y-83356476D01*
X179083456Y-83432666D01*
X179045360Y-83470761D01*
X178969170Y-83508857D01*
X178702503Y-83508857D01*
X179845360Y-83127904D02*
X179692980Y-83127904D01*
X179616789Y-83166000D01*
X179578694Y-83204095D01*
X179502503Y-83318380D01*
X179464408Y-83470761D01*
X179464408Y-83775523D01*
X179502503Y-83851714D01*
X179540599Y-83889809D01*
X179616789Y-83927904D01*
X179769170Y-83927904D01*
X179845360Y-83889809D01*
X179883456Y-83851714D01*
X179921551Y-83775523D01*
X179921551Y-83585047D01*
X179883456Y-83508857D01*
X179845360Y-83470761D01*
X179769170Y-83432666D01*
X179616789Y-83432666D01*
X179540599Y-83470761D01*
X179502503Y-83508857D01*
X179464408Y-83585047D01*
X178969170Y-78428857D02*
X179083456Y-78466952D01*
X179121551Y-78505047D01*
X179159646Y-78581238D01*
X179159646Y-78695523D01*
X179121551Y-78771714D01*
X179083456Y-78809809D01*
X179007265Y-78847904D01*
X178702503Y-78847904D01*
X178702503Y-78047904D01*
X178969170Y-78047904D01*
X179045360Y-78086000D01*
X179083456Y-78124095D01*
X179121551Y-78200285D01*
X179121551Y-78276476D01*
X179083456Y-78352666D01*
X179045360Y-78390761D01*
X178969170Y-78428857D01*
X178702503Y-78428857D01*
X179426313Y-78047904D02*
X179921551Y-78047904D01*
X179654884Y-78352666D01*
X179769170Y-78352666D01*
X179845360Y-78390761D01*
X179883456Y-78428857D01*
X179921551Y-78505047D01*
X179921551Y-78695523D01*
X179883456Y-78771714D01*
X179845360Y-78809809D01*
X179769170Y-78847904D01*
X179540599Y-78847904D01*
X179464408Y-78809809D01*
X179426313Y-78771714D01*
X178969170Y-75888857D02*
X179083456Y-75926952D01*
X179121551Y-75965047D01*
X179159646Y-76041238D01*
X179159646Y-76155523D01*
X179121551Y-76231714D01*
X179083456Y-76269809D01*
X179007265Y-76307904D01*
X178702503Y-76307904D01*
X178702503Y-75507904D01*
X178969170Y-75507904D01*
X179045360Y-75546000D01*
X179083456Y-75584095D01*
X179121551Y-75660285D01*
X179121551Y-75736476D01*
X179083456Y-75812666D01*
X179045360Y-75850761D01*
X178969170Y-75888857D01*
X178702503Y-75888857D01*
X179921551Y-76307904D02*
X179464408Y-76307904D01*
X179692980Y-76307904D02*
X179692980Y-75507904D01*
X179616789Y-75622190D01*
X179540599Y-75698380D01*
X179464408Y-75736476D01*
X179026313Y-65728857D02*
X178759646Y-65728857D01*
X178759646Y-66147904D02*
X178759646Y-65347904D01*
X179140599Y-65347904D01*
X179788218Y-65614571D02*
X179788218Y-66147904D01*
X179597741Y-65309809D02*
X179407265Y-65881238D01*
X179902503Y-65881238D01*
X178226313Y-62807904D02*
X178492980Y-63607904D01*
X178759646Y-62807904D01*
X179483456Y-63531714D02*
X179445360Y-63569809D01*
X179331075Y-63607904D01*
X179254884Y-63607904D01*
X179140599Y-63569809D01*
X179064408Y-63493619D01*
X179026313Y-63417428D01*
X178988218Y-63265047D01*
X178988218Y-63150761D01*
X179026313Y-62998380D01*
X179064408Y-62922190D01*
X179140599Y-62846000D01*
X179254884Y-62807904D01*
X179331075Y-62807904D01*
X179445360Y-62846000D01*
X179483456Y-62884095D01*
X180283456Y-63531714D02*
X180245360Y-63569809D01*
X180131075Y-63607904D01*
X180054884Y-63607904D01*
X179940599Y-63569809D01*
X179864408Y-63493619D01*
X179826313Y-63417428D01*
X179788218Y-63265047D01*
X179788218Y-63150761D01*
X179826313Y-62998380D01*
X179864408Y-62922190D01*
X179940599Y-62846000D01*
X180054884Y-62807904D01*
X180131075Y-62807904D01*
X180245360Y-62846000D01*
X180283456Y-62884095D01*
X179031766Y-60999809D02*
X179146052Y-61037904D01*
X179336528Y-61037904D01*
X179412719Y-60999809D01*
X179450814Y-60961714D01*
X179488909Y-60885523D01*
X179488909Y-60809333D01*
X179450814Y-60733142D01*
X179412719Y-60695047D01*
X179336528Y-60656952D01*
X179184147Y-60618857D01*
X179107957Y-60580761D01*
X179069861Y-60542666D01*
X179031766Y-60466476D01*
X179031766Y-60390285D01*
X179069861Y-60314095D01*
X179107957Y-60276000D01*
X179184147Y-60237904D01*
X179374623Y-60237904D01*
X179488909Y-60276000D01*
X179717480Y-60237904D02*
X180174623Y-60237904D01*
X179946052Y-61037904D02*
X179946052Y-60237904D01*
X178683456Y-57766000D02*
X178607265Y-57727904D01*
X178492980Y-57727904D01*
X178378694Y-57766000D01*
X178302503Y-57842190D01*
X178264408Y-57918380D01*
X178226313Y-58070761D01*
X178226313Y-58185047D01*
X178264408Y-58337428D01*
X178302503Y-58413619D01*
X178378694Y-58489809D01*
X178492980Y-58527904D01*
X178569170Y-58527904D01*
X178683456Y-58489809D01*
X178721551Y-58451714D01*
X178721551Y-58185047D01*
X178569170Y-58185047D01*
X179064408Y-58527904D02*
X179064408Y-57727904D01*
X179521551Y-58527904D01*
X179521551Y-57727904D01*
X179902503Y-58527904D02*
X179902503Y-57727904D01*
X180092980Y-57727904D01*
X180207265Y-57766000D01*
X180283456Y-57842190D01*
X180321551Y-57918380D01*
X180359646Y-58070761D01*
X180359646Y-58185047D01*
X180321551Y-58337428D01*
X180283456Y-58413619D01*
X180207265Y-58489809D01*
X180092980Y-58527904D01*
X179902503Y-58527904D01*
X178740599Y-55987904D02*
X178473932Y-55606952D01*
X178283456Y-55987904D02*
X178283456Y-55187904D01*
X178588218Y-55187904D01*
X178664408Y-55226000D01*
X178702503Y-55264095D01*
X178740599Y-55340285D01*
X178740599Y-55454571D01*
X178702503Y-55530761D01*
X178664408Y-55568857D01*
X178588218Y-55606952D01*
X178283456Y-55606952D01*
X179045360Y-55759333D02*
X179426313Y-55759333D01*
X178969170Y-55987904D02*
X179235837Y-55187904D01*
X179502503Y-55987904D01*
X179692980Y-55187904D02*
X179883456Y-55987904D01*
X180035837Y-55416476D01*
X180188218Y-55987904D01*
X180378694Y-55187904D01*
X179026313Y-68268857D02*
X178759646Y-68268857D01*
X178759646Y-68687904D02*
X178759646Y-67887904D01*
X179140599Y-67887904D01*
X179826313Y-67887904D02*
X179445360Y-67887904D01*
X179407265Y-68268857D01*
X179445360Y-68230761D01*
X179521551Y-68192666D01*
X179712027Y-68192666D01*
X179788218Y-68230761D01*
X179826313Y-68268857D01*
X179864408Y-68345047D01*
X179864408Y-68535523D01*
X179826313Y-68611714D01*
X179788218Y-68649809D01*
X179712027Y-68687904D01*
X179521551Y-68687904D01*
X179445360Y-68649809D01*
X179407265Y-68611714D01*
X179026313Y-70808857D02*
X178759646Y-70808857D01*
X178759646Y-71227904D02*
X178759646Y-70427904D01*
X179140599Y-70427904D01*
X179788218Y-70427904D02*
X179635837Y-70427904D01*
X179559646Y-70466000D01*
X179521551Y-70504095D01*
X179445360Y-70618380D01*
X179407265Y-70770761D01*
X179407265Y-71075523D01*
X179445360Y-71151714D01*
X179483456Y-71189809D01*
X179559646Y-71227904D01*
X179712027Y-71227904D01*
X179788218Y-71189809D01*
X179826313Y-71151714D01*
X179864408Y-71075523D01*
X179864408Y-70885047D01*
X179826313Y-70808857D01*
X179788218Y-70770761D01*
X179712027Y-70732666D01*
X179559646Y-70732666D01*
X179483456Y-70770761D01*
X179445360Y-70808857D01*
X179407265Y-70885047D01*
X179026313Y-73348857D02*
X178759646Y-73348857D01*
X178759646Y-73767904D02*
X178759646Y-72967904D01*
X179140599Y-72967904D01*
X179369170Y-72967904D02*
X179902503Y-72967904D01*
X179559646Y-73767904D01*
X178969170Y-80968857D02*
X179083456Y-81006952D01*
X179121551Y-81045047D01*
X179159646Y-81121238D01*
X179159646Y-81235523D01*
X179121551Y-81311714D01*
X179083456Y-81349809D01*
X179007265Y-81387904D01*
X178702503Y-81387904D01*
X178702503Y-80587904D01*
X178969170Y-80587904D01*
X179045360Y-80626000D01*
X179083456Y-80664095D01*
X179121551Y-80740285D01*
X179121551Y-80816476D01*
X179083456Y-80892666D01*
X179045360Y-80930761D01*
X178969170Y-80968857D01*
X178702503Y-80968857D01*
X179464408Y-80664095D02*
X179502503Y-80626000D01*
X179578694Y-80587904D01*
X179769170Y-80587904D01*
X179845360Y-80626000D01*
X179883456Y-80664095D01*
X179921551Y-80740285D01*
X179921551Y-80816476D01*
X179883456Y-80930761D01*
X179426313Y-81387904D01*
X179921551Y-81387904D01*
%TO.C,REF\002A\002A*%
X95107696Y-81382440D02*
X94774363Y-80906250D01*
X94536268Y-81382440D02*
X94536268Y-80382440D01*
X94917220Y-80382440D01*
X95012458Y-80430060D01*
X95060077Y-80477679D01*
X95107696Y-80572917D01*
X95107696Y-80715774D01*
X95060077Y-80811012D01*
X95012458Y-80858631D01*
X94917220Y-80906250D01*
X94536268Y-80906250D01*
X95536268Y-80858631D02*
X95869601Y-80858631D01*
X96012458Y-81382440D02*
X95536268Y-81382440D01*
X95536268Y-80382440D01*
X96012458Y-80382440D01*
X96774363Y-80858631D02*
X96441030Y-80858631D01*
X96441030Y-81382440D02*
X96441030Y-80382440D01*
X96917220Y-80382440D01*
X97441030Y-80382440D02*
X97441030Y-80620536D01*
X97202934Y-80525298D02*
X97441030Y-80620536D01*
X97679125Y-80525298D01*
X97298172Y-80811012D02*
X97441030Y-80620536D01*
X97583887Y-80811012D01*
X98202934Y-80382440D02*
X98202934Y-80620536D01*
X97964839Y-80525298D02*
X98202934Y-80620536D01*
X98441030Y-80525298D01*
X98060077Y-80811012D02*
X98202934Y-80620536D01*
X98345791Y-80811012D01*
X172498646Y-93884040D02*
X172165313Y-93407850D01*
X171927218Y-93884040D02*
X171927218Y-92884040D01*
X172308170Y-92884040D01*
X172403408Y-92931660D01*
X172451027Y-92979279D01*
X172498646Y-93074517D01*
X172498646Y-93217374D01*
X172451027Y-93312612D01*
X172403408Y-93360231D01*
X172308170Y-93407850D01*
X171927218Y-93407850D01*
X172927218Y-93360231D02*
X173260551Y-93360231D01*
X173403408Y-93884040D02*
X172927218Y-93884040D01*
X172927218Y-92884040D01*
X173403408Y-92884040D01*
X174165313Y-93360231D02*
X173831980Y-93360231D01*
X173831980Y-93884040D02*
X173831980Y-92884040D01*
X174308170Y-92884040D01*
X174831980Y-92884040D02*
X174831980Y-93122136D01*
X174593884Y-93026898D02*
X174831980Y-93122136D01*
X175070075Y-93026898D01*
X174689122Y-93312612D02*
X174831980Y-93122136D01*
X174974837Y-93312612D01*
X175593884Y-92884040D02*
X175593884Y-93122136D01*
X175355789Y-93026898D02*
X175593884Y-93122136D01*
X175831980Y-93026898D01*
X175451027Y-93312612D02*
X175593884Y-93122136D01*
X175736741Y-93312612D01*
X147495416Y-21255610D02*
X147162083Y-20779420D01*
X146923988Y-21255610D02*
X146923988Y-20255610D01*
X147304940Y-20255610D01*
X147400178Y-20303230D01*
X147447797Y-20350849D01*
X147495416Y-20446087D01*
X147495416Y-20588944D01*
X147447797Y-20684182D01*
X147400178Y-20731801D01*
X147304940Y-20779420D01*
X146923988Y-20779420D01*
X147923988Y-20731801D02*
X148257321Y-20731801D01*
X148400178Y-21255610D02*
X147923988Y-21255610D01*
X147923988Y-20255610D01*
X148400178Y-20255610D01*
X149162083Y-20731801D02*
X148828750Y-20731801D01*
X148828750Y-21255610D02*
X148828750Y-20255610D01*
X149304940Y-20255610D01*
X149828750Y-20255610D02*
X149828750Y-20493706D01*
X149590654Y-20398468D02*
X149828750Y-20493706D01*
X150066845Y-20398468D01*
X149685892Y-20684182D02*
X149828750Y-20493706D01*
X149971607Y-20684182D01*
X150590654Y-20255610D02*
X150590654Y-20493706D01*
X150352559Y-20398468D02*
X150590654Y-20493706D01*
X150828750Y-20398468D01*
X150447797Y-20684182D02*
X150590654Y-20493706D01*
X150733511Y-20684182D01*
X15335486Y-139127980D02*
X15002153Y-138651790D01*
X14764058Y-139127980D02*
X14764058Y-138127980D01*
X15145010Y-138127980D01*
X15240248Y-138175600D01*
X15287867Y-138223219D01*
X15335486Y-138318457D01*
X15335486Y-138461314D01*
X15287867Y-138556552D01*
X15240248Y-138604171D01*
X15145010Y-138651790D01*
X14764058Y-138651790D01*
X15764058Y-138604171D02*
X16097391Y-138604171D01*
X16240248Y-139127980D02*
X15764058Y-139127980D01*
X15764058Y-138127980D01*
X16240248Y-138127980D01*
X17002153Y-138604171D02*
X16668820Y-138604171D01*
X16668820Y-139127980D02*
X16668820Y-138127980D01*
X17145010Y-138127980D01*
X17668820Y-138127980D02*
X17668820Y-138366076D01*
X17430724Y-138270838D02*
X17668820Y-138366076D01*
X17906915Y-138270838D01*
X17525962Y-138556552D02*
X17668820Y-138366076D01*
X17811677Y-138556552D01*
X18430724Y-138127980D02*
X18430724Y-138366076D01*
X18192629Y-138270838D02*
X18430724Y-138366076D01*
X18668820Y-138270838D01*
X18287867Y-138556552D02*
X18430724Y-138366076D01*
X18573581Y-138556552D01*
X15335486Y-12921200D02*
X15002153Y-12445010D01*
X14764058Y-12921200D02*
X14764058Y-11921200D01*
X15145010Y-11921200D01*
X15240248Y-11968820D01*
X15287867Y-12016439D01*
X15335486Y-12111677D01*
X15335486Y-12254534D01*
X15287867Y-12349772D01*
X15240248Y-12397391D01*
X15145010Y-12445010D01*
X14764058Y-12445010D01*
X15764058Y-12397391D02*
X16097391Y-12397391D01*
X16240248Y-12921200D02*
X15764058Y-12921200D01*
X15764058Y-11921200D01*
X16240248Y-11921200D01*
X17002153Y-12397391D02*
X16668820Y-12397391D01*
X16668820Y-12921200D02*
X16668820Y-11921200D01*
X17145010Y-11921200D01*
X17668820Y-11921200D02*
X17668820Y-12159296D01*
X17430724Y-12064058D02*
X17668820Y-12159296D01*
X17906915Y-12064058D01*
X17525962Y-12349772D02*
X17668820Y-12159296D01*
X17811677Y-12349772D01*
X18430724Y-11921200D02*
X18430724Y-12159296D01*
X18192629Y-12064058D02*
X18430724Y-12159296D01*
X18668820Y-12064058D01*
X18287867Y-12349772D02*
X18430724Y-12159296D01*
X18573581Y-12349772D01*
X197199216Y-73492555D02*
X196865883Y-73016365D01*
X196627788Y-73492555D02*
X196627788Y-72492555D01*
X197008740Y-72492555D01*
X197103978Y-72540175D01*
X197151597Y-72587794D01*
X197199216Y-72683032D01*
X197199216Y-72825889D01*
X197151597Y-72921127D01*
X197103978Y-72968746D01*
X197008740Y-73016365D01*
X196627788Y-73016365D01*
X197627788Y-72968746D02*
X197961121Y-72968746D01*
X198103978Y-73492555D02*
X197627788Y-73492555D01*
X197627788Y-72492555D01*
X198103978Y-72492555D01*
X198865883Y-72968746D02*
X198532550Y-72968746D01*
X198532550Y-73492555D02*
X198532550Y-72492555D01*
X199008740Y-72492555D01*
X199532550Y-72492555D02*
X199532550Y-72730651D01*
X199294454Y-72635413D02*
X199532550Y-72730651D01*
X199770645Y-72635413D01*
X199389692Y-72921127D02*
X199532550Y-72730651D01*
X199675407Y-72921127D01*
X200294454Y-72492555D02*
X200294454Y-72730651D01*
X200056359Y-72635413D02*
X200294454Y-72730651D01*
X200532550Y-72635413D01*
X200151597Y-72921127D02*
X200294454Y-72730651D01*
X200437311Y-72921127D01*
X161782976Y-137937350D02*
X161449643Y-137461160D01*
X161211548Y-137937350D02*
X161211548Y-136937350D01*
X161592500Y-136937350D01*
X161687738Y-136984970D01*
X161735357Y-137032589D01*
X161782976Y-137127827D01*
X161782976Y-137270684D01*
X161735357Y-137365922D01*
X161687738Y-137413541D01*
X161592500Y-137461160D01*
X161211548Y-137461160D01*
X162211548Y-137413541D02*
X162544881Y-137413541D01*
X162687738Y-137937350D02*
X162211548Y-137937350D01*
X162211548Y-136937350D01*
X162687738Y-136937350D01*
X163449643Y-137413541D02*
X163116310Y-137413541D01*
X163116310Y-137937350D02*
X163116310Y-136937350D01*
X163592500Y-136937350D01*
X164116310Y-136937350D02*
X164116310Y-137175446D01*
X163878214Y-137080208D02*
X164116310Y-137175446D01*
X164354405Y-137080208D01*
X163973452Y-137365922D02*
X164116310Y-137175446D01*
X164259167Y-137365922D01*
X164878214Y-136937350D02*
X164878214Y-137175446D01*
X164640119Y-137080208D02*
X164878214Y-137175446D01*
X165116310Y-137080208D01*
X164735357Y-137365922D02*
X164878214Y-137175446D01*
X165021071Y-137365922D01*
%TD*%
M02*
